<svg height="720" width="1280" viewBox="0 0 1280 720" xmlns="http://www.w3.org/2000/svg" version="1.2">
	<title>New Project</title>
	<style>
		.s0 { fill: #433f3e } 
	</style>
	<path d="m473 103h-2.7q-0.1 0-0.1-0.1l0.1-16.5q0-0.1 0.1-0.1h4.8q1.3 0 2.4 0.6 1.1 0.7 1.7 1.7 0.7 1.1 0.7 2.4 0 0.9-0.3 1.6-0.2 0.8-0.6 1.2-0.3 0.5-0.6 0.8 1.3 1.4 1.3 3.4v4.9q0 0.1-0.1 0.1h-2.8q0 0 0-0.1v-4.9q0-0.9-0.7-1.5-0.6-0.7-1.5-0.7h-1.5l-0.1 7.1q0 0.1-0.1 0.1zm2.2-13.8h-2v3.7h2q0.8 0 1.3-0.5 0.6-0.6 0.6-1.4 0-0.7-0.5-1.3-0.6-0.5-1.4-0.5zm5.8 13.7l3-16.5q0-0.1 0.1-0.1h3.5q0.1 0 0.1 0.1l2.8 16.5q0.1 0.1-0.1 0.1h-2.6q-0.1 0-0.1-0.1l-0.3-1.8h-3.3l-0.2 1.8q0 0.1-0.1 0.1h-2.7q-0.1 0-0.1-0.1zm5.9-4.3l-1-6.8-0.1-0.9-0.1 0.9-1.1 6.8zm10.3 4.4h-2.8q-0.1 0-0.1-0.1v-13.7h-3.1q-0.1 0-0.1-0.1v-2.7q0-0.1 0.1-0.1h9.1q0.2 0 0.2 0.1v2.7q0 0.1-0.1 0.1h-3.2v13.7q0 0.1 0 0.1zm8.8 0.2q-1.2 0-2.3-0.6-1.1-0.7-1.7-1.8-0.7-1.1-0.7-2.4l0.1-12q0-0.1 0.1-0.1h2.7q0.1 0 0.1 0.1v12q0 0.8 0.5 1.4 0.5 0.5 1.2 0.5 0.8 0 1.3-0.5 0.6-0.6 0.6-1.4v-12q0-0.1 0-0.1h2.7q0.1 0 0.1 0.1l0.1 12q0 1.3-0.7 2.4-0.6 1.1-1.7 1.8-1 0.6-2.4 0.6zm17 0q-1.3 0-2.4-0.6-1-0.7-1.7-1.8-0.6-1.1-0.6-2.4v-1.1q0-0.1 0.1-0.1h2.7q0.1 0 0.1 0.1v1.1q0 0.8 0.5 1.4 0.5 0.5 1.3 0.5 0.7 0 1.3-0.5 0.5-0.6 0.5-1.4 0-0.9-1.2-1.5-0.2-0.1-0.5-0.3-0.2-0.2-0.7-0.4-0.4-0.2-0.8-0.4-0.3-0.3-0.7-0.5-1.3-0.7-2-1.9-0.6-1.2-0.6-2.6 0-1.3 0.7-2.4 0.6-1.1 1.7-1.7 1-0.6 2.3-0.6 1.3 0 2.3 0.6 1.1 0.6 1.7 1.7 0.7 1.1 0.7 2.4v2q0 0.1-0.1 0.1h-2.7q-0.1 0-0.1-0.1v-2q0-0.9-0.6-1.4-0.5-0.5-1.2-0.5-0.8 0-1.3 0.6-0.5 0.5-0.5 1.3 0 0.8 0.3 1.3 0.4 0.5 1.2 1 0.1 0.1 0.5 0.2 0.3 0.2 0.7 0.5 0.5 0.2 0.8 0.4 0.3 0.2 0.4 0.2 1.2 0.7 1.9 1.6 0.7 1 0.7 2.4 0 1.4-0.6 2.5-0.7 1.1-1.8 1.7-1 0.6-2.3 0.6zm10.8 0q-1.3 0-2.4-0.6-1-0.7-1.7-1.8-0.6-1.1-0.6-2.4v-12q0-0.1 0.1-0.1h2.7q0.1 0 0.1 0.1v12q0 0.8 0.5 1.4 0.5 0.5 1.3 0.5 0.7 0 1.3-0.5 0.5-0.6 0.5-1.4v-12q0-0.1 0.1-0.1h2.7q0.1 0 0.1 0.1v12q0 1.3-0.6 2.4-0.7 1.1-1.7 1.8-1.1 0.6-2.4 0.6zm9.4-0.2h-2.7q-0.1 0-0.1-0.1v-16.5q0-0.1 0.1-0.1h4.9q1.3 0 2.4 0.6 1.1 0.7 1.7 1.7 0.7 1.1 0.7 2.4 0 0.9-0.3 1.6-0.3 0.8-0.6 1.2-0.4 0.5-0.7 0.8 1.3 1.4 1.3 3.4v4.9q0 0.1-0.1 0.1h-2.7q-0.1 0-0.1-0.1v-4.9q0-0.9-0.6-1.5-0.6-0.7-1.5-0.7h-1.6v7.1q0 0.1-0.1 0.1zm2.2-13.8h-2.1v3.7h2.1q0.7 0 1.3-0.5 0.6-0.6 0.6-1.4 0-0.7-0.6-1.3-0.5-0.5-1.3-0.5zm11 14q-1.3 0-2.4-0.6-1-0.7-1.7-1.7-0.6-1.1-0.6-2.5v-7.6q0-1.3 0.6-2.4 0.7-1.1 1.7-1.7 1.1-0.7 2.4-0.7 1.3 0 2.3 0.7 1.1 0.6 1.7 1.7 0.7 1.1 0.7 2.4v1.1q0 0.1-0.2 0.1h-2.6q-0.1 0-0.1-0.1v-0.9q0-0.9-0.6-1.5-0.5-0.6-1.2-0.6-0.7 0-1.3 0.6-0.5 0.5-0.5 1.3v7.6q0 0.8 0.5 1.4 0.5 0.5 1.3 0.5 0.7 0 1.2-0.5 0.6-0.6 0.6-1.4v-1.2h-1.7q-0.1 0-0.1-0.1v-2.7q0-0.1 0.1-0.1h4.5q0.1 0 0.1 0.1v4q0 1.4-0.7 2.5-0.6 1-1.7 1.7-1 0.6-2.3 0.6zm5.5-0.3l3-16.5q0-0.1 0.1-0.1h3.5q0.1 0 0.1 0.1l2.9 16.5q0 0.1-0.1 0.1h-2.7q-0.1 0-0.1-0.1l-0.2-1.8h-3.3l-0.3 1.8q0 0.1-0.1 0.1h-2.7q-0.1 0-0.1-0.1zm6-4.3l-1-6.8-0.2-0.9-0.1 0.9-1 6.8zm15.7 4.4h-4.3q-0.1 0-0.1-0.1l0.1-16.5q0-0.1 0.1-0.1h4.6q1.3 0 2.4 0.7 1.1 0.6 1.7 1.7 0.6 1.1 0.6 2.3 0 1.1-0.4 2-0.5 0.9-1.1 1.4 0.7 0.7 1 1.6 0.4 0.9 0.4 1.9 0 1.4-0.6 2.6-0.7 1.1-1.9 1.8-1.1 0.7-2.5 0.7zm0.4-13.9h-1.8v3.8h1.8q0.8 0 1.3-0.6 0.5-0.6 0.5-1.3 0-0.7-0.5-1.3-0.6-0.6-1.3-0.6zm-0.4 6.7h-1.4l-0.1 4.3h1.5q0.9 0 1.5-0.7 0.6-0.6 0.6-1.5 0-0.8-0.6-1.5-0.6-0.6-1.5-0.6zm14.6 7.2h-7.8q0 0 0-0.1v-16.5q0-0.1 0.1-0.1h7.7q0.1 0 0.1 0.1v2.7q0 0.1-0.1 0.1h-4.9v3.7h4.9q0.1 0 0.1 0.1v2.8q0 0.1-0.1 0.1h-4.9v4.1h4.9q0.1 0 0.1 0.2v2.7q0 0.1-0.1 0.1zm5 0h-2.7q-0.1 0-0.1-0.1l0.1-16.5q0-0.1 0.1-0.1h4.8q1.3 0 2.4 0.6 1.1 0.7 1.7 1.7 0.7 1.1 0.7 2.4 0 0.9-0.3 1.6-0.2 0.8-0.6 1.2-0.3 0.5-0.6 0.8 1.3 1.4 1.3 3.4v4.9q0 0.1-0.1 0.1h-2.8q0 0 0-0.1v-4.9q0-0.9-0.7-1.5-0.6-0.7-1.5-0.7h-1.5l-0.1 7.1q0 0.1-0.1 0.1zm2.2-13.8h-2v3.7h2q0.8 0 1.3-0.5 0.6-0.6 0.6-1.4 0-0.7-0.5-1.3-0.6-0.5-1.4-0.5zm10.7 14q-1.3 0-2.4-0.6-1-0.7-1.7-1.8-0.6-1.1-0.6-2.4v-1.1q0-0.1 0.1-0.1h2.7q0.1 0 0.1 0.1v1.1q0 0.8 0.5 1.4 0.5 0.5 1.3 0.5 0.7 0 1.3-0.5 0.5-0.6 0.5-1.4 0-0.9-1.2-1.5-0.2-0.1-0.5-0.3-0.3-0.2-0.7-0.4-0.4-0.2-0.8-0.4-0.3-0.3-0.7-0.5-1.3-0.7-2-1.9-0.6-1.2-0.6-2.6 0-1.3 0.7-2.4 0.6-1.1 1.7-1.7 1-0.6 2.3-0.6 1.3 0 2.3 0.6 1.1 0.6 1.7 1.7 0.7 1.1 0.7 2.4v2q0 0.1-0.1 0.1h-2.7q-0.1 0-0.1-0.1v-2q0-0.9-0.6-1.4-0.5-0.5-1.2-0.5-0.8 0-1.3 0.6-0.5 0.5-0.5 1.3 0 0.8 0.3 1.3 0.4 0.5 1.2 1 0.1 0.1 0.5 0.2 0.3 0.2 0.7 0.5 0.4 0.2 0.8 0.4 0.3 0.2 0.4 0.2 1.2 0.7 1.9 1.6 0.7 1 0.7 2.4 0 1.4-0.6 2.5-0.7 1.1-1.8 1.7-1 0.6-2.3 0.6zm10.8 0q-1.3 0-2.4-0.6-1.1-0.7-1.7-1.8-0.6-1.1-0.6-2.4v-12q0-0.1 0.1-0.1h2.7q0.1 0 0.1 0.1v12q0 0.8 0.5 1.4 0.5 0.5 1.3 0.5 0.7 0 1.3-0.5 0.5-0.6 0.5-1.4v-12q0-0.1 0.1-0.1h2.7q0.1 0 0.1 0.1v12q0 1.3-0.6 2.4-0.7 1.1-1.7 1.8-1.1 0.6-2.4 0.6zm9.4-0.2h-2.7q-0.1 0-0.1-0.1v-16.5q0-0.1 0.1-0.1h2.7q0.1 0 0.1 0.1v5.7l3.8-5.7q0.1-0.1 0.2-0.1h2.7q0.1 0 0.1 0.1l-4.2 6.6 4.7 9.9q0 0.1-0.2 0.1h-2.9q-0.1 0-0.1-0.1l-3.3-7-0.8 1.3v5.7q0 0.1-0.1 0.1zm7.6-0.1l3-16.5q0-0.1 0.1-0.1h3.5q0.1 0 0.1 0.1l2.9 16.5q0 0.1-0.1 0.1h-2.7q-0.1 0-0.1-0.1l-0.3-1.8h-3.2l-0.3 1.8q0 0.1-0.1 0.1h-2.7q-0.1 0-0.1-0.1zm6-4.3l-1-6.8-0.2-0.9-0.1 0.9-1 6.8zm9.5 4.6q-1.3 0-2.4-0.6-1.1-0.7-1.7-1.8-0.6-1.1-0.6-2.5v-7.4q0-1.4 0.6-2.5 0.6-1 1.7-1.7 1.1-0.7 2.4-0.7 1.3 0 2.4 0.7 1 0.6 1.6 1.7 0.7 1.1 0.7 2.5v1.1q0 0.1-0.1 0.1h-2.7q-0.1 0-0.1-0.1v-1.1q0-0.8-0.5-1.4-0.5-0.6-1.3-0.6-0.9 0-1.3 0.6-0.5 0.6-0.5 1.4v7.4q0 0.9 0.5 1.5 0.6 0.5 1.3 0.5 0.8 0 1.3-0.6 0.5-0.6 0.5-1.4v-1.1q0-0.1 0.1-0.1h2.7q0.1 0 0.1 0.1v1.1q0 1.4-0.6 2.5-0.7 1.1-1.7 1.8-1.1 0.6-2.4 0.6zm9.3-0.2h-2.7q-0.2 0-0.2-0.1l0.1-16.5q0-0.1 0.1-0.1h2.6q0.1 0 0.1 0.1l0.1 16.5q0 0.1-0.1 0.1zm7.3 0h-2.7q-0.1 0-0.1-0.1v-13.7h-3.1q-0.1 0-0.1-0.1v-2.7q0-0.1 0.1-0.1h9.1q0.1 0 0.1 0.1v2.7q0 0.1-0.1 0.1h-3.1v13.7q0 0.1-0.1 0.1zm3.7-0.1l2.9-16.5q0.1-0.1 0.2-0.1h3.4q0.1 0 0.2 0.1l2.8 16.5q0 0.1-0.1 0.1h-2.6q-0.2 0-0.2-0.1l-0.2-1.8h-3.3l-0.3 1.8q0 0.1-0.1 0.1h-2.6q-0.1 0-0.1-0.1zm5.9-4.3l-1-6.8-0.1-0.9-0.1 0.9-1.1 6.8zm13 4.4h-7.8q-0.1 0-0.1-0.1v-16.5q0-0.1 0.1-0.1h2.7q0.1 0 0.1 0.1v13.6h5q0.1 0 0.1 0.2v2.7q0 0.1-0.1 0.1zm0.8-0.1l3-16.5q0-0.1 0.1-0.1h3.5q0.1 0 0.1 0.1l2.9 16.5q0 0.1-0.1 0.1h-2.7q-0.1 0-0.1-0.1l-0.3-1.8h-3.2l-0.3 1.8q0 0.1-0.1 0.1h-2.7q-0.1 0-0.1-0.1zm6-4.3l-1-6.8-0.2-0.9-0.1 0.9-1.1 6.8zm8 4.4h-2.7q-0.1 0-0.1-0.1v-16.5q0-0.1 0.1-0.1h2.7q0.1 0 0.1 0.1v6.5h3.6v-6.5q0-0.1 0.1-0.1h2.6q0.2 0 0.2 0.1v16.5q0 0.1-0.1 0.1h-2.7q-0.1 0-0.1-0.1v-7.1h-3.6v7.1q0 0.1-0.1 0.1zm8.6 3v-1.5q0.6 0 1-0.4 0.4-0.5 0.4-1.1h-1.3q-0.1 0-0.1-0.1v-2.7q0-0.1 0.1-0.1h2.7q0.1 0 0.1 0.1v2.8q0 0.8-0.4 1.5-0.5 0.7-1.1 1.1-0.7 0.4-1.4 0.4zm10.2-3.1l3-16.5q0-0.1 0.1-0.1h3.5q0.1 0 0.1 0.1l2.9 16.5q0 0.1-0.1 0.1h-2.7q-0.1 0-0.1-0.1l-0.2-1.8h-3.3l-0.3 1.8q0 0.1-0.1 0.1h-2.7q-0.1 0-0.1-0.1zm6-4.3l-1-6.8-0.1-0.9-0.2 0.9-1 6.8zm12.9 4.4h-7.7q-0.1 0-0.1-0.1v-16.5q0-0.1 0.1-0.1h2.7q0.1 0 0.1 0.1v13.6h4.9q0.2 0 0.2 0.2v2.7q0 0.1-0.2 0.1zm9.6 0h-7.8q-0.1 0-0.1-0.1v-16.5q0-0.1 0.2-0.1h2.6q0.1 0 0.1 0.1v13.6h5q0.1 0 0.1 0.2v2.7q0 0.1-0.1 0.1zm9.5 0h-7.8q-0.1 0-0.1-0.1l0.1-16.5q0-0.1 0.1-0.1h7.7q0.1 0 0.1 0.1v2.7q0 0.1-0.1 0.1h-4.9v3.7h4.9q0.1 0 0.1 0.1v2.8q0 0.1-0.1 0.1h-4.9v4.1h4.9q0.1 0 0.1 0.2v2.7q0 0.1-0.1 0.1zm10.1 0h-7.8q-0.1 0-0.1-0.1v-16.5q0-0.1 0.2-0.1h2.6q0.2 0 0.2 0.1l-0.1 13.6h5q0.1 0 0.1 0.2v2.7q0 0.1-0.1 0.1zm6.1 0.2q-1.3 0-2.4-0.6-1.1-0.7-1.7-1.8-0.6-1.1-0.6-2.4v-12q0-0.1 0.1-0.1h2.7q0.1 0 0.1 0.1v12q0 0.8 0.5 1.4 0.5 0.5 1.3 0.5 0.7 0 1.3-0.5 0.5-0.6 0.5-1.4v-12q0-0.1 0.1-0.1h2.7q0.1 0 0.1 0.1v12q0 1.3-0.6 2.4-0.7 1.1-1.7 1.8-1.1 0.6-2.4 0.6zm11.6-0.2h-2.8q0 0 0-0.1v-6.8l-3.2-9.7q-0.1-0.1 0-0.1h2.7q0.1 0 0.2 0.1l1.7 6.5 1.8-6.5q0.1-0.1 0.1-0.1h2.7q0.1 0 0.1 0.1l-3.2 9.6v6.9q0 0.1-0.1 0.1zm3.8-0.1l3-16.5q0-0.1 0.1-0.1h3.5q0.1 0 0.1 0.1l2.9 16.5q0 0.1-0.1 0.1h-2.7q-0.1 0-0.1-0.1l-0.3-1.8h-3.3l-0.2 1.8q0 0.1-0.1 0.1h-2.7q-0.1 0-0.1-0.1zm5.9-4.3l-1-6.8-0.1-0.9-0.1 0.9-1.1 6.8zm8 4.4h-2.8q-0.1 0-0.1-0.1v-2.7q0-0.1 0.1-0.1h2.8q0.1 0 0.1 0.1v2.7q0 0.1-0.1 0.1zm-356.7 29.2q-1.3 0-2.3-0.6-1.1-0.7-1.8-1.8-0.6-1.1-0.6-2.4v-1.1q0-0.1 0.1-0.1h2.7q0.1 0 0.1 0.1v1.1q0 0.8 0.5 1.4 0.6 0.5 1.3 0.5 0.8 0 1.3-0.5 0.5-0.6 0.5-1.4 0-0.9-1.1-1.5-0.2-0.1-0.5-0.3-0.3-0.2-0.7-0.4-0.4-0.2-0.8-0.4-0.4-0.3-0.8-0.5-1.3-0.7-1.9-1.9-0.7-1.2-0.7-2.6 0-1.3 0.7-2.4 0.7-1.1 1.7-1.7 1.1-0.6 2.3-0.6 1.3 0 2.4 0.6 1 0.6 1.7 1.7 0.6 1.1 0.6 2.4v2q0 0.1-0.1 0.1h-2.7q-0.1 0-0.1-0.1v-2q0-0.9-0.5-1.4-0.6-0.5-1.3-0.5-0.7 0-1.3 0.6-0.5 0.5-0.5 1.3 0 0.8 0.3 1.3 0.4 0.5 1.3 1 0.1 0.1 0.4 0.2 0.4 0.2 0.8 0.5 0.4 0.2 0.7 0.4 0.4 0.2 0.4 0.2 1.2 0.7 1.9 1.6 0.7 1 0.7 2.4 0 1.4-0.6 2.5-0.7 1.1-1.7 1.7-1.1 0.6-2.4 0.6zm14.2-0.2h-7.7q-0.1 0-0.1-0.1v-16.5q0-0.1 0.1-0.1h7.7q0.1 0 0.1 0.1v2.7q0 0.1-0.1 0.1h-4.9v3.7h4.9q0.1 0 0.1 0.1v2.8q0 0.1-0.1 0.1h-4.9v4.1h4.9q0.1 0 0.1 0.2v2.7q0 0.1-0.1 0.1zm6.7 0h-4.3q-0.1 0-0.1-0.1v-16.5q0-0.1 0.1-0.1h4.6q1.4 0 2.5 0.7 1.1 0.6 1.7 1.7 0.6 1.1 0.6 2.3 0 1.1-0.5 2-0.4 0.9-1.1 1.4 0.7 0.7 1.1 1.6 0.4 0.9 0.4 1.9 0 1.4-0.7 2.6-0.7 1.1-1.8 1.8-1.1 0.7-2.5 0.7zm0.3-13.9h-1.8v3.8h1.8q0.9 0 1.4-0.6 0.5-0.6 0.5-1.3 0-0.7-0.6-1.3-0.5-0.6-1.3-0.6zm-0.3 6.7h-1.5v4.3h1.5q0.8 0 1.5-0.7 0.6-0.6 0.6-1.5 0-0.8-0.6-1.5-0.7-0.6-1.5-0.6zm5.9 7.1l3-16.5q0-0.1 0.1-0.1h3.5q0.1 0 0.1 0.1l2.8 16.5q0.1 0.1-0.1 0.1h-2.6q-0.1 0-0.1-0.1l-0.3-1.8h-3.3l-0.2 1.8q0 0.1-0.1 0.1h-2.7q-0.1 0-0.1-0.1zm5.9-4.3l-1-6.8-0.1-0.9-0.1 0.9-1.1 6.8zm9.5 4.4h-4.3q-0.1 0-0.1-0.1l0.1-16.5q0-0.1 0.1-0.1h4.6q1.3 0 2.4 0.7 1.1 0.6 1.7 1.7 0.7 1.1 0.7 2.3 0 1.1-0.5 2-0.5 0.9-1.1 1.4 0.7 0.7 1.1 1.6 0.3 0.9 0.3 1.9 0 1.4-0.6 2.6-0.7 1.1-1.8 1.8-1.2 0.7-2.6 0.7zm0.4-13.9h-1.8v3.8h1.8q0.8 0 1.3-0.6 0.6-0.6 0.6-1.3 0-0.7-0.6-1.3-0.5-0.6-1.3-0.6zm-0.4 6.7h-1.4l-0.1 4.3h1.5q0.9 0 1.5-0.7 0.6-0.6 0.6-1.5 0-0.8-0.6-1.5-0.6-0.6-1.5-0.6zm15.8 7.2h-2.7q-0.1 0-0.1-0.1v-16.5q0-0.1 0.1-0.1h2.7q0.1 0 0.1 0.1v16.5q0 0.1-0.1 0.1zm1.4-0.1l3-16.5q0-0.1 0.1-0.1h3.5q0.1 0 0.1 0.1l2.9 16.5q0 0.1-0.1 0.1h-2.7q-0.1 0-0.1-0.1l-0.3-1.8h-3.2l-0.3 1.8q0 0.1-0.1 0.1h-2.7q-0.1 0-0.1-0.1zm6-4.3l-1-6.8-0.2-0.9-0.1 0.9-1 6.8zm16.3 4.4h-2.7q-0.1 0-0.1-0.1v-6.8l-3.2-9.7q0-0.1 0.1-0.1h2.6q0.1 0 0.2 0.1l1.7 6.5 1.8-6.5q0.1-0.1 0.2-0.1h2.7q0.1 0 0 0.1l-3.2 9.6v6.9q0 0.1-0.1 0.1zm3.8-0.1l3-16.5q0-0.1 0.1-0.1h3.5q0.1 0 0.1 0.1l2.9 16.5q0 0.1-0.1 0.1h-2.7q-0.1 0-0.1-0.1l-0.3-1.8h-3.2l-0.3 1.8q0 0.1-0.1 0.1h-2.7q-0.1 0-0.1-0.1zm6-4.3l-1-6.8-0.2-0.9-0.1 0.9-1.1 6.8zm7.8 4.4h-2.4q-0.2 0-0.2-0.2v-16.3q0-0.2 0.2-0.2h2.1l4.1 9.5-0.1-9.3q0-0.2 0.2-0.2h2.3q0.2 0 0.2 0.2v16.4q0 0.1-0.1 0.1h-2.1l-4.2-8.8 0.2 8.6q0 0.2-0.2 0.2zm12.9 0.2q-1.3 0-2.4-0.6-1-0.7-1.7-1.7-0.6-1.1-0.6-2.5v-7.6q0-1.3 0.7-2.4 0.6-1.1 1.7-1.7 1-0.7 2.3-0.7 1.3 0 2.4 0.7 1 0.6 1.7 1.7 0.6 1.1 0.6 2.4v1.1q0 0.1-0.1 0.1h-2.7q-0.1 0-0.1-0.1v-0.9q0-0.9-0.5-1.5-0.5-0.6-1.3-0.6-0.7 0-1.2 0.6-0.6 0.5-0.6 1.3v7.6q0 0.8 0.5 1.4 0.6 0.5 1.3 0.5 0.8 0 1.3-0.5 0.5-0.6 0.5-1.4v-1.2h-1.7q-0.1 0-0.1-0.1v-2.7q0-0.1 0.1-0.1h4.5q0.1 0 0.1 0.1v4q0 1.4-0.6 2.5-0.7 1-1.7 1.7-1.1 0.6-2.4 0.6zm16.7 0q-1.3 0-2.4-0.6-1-0.7-1.7-1.8-0.6-1.1-0.6-2.4v-1.1q0-0.1 0.1-0.1h2.7q0.1 0 0.1 0.1v1.1q0 0.8 0.5 1.4 0.6 0.5 1.3 0.5 0.8 0 1.3-0.5 0.5-0.6 0.5-1.4 0-0.9-1.1-1.5-0.2-0.1-0.5-0.3-0.3-0.2-0.7-0.4-0.4-0.2-0.8-0.4-0.4-0.3-0.8-0.5-1.3-0.7-1.9-1.9-0.7-1.2-0.7-2.6 0-1.3 0.7-2.4 0.6-1.1 1.7-1.7 1.1-0.6 2.3-0.6 1.3 0 2.3 0.6 1.1 0.6 1.7 1.7 0.7 1.1 0.7 2.4v2q0 0.1-0.1 0.1h-2.7q-0.1 0-0.1-0.1v-2q0-0.9-0.5-1.4-0.6-0.5-1.3-0.5-0.7 0-1.3 0.6-0.5 0.5-0.5 1.3 0 0.8 0.3 1.3 0.4 0.5 1.3 1 0.1 0.1 0.4 0.2 0.3 0.2 0.8 0.5 0.4 0.2 0.7 0.4 0.4 0.2 0.4 0.2 1.2 0.7 1.9 1.6 0.7 1 0.7 2.4 0 1.4-0.6 2.5-0.7 1.1-1.7 1.7-1.1 0.6-2.4 0.6zm10.8 0q-1.3 0-2.3-0.6-1.1-0.7-1.8-1.8-0.6-1.1-0.6-2.4v-12q0-0.1 0.1-0.1h2.7q0.1 0 0.1 0.1v12q0 0.8 0.5 1.4 0.6 0.5 1.3 0.5 0.8 0 1.3-0.5 0.5-0.6 0.5-1.4v-12q0-0.1 0.1-0.1h2.7q0.1 0 0.1 0.1v12q0 1.3-0.6 2.4-0.6 1.1-1.7 1.8-1.1 0.6-2.4 0.6zm11-0.2h-4.3q-0.1 0-0.1-0.1l0.1-16.5q0-0.1 0.1-0.1h4.4q1.4-0.1 2.5 0.6 1 0.6 1.7 1.7 0.6 1.1 0.6 2.4v6.9q0 1.4-0.6 2.6-0.7 1.1-1.8 1.8-1.1 0.7-2.6 0.7zm0.2-13.9l-1.6 0.1-0.1 10.8h1.5q0.9 0 1.5-0.6 0.6-0.6 0.6-1.5v-6.9q0-0.7-0.5-1.3-0.6-0.6-1.4-0.6zm9.6 13.9h-2.7q-0.2 0-0.2-0.1l0.1-16.5q0-0.1 0.1-0.1h2.6q0.1 0 0.1 0.1l0.1 16.5q0 0.1-0.1 0.1zm11.2 0h-2.7q-0.1 0-0.1-0.1l0.1-16.5q0-0.1 0-0.1h2.7q0.1 0 0.1 0.1v5.7l3.8-5.7q0.1-0.1 0.2-0.1h2.7q0.1 0 0.1 0.1l-4.2 6.6 4.7 9.9q0 0.1-0.1 0.1h-3q-0.1 0-0.1-0.1l-3.3-7-0.8 1.3v5.7q0 0.1-0.1 0.1zm7.7-0.1l2.9-16.5q0.1-0.1 0.1-0.1h3.5q0.1 0 0.1 0.1l2.9 16.5q0 0.1-0.1 0.1h-2.7q-0.1 0-0.1-0.1l-0.2-1.8h-3.3l-0.3 1.8q0 0.1-0.1 0.1h-2.7q0 0 0-0.1zm5.9-4.3l-1-6.8-0.1-0.9-0.2 0.9-1 6.8zm9.5 4.6q-1.3 0-2.3-0.6-1.1-0.7-1.8-1.8-0.6-1.1-0.6-2.4l0.1-12q0-0.1 0.1-0.1h2.6q0.1 0 0.1 0.1v12q0 0.8 0.6 1.4 0.5 0.5 1.2 0.5 0.8 0 1.3-0.5 0.5-0.6 0.5-1.4v-12q0-0.1 0.1-0.1h2.7q0.1 0 0.1 0.1v12q0 1.3-0.6 2.4-0.6 1.1-1.7 1.8-1.1 0.6-2.4 0.6zm9.4-0.2h-2.7q-0.1 0-0.1-0.1l0.1-16.5q0-0.1 0.1-0.1h2.7q0.1 0 0.1 0.1v5.7l3.7-5.7q0.1-0.1 0.2-0.1h2.8q0.1 0 0 0.1l-4.1 6.6 4.6 9.9q0.1 0.1-0.1 0.1h-2.9q-0.2 0-0.2-0.1l-3.2-7-0.9 1.3v5.7q0 0.1-0.1 0.1zm7.7-0.1l2.9-16.5q0.1-0.1 0.2-0.1h3.4q0.1 0 0.2 0.1l2.8 16.5q0 0.1-0.1 0.1h-2.6q-0.1 0-0.2-0.1l-0.2-1.8h-3.3l-0.2 1.8q-0.1 0.1-0.2 0.1h-2.6q-0.1 0-0.1-0.1zm5.9-4.3l-1-6.8-0.1-0.9-0.1 0.9-1.1 6.8zm7.7 4.4h-2.4q-0.2 0-0.2-0.2v-16.3q0-0.2 0.2-0.2h2.2l4 9.5-0.1-9.3q0-0.2 0.2-0.2h2.4q0.1 0 0.1 0.2l0.1 16.4q0 0.1-0.2 0.1h-2.1l-4.1-8.8 0.2 8.6q0 0.2-0.3 0.2zm13 0h-4.3q-0.2 0-0.2-0.1l0.1-16.5q0-0.1 0.1-0.1h4.5q1.3-0.1 2.4 0.6 1.1 0.6 1.7 1.7 0.7 1.1 0.7 2.4v6.9q0 1.4-0.7 2.6-0.7 1.1-1.8 1.8-1.1 0.7-2.5 0.7zm0.2-13.9l-1.7 0.1v10.8h1.5q0.9 0 1.5-0.6 0.6-0.6 0.6-1.5v-6.9q0-0.7-0.6-1.3-0.5-0.6-1.3-0.6zm11.1 14.1q-1.3 0-2.4-0.6-1-0.7-1.7-1.8-0.6-1.1-0.6-2.4v-12q0-0.1 0.1-0.1h2.7q0.1 0 0.1 0.1v12q0 0.8 0.5 1.4 0.5 0.5 1.3 0.5 0.8 0 1.3-0.5 0.5-0.6 0.5-1.4v-12q0-0.1 0.1-0.1h2.7q0.1 0 0.1 0.1v12q0 1.3-0.6 2.4-0.7 1.1-1.7 1.8-1.1 0.6-2.4 0.6zm9.2-0.2h-2.4q-0.2 0-0.2-0.2v-16.3q0-0.2 0.2-0.2h2.2l4 9.5-0.1-9.3q0-0.2 0.2-0.2h2.4q0.1 0 0.1 0.2l0.1 16.4q0 0.1-0.2 0.1h-2.1l-4.1-8.8 0.1 8.6q0 0.2-0.2 0.2zm12.9 0.2q-1.3 0-2.3-0.6-1.1-0.7-1.7-1.7-0.6-1.1-0.6-2.5v-7.6q0-1.3 0.6-2.4 0.6-1.1 1.7-1.7 1.1-0.7 2.3-0.7 1.4 0 2.4 0.7 1.1 0.6 1.7 1.7 0.6 1.1 0.6 2.4v1.1q0 0.1-0.1 0.1h-2.7q-0.1 0-0.1-0.1v-0.9q0-0.9-0.5-1.5-0.5-0.6-1.3-0.6-0.7 0-1.2 0.6-0.5 0.5-0.5 1.3v7.6q0 0.8 0.5 1.4 0.5 0.5 1.2 0.5 0.8 0 1.3-0.5 0.5-0.6 0.5-1.4v-1.2h-1.6q-0.2 0-0.2-0.1v-2.7q0-0.1 0.2-0.1h4.5q0 0 0 0.1v4q0 1.4-0.6 2.5-0.6 1-1.7 1.7-1 0.6-2.4 0.6zm6.4 2.8v-1.5q0.6 0 1.1-0.4 0.4-0.5 0.4-1.1h-1.4q-0.1 0-0.1-0.1v-2.7q0-0.1 0.1-0.1h2.7q0.1 0 0.1 0.1v2.8q0 0.8-0.4 1.5-0.4 0.7-1 1.1-0.7 0.4-1.5 0.4zm10.3-3.1l3-16.5q0-0.1 0.1-0.1h3.5q0.1 0 0.1 0.1l2.9 16.5q0 0.1-0.1 0.1h-2.7q-0.1 0-0.1-0.1l-0.3-1.8h-3.2l-0.3 1.8q0 0.1-0.1 0.1h-2.7q-0.1 0-0.1-0.1zm6-4.3l-1-6.8-0.2-0.9-0.1 0.9-1.1 6.8zm13 4.4h-7.7q-0.1 0-0.1-0.1v-16.5q0-0.1 0.1-0.1h2.7q0.1 0 0.1 0.1v13.6h4.9q0.1 0 0.1 0.2v2.7q0 0.1-0.1 0.1zm9.5 0h-7.7q-0.1 0-0.1-0.1v-16.5q0-0.1 0.1-0.1h2.7q0.1 0 0.1 0.1v13.6h4.9q0.2 0 0.2 0.2v2.7q0 0.1-0.2 0.1zm9.6 0h-7.8q-0.1 0-0.1-0.1v-16.5q0-0.1 0.1-0.1h7.7q0.1 0 0.1 0.1v2.7q0 0.1-0.1 0.1h-4.9v3.7h4.9q0.1 0 0.1 0.1l0.1 2.8q0 0.1-0.1 0.1h-5v4.1h5q0.1 0 0.1 0.2v2.7q0 0.1-0.1 0.1zm10 0h-7.7q-0.1 0-0.1-0.1v-16.5q0-0.1 0.1-0.1h2.7q0.1 0 0.1 0.1v13.6h4.9q0.2 0 0.2 0.2v2.7q0 0.1-0.2 0.1zm6.1 0.2q-1.2 0-2.3-0.6-1.1-0.7-1.7-1.8-0.7-1.1-0.7-2.4l0.1-12q0-0.1 0.1-0.1h2.7q0.1 0 0.1 0.1v12q0 0.8 0.5 1.4 0.5 0.5 1.2 0.5 0.8 0 1.3-0.5 0.5-0.6 0.5-1.4v-12q0-0.1 0.1-0.1h2.7q0.1 0 0.1 0.1l0.1 12q0 1.3-0.7 2.4-0.6 1.1-1.7 1.8-1 0.6-2.4 0.6zm11.7-0.2h-2.8q-0.1 0-0.1-0.1l0.1-6.8-3.3-9.7q0-0.1 0.1-0.1h2.7q0.1 0 0.1 0.1l1.8 6.5 1.8-6.5q0-0.1 0.1-0.1h2.7q0.1 0 0.1 0.1l-3.3 9.6 0.1 6.9q0 0.1-0.1 0.1zm3.8-0.1l3-16.5q0-0.1 0.1-0.1h3.5q0 0 0.1 0.1l2.8 16.5q0 0.1-0.1 0.1h-2.6q-0.1 0-0.2-0.1l-0.2-1.8h-3.3l-0.2 1.8q-0.1 0.1-0.2 0.1h-2.6q-0.1 0-0.1-0.1zm5.9-4.3l-1-6.8-0.1-0.9-0.1 0.9-1.1 6.8zm7.9 4.4h-2.7q-0.1 0-0.1-0.1v-2.7q0-0.1 0.1-0.1h2.7q0.1 0 0.1 0.1v2.7q0 0.1-0.1 0.1zm-427.1 29h-2.7q-0.1 0-0.1-0.1v-13.7h-3.1q-0.1 0-0.1-0.1v-2.7q0-0.1 0.1-0.1h9.1q0.2 0 0.2 0.1v2.7q0 0.1-0.1 0.1h-3.2v13.7q0 0.1-0.1 0.1zm11.7 0h-7.8q-0.1 0-0.1-0.1v-16.5q0-0.1 0.1-0.1h7.7q0.1 0 0.1 0.1v2.7q0 0.1-0.1 0.1h-4.9v3.7h4.9q0.1 0 0.1 0.1l0.1 2.8q0 0.1-0.1 0.1h-5v4.1h5q0.1 0 0.1 0.2v2.7q0 0.1-0.1 0.1zm10 0h-7.7q-0.1 0-0.1-0.1v-16.5q0-0.1 0.1-0.1h2.7q0.1 0 0.1 0.1v13.6h4.9q0.2 0 0.2 0.2v2.7q0 0.1-0.2 0.1zm0.9-0.1l3-16.5q0-0.1 0.1-0.1h3.5q0.1 0 0.1 0.1l2.9 16.5q0 0.1-0.1 0.1h-2.7q-0.1 0-0.1-0.1l-0.3-1.8h-3.3l-0.2 1.8q0 0.1-0.1 0.1h-2.7q-0.1 0-0.1-0.1zm5.9-4.3l-0.9-6.8-0.2-0.9-0.1 0.9-1.1 6.8zm8 4.4h-2.8q-0.1 0-0.1-0.1l0.1-16.5q0-0.1 0.1-0.1h2.7q0.1 0 0.1 0.1v6.5h3.6v-6.5q0-0.1 0-0.1h2.7q0.1 0 0.1 0.1l0.1 16.5q0 0.1-0.1 0.1h-2.7q-0.1 0-0.1-0.1v-7.1h-3.6v7.1q0 0.1-0.1 0.1zm19.2 0h-4.3q-0.1 0-0.1-0.1v-16.5q0-0.1 0.1-0.1h4.6q1.4 0 2.5 0.7 1.1 0.6 1.7 1.7 0.6 1.1 0.6 2.3 0 1.1-0.5 2-0.4 0.9-1.1 1.4 0.7 0.7 1.1 1.6 0.4 0.9 0.4 1.9 0 1.4-0.7 2.6-0.7 1.1-1.8 1.8-1.1 0.7-2.5 0.7zm0.3-13.9h-1.8v3.8h1.8q0.9 0 1.4-0.6 0.5-0.6 0.5-1.3 0-0.7-0.6-1.3-0.5-0.6-1.3-0.6zm-0.3 6.7h-1.5v4.3h1.5q0.8 0 1.5-0.7 0.6-0.6 0.6-1.5 0-0.8-0.6-1.5-0.7-0.6-1.5-0.6zm5.9 7.1l3-16.5q0-0.1 0.1-0.1h3.5q0.1 0 0.1 0.1l2.8 16.5q0.1 0.1 0 0.1h-2.7q-0.1 0-0.1-0.1l-0.3-1.8h-3.3l-0.2 1.8q0 0.1-0.1 0.1h-2.7q-0.1 0-0.1-0.1zm5.9-4.3l-1-6.8-0.1-0.9-0.1 0.9-1.1 6.8zm7.8 4.4h-2.4q-0.2 0-0.2-0.2l-0.1-16.3q0-0.2 0.2-0.2h2.2l4 9.5-0.1-9.3q0-0.2 0.2-0.2h2.4q0.2 0 0.2 0.2v16.4q0 0.1-0.1 0.1h-2.1l-4.2-8.8 0.2 8.6q0 0.2-0.2 0.2zm12.9 0.2q-1.3 0-2.4-0.6-1-0.7-1.7-1.7-0.6-1.1-0.6-2.5v-7.6q0-1.3 0.6-2.4 0.7-1.1 1.7-1.7 1.1-0.7 2.4-0.7 1.3 0 2.4 0.7 1 0.6 1.6 1.7 0.7 1.1 0.7 2.4v1.1q0 0.1-0.1 0.1h-2.7q-0.1 0-0.1-0.1v-0.9q0-0.9-0.5-1.5-0.6-0.6-1.3-0.6-0.7 0-1.3 0.6-0.5 0.5-0.5 1.3v7.6q0 0.8 0.5 1.4 0.6 0.5 1.3 0.5 0.7 0 1.3-0.5 0.5-0.6 0.5-1.4v-1.2h-1.7q-0.1 0-0.1-0.1v-2.7q0-0.1 0.1-0.1h4.5q0.1 0 0.1 0.1v4q0 1.4-0.7 2.5-0.6 1-1.7 1.7-1 0.6-2.3 0.6zm9.2-0.2h-2.7q-0.1 0-0.1-0.1v-16.5q0-0.1 0.1-0.1h2.7q0.1 0 0.1 0.1v5.7l3.8-5.7q0.1-0.1 0.1-0.1h2.8q0.1 0 0 0.1l-4.1 6.6 4.6 9.9q0.1 0.1-0.1 0.1h-2.9q-0.1 0-0.2-0.1l-3.2-7-0.8 1.3v5.7q0 0.1-0.1 0.1zm11.3 0h-2.8q-0.1 0-0.1-0.1v-16.5q0-0.1 0.1-0.1h2.7q0.1 0 0.1 0.1v16.5q0 0.1 0 0.1zm7.3 0h-2.7q-0.1 0-0.1-0.1v-13.7h-3.2q-0.1 0-0.1-0.1l0.1-2.7q0-0.1 0-0.1h9.2q0.1 0 0.1 0.1v2.7q0 0.1-0.1 0.1h-3.2l0.1 13.7q0 0.1-0.1 0.1zm14.8 0.2q-1.3 0-2.4-0.6-1.1-0.7-1.7-1.8-0.6-1.1-0.6-2.4v-1.1q0-0.1 0.1-0.1h2.7q0.1 0 0.1 0.1v1.1q0 0.8 0.5 1.4 0.5 0.5 1.3 0.5 0.7 0 1.2-0.5 0.6-0.6 0.6-1.4 0-0.9-1.2-1.5-0.2-0.1-0.5-0.3-0.3-0.2-0.7-0.4-0.4-0.2-0.8-0.4-0.4-0.3-0.7-0.5-1.3-0.7-2-1.9-0.6-1.2-0.6-2.6 0-1.3 0.6-2.4 0.7-1.1 1.8-1.7 1-0.6 2.3-0.6 1.2 0 2.3 0.6 1.1 0.6 1.7 1.7 0.7 1.1 0.7 2.4v2q0 0.1-0.1 0.1h-2.7q-0.1 0-0.1-0.1l-0.1-2q0-0.9-0.5-1.4-0.5-0.5-1.2-0.5-0.8 0-1.3 0.6-0.5 0.5-0.5 1.3 0 0.8 0.3 1.3 0.3 0.5 1.2 1 0.1 0.1 0.5 0.2 0.3 0.2 0.7 0.5 0.4 0.2 0.8 0.4 0.3 0.2 0.4 0.2 1.2 0.7 1.9 1.6 0.7 1 0.7 2.4 0 1.4-0.7 2.5-0.6 1.1-1.7 1.7-1 0.6-2.3 0.6zm14.2-0.2h-7.8q-0.1 0-0.1-0.1l0.1-16.5q0-0.1 0.1-0.1h7.7q0.1 0 0.1 0.1v2.7q0 0.1-0.1 0.1h-5v3.7h5q0.1 0 0.1 0.1v2.8q0 0.1-0.1 0.1h-5v4.1h5q0.1 0 0.1 0.2v2.7q0 0.1-0.1 0.1zm5 0h-2.7q-0.1 0-0.1-0.1l0.1-16.5q0-0.1 0.1-0.1h4.6q2.2 0 3.5 1.3 1.2 1.4 1.2 3.7 0 1.7-0.6 2.9-0.7 1.3-1.8 2-1.1 0.6-2.3 0.6h-1.9v6.1q0 0.1-0.1 0.1zm2-13.9l-1.9 0.1v4.7h1.9q0.7 0 1.3-0.7 0.6-0.7 0.6-1.9 0-0.9-0.5-1.5-0.5-0.7-1.4-0.7zm14.2 13.9h-7.7q-0.1 0-0.1-0.1v-16.5q0-0.1 0.1-0.1h7.7q0.1 0 0.1 0.1v2.7q0 0.1-0.1 0.1h-4.9v3.7h4.9q0.1 0 0.1 0.1v2.8q0 0.1-0.1 0.1h-4.9v4.1h4.9q0.1 0 0.1 0.2v2.7q0 0.1-0.1 0.1zm5.1 0h-2.8q0 0 0-0.1v-16.5q0-0.1 0.1-0.1h4.8q1.3 0 2.4 0.6 1.1 0.7 1.8 1.7 0.6 1.1 0.6 2.4 0 0.9-0.2 1.6-0.3 0.8-0.7 1.2-0.3 0.5-0.6 0.8 1.3 1.4 1.3 3.4v4.9q0 0.1-0.1 0.1h-2.7q-0.1 0-0.1-0.1v-4.9q0-0.9-0.6-1.5-0.6-0.7-1.5-0.7h-1.6v7.1q0 0.1-0.1 0.1zm2.1-13.8h-2v3.7h2q0.8 0 1.4-0.5 0.5-0.6 0.5-1.4 0-0.7-0.5-1.3-0.6-0.5-1.4-0.5zm11.7 13.8h-2.7q-0.1 0-0.1-0.1v-13.7h-3.1q-0.1 0-0.1-0.1v-2.7q0-0.1 0.1-0.1h9.1q0.2 0 0.2 0.1v2.7q0 0.1-0.1 0.1h-3.2v13.7q0 0.1-0.1 0.1zm7.4 0h-2.8q-0.1 0-0.1-0.1v-16.5q0-0.1 0.1-0.1h2.7q0.1 0 0.1 0.1v16.5q0 0.1 0 0.1zm13.4 0h-2.8q0 0 0-0.1v-6.8l-3.2-9.7q-0.1-0.1 0-0.1h2.7q0.1 0 0.2 0.1l1.7 6.5 1.8-6.5q0.1-0.1 0.1-0.1h2.7q0.1 0 0.1 0.1l-3.2 9.6v6.9q0 0.1-0.1 0.1zm3.8-0.1l3-16.5q0-0.1 0.1-0.1h3.5q0.1 0 0.1 0.1l2.9 16.5q0 0.1-0.1 0.1h-2.7q-0.1 0-0.1-0.1l-0.3-1.8h-3.3l-0.2 1.8q0 0.1-0.1 0.1h-2.7q-0.1 0-0.1-0.1zm5.9-4.3l-1-6.8-0.1-0.9-0.1 0.9-1.1 6.8zm7.8 4.4h-2.4q-0.2 0-0.2-0.2l-0.1-16.3q0-0.2 0.2-0.2h2.2l4.1 9.5-0.2-9.3q0-0.2 0.2-0.2h2.4q0.2 0 0.2 0.2v16.4q0 0.1-0.1 0.1h-2.1l-4.2-8.8 0.2 8.6q0 0.2-0.2 0.2zm12.9 0.2q-1.3 0-2.4-0.6-1-0.7-1.7-1.7-0.6-1.1-0.6-2.5v-7.6q0-1.3 0.6-2.4 0.7-1.1 1.7-1.7 1.1-0.7 2.4-0.7 1.3 0 2.4 0.7 1 0.6 1.6 1.7 0.7 1.1 0.7 2.4v1.1q0 0.1-0.1 0.1h-2.7q-0.1 0-0.1-0.1v-0.9q0-0.9-0.5-1.5-0.6-0.6-1.3-0.6-0.7 0-1.3 0.6-0.5 0.5-0.5 1.3v7.6q0 0.8 0.5 1.4 0.6 0.5 1.3 0.5 0.7 0 1.3-0.5 0.5-0.6 0.5-1.4v-1.2h-1.7q-0.1 0-0.1-0.1v-2.7q0-0.1 0.1-0.1h4.5q0.1 0 0.1 0.1v4q0 1.4-0.7 2.5-0.6 1-1.6 1.7-1.1 0.6-2.4 0.6zm17-0.2h-4.3q-0.1 0-0.1-0.1l0.1-16.5q0-0.1 0-0.1h4.5q1.4-0.1 2.4 0.6 1.1 0.6 1.8 1.7 0.6 1.1 0.6 2.4v6.9q0 1.4-0.6 2.6-0.7 1.1-1.8 1.8-1.2 0.7-2.6 0.7zm0.2-13.9l-1.6 0.1-0.1 10.8h1.5q0.9 0 1.5-0.6 0.6-0.6 0.6-1.5v-6.9q0-0.7-0.5-1.3-0.6-0.6-1.4-0.6zm9.6 13.9h-2.8q-0.1 0-0.1-0.1v-16.5q0-0.1 0.1-0.1h2.7q0.1 0 0.1 0.1l0.1 16.5q0 0.1-0.1 0.1zm6.2 0.2q-1.2 0-2.3-0.6-1.1-0.7-1.7-1.8-0.7-1.1-0.7-2.4v-1.1q0-0.1 0.2-0.1h2.7q0 0 0 0.1v1.1q0 0.8 0.6 1.4 0.5 0.5 1.2 0.5 0.8 0 1.3-0.5 0.5-0.6 0.5-1.4 0-0.9-1.1-1.5-0.2-0.1-0.5-0.3-0.3-0.2-0.7-0.4-0.4-0.2-0.8-0.4-0.4-0.3-0.7-0.5-1.4-0.7-2-1.9-0.6-1.2-0.6-2.6 0-1.3 0.6-2.4 0.7-1.1 1.7-1.7 1.1-0.6 2.3-0.6 1.3 0 2.4 0.6 1.1 0.6 1.7 1.7 0.6 1.1 0.6 2.4v2q0 0.1-0.1 0.1h-2.7q-0.1 0-0.1-0.1v-2q0-0.9-0.5-1.4-0.5-0.5-1.3-0.5-0.7 0-1.2 0.6-0.6 0.5-0.6 1.3 0 0.8 0.4 1.3 0.3 0.5 1.2 1 0.1 0.1 0.4 0.2 0.4 0.2 0.8 0.5 0.4 0.2 0.8 0.4 0.3 0.2 0.4 0.2 1.2 0.7 1.8 1.6 0.8 1 0.8 2.4 0 1.4-0.7 2.5-0.6 1.1-1.7 1.7-1.1 0.6-2.4 0.6zm5.6-0.3l3-16.5q0-0.1 0.1-0.1h3.5q0.1 0 0.1 0.1l2.9 16.5q0 0.1-0.1 0.1h-2.7q-0.1 0-0.1-0.1l-0.3-1.8h-3.3l-0.2 1.8q0 0.1-0.1 0.1h-2.7q-0.1 0-0.1-0.1zm5.9-4.3l-0.9-6.8-0.2-0.9-0.1 0.9-1.1 6.8zm9.5 4.4h-4.3q0 0 0-0.1v-16.5q0-0.1 0.1-0.1h4.6q1.4 0 2.5 0.7 1 0.6 1.7 1.7 0.6 1.1 0.6 2.3 0 1.1-0.5 2-0.5 0.9-1.1 1.4 0.7 0.7 1.1 1.6 0.4 0.9 0.4 1.9 0 1.4-0.7 2.6-0.7 1.1-1.8 1.8-1.2 0.7-2.6 0.7zm0.4-13.9h-1.8v3.8h1.8q0.8 0 1.4-0.6 0.5-0.6 0.5-1.3 0-0.7-0.6-1.3-0.5-0.6-1.3-0.6zm-0.4 6.7h-1.4v4.3h1.4q0.9 0 1.5-0.7 0.7-0.6 0.7-1.5 0-0.8-0.7-1.5-0.6-0.6-1.5-0.6zm11.2 7.2h-4.3q-0.1 0-0.1-0.1v-16.5q0-0.1 0.1-0.1h4.5q1.3-0.1 2.4 0.6 1.1 0.6 1.8 1.7 0.6 1.1 0.6 2.4v6.9q0 1.4-0.7 2.6-0.6 1.1-1.8 1.8-1.1 0.7-2.5 0.7zm0.2-13.9l-1.7 0.1v10.8h1.5q0.9 0 1.5-0.6 0.6-0.6 0.6-1.5v-6.9q0-0.7-0.6-1.3-0.5-0.6-1.3-0.6zm5.9 13.8l3-16.5q0-0.1 0.1-0.1h3.5q0.1 0 0.1 0.1l2.8 16.5q0.1 0.1 0 0.1h-2.7q-0.1 0-0.1-0.1l-0.3-1.8h-3.3l-0.2 1.8q0 0.1-0.1 0.1h-2.7q-0.1 0-0.1-0.1zm5.9-4.3l-1-6.8-0.1-0.9-0.1 0.9-1.1 6.8zm7.9 4.4h-2.7q-0.1 0-0.1-0.1l0.1-16.5q0-0.1 0.1-0.1h2.7q0.1 0 0.1 0.1v5.7l3.7-5.7q0.1-0.1 0.2-0.1h2.8q0.1 0 0 0.1l-4.1 6.6 4.6 9.9q0.1 0.1-0.1 0.1h-2.9q-0.2 0-0.2-0.1l-3.2-7-0.9 1.3v5.7q0 0.1-0.1 0.1zm7.7-0.1l3-16.5q0-0.1 0.1-0.1h3.5q0 0 0.1 0.1l2.8 16.5q0 0.1-0.1 0.1h-2.6q-0.1 0-0.2-0.1l-0.2-1.8h-3.3l-0.2 1.8q-0.1 0.1-0.2 0.1h-2.6q-0.1 0-0.1-0.1zm5.9-4.3l-1-6.8-0.1-0.9-0.1 0.9-1.1 6.8zm7.7 4.4h-2.4q-0.2 0-0.2-0.2v-16.3q0-0.2 0.2-0.2h2.2l4 9.5-0.1-9.3q0-0.2 0.2-0.2h2.4q0.1 0 0.1 0.2l0.1 16.4q0 0.1-0.1 0.1h-2.2l-4.1-8.8 0.2 8.6q0 0.2-0.3 0.2zm13.4-6.9h-4.6q-0.2 0-0.2-0.1v-2.6q0-0.1 0.2-0.1h4.6q0.1 0 0.1 0.1v2.6q0 0.1-0.1 0.1zm5 6.9h-2.4q-0.2 0-0.2-0.2v-16.3q0-0.2 0.2-0.2h2.2l4 9.5-0.1-9.3q0-0.2 0.2-0.2h2.4q0.1 0 0.1 0.2l0.1 16.4q0 0.1-0.2 0.1h-2.1l-4.1-8.8 0.2 8.6q0 0.2-0.3 0.2zm13.6 0h-2.8q-0.1 0-0.1-0.1v-6.8l-3.2-9.7q0-0.1 0.1-0.1h2.7q0.1 0 0.1 0.1l1.8 6.5 1.8-6.5q0-0.1 0.1-0.1h2.7q0.1 0 0.1 0.1l-3.3 9.6v6.9q0 0.1 0 0.1zm3.8-0.1l2.9-16.5q0.1-0.1 0.2-0.1h3.4q0.1 0 0.2 0.1l2.8 16.5q0 0.1-0.1 0.1h-2.6q-0.2 0-0.2-0.1l-0.2-1.8h-3.3l-0.3 1.8q0 0.1-0.1 0.1h-2.6q-0.1 0-0.1-0.1zm5.9-4.3l-1-6.8-0.1-0.9-0.1 0.9-1.1 6.8zm5.1 7.4v-1.5q0.6 0 1-0.4 0.4-0.5 0.4-1.1h-1.3q-0.1 0-0.1-0.1v-2.7q0-0.1 0.1-0.1h2.7q0.1 0 0.1 0.1v2.8q0 0.8-0.4 1.5-0.4 0.7-1.1 1.1-0.6 0.4-1.4 0.4zm10.3-3.1l3-16.5q0-0.1 0.1-0.1h3.5q0.1 0 0.1 0.1l2.8 16.5q0.1 0.1 0 0.1h-2.7q-0.1 0-0.1-0.1l-0.3-1.8h-3.3l-0.2 1.8q0 0.1-0.1 0.1h-2.7q-0.1 0-0.1-0.1zm5.9-4.3l-1-6.8-0.1-0.9-0.1 0.9-1.1 6.8zm13 4.4h-7.8q-0.1 0-0.1-0.1l0.1-16.5q0-0.1 0.1-0.1h2.7q0.1 0 0.1 0.1l-0.1 13.6h5q0.1 0 0.1 0.2v2.7q0 0.1-0.1 0.1zm9.5 0h-7.7q-0.1 0-0.1-0.1v-16.5q0-0.1 0.1-0.1h2.7q0.1 0 0.1 0.1v13.6h4.9q0.1 0 0.1 0.2v2.7q0 0.1-0.1 0.1zm9.5 0h-7.7q-0.1 0-0.1-0.1v-16.5q0-0.1 0.1-0.1h7.7q0.1 0 0.1 0.1v2.7q0 0.1-0.1 0.1h-4.9v3.7h4.9q0.1 0 0.1 0.1v2.8q0 0.1-0.1 0.1h-4.9v4.1h4.9q0.1 0 0.1 0.2v2.7q0 0.1-0.1 0.1zm10.1 0h-7.7q-0.1 0-0.1-0.1v-16.5q0-0.1 0.1-0.1h2.7q0.1 0 0.1 0.1v13.6h4.9q0.1 0 0.1 0.2v2.7q0 0.1-0.1 0.1zm6.1 0.2q-1.2 0-2.3-0.6-1.1-0.7-1.8-1.8-0.6-1.1-0.6-2.4l0.1-12q0-0.1 0.1-0.1h2.7q0 0 0 0.1v12q0 0.8 0.6 1.4 0.5 0.5 1.2 0.5 0.8 0 1.3-0.5 0.5-0.6 0.5-1.4v-12q0-0.1 0.1-0.1h2.7q0.1 0 0.1 0.1l0.1 12q0 1.3-0.7 2.4-0.6 1.1-1.7 1.8-1.1 0.6-2.4 0.6zm11.6-0.2h-2.7q-0.1 0-0.1-0.1v-6.8l-3.2-9.7q0-0.1 0.1-0.1h2.7q0.1 0 0.1 0.1l1.8 6.5 1.8-6.5q0-0.1 0.1-0.1h2.7q0.1 0 0.1 0.1l-3.3 9.6v6.9q0 0.1-0.1 0.1zm3.8-0.1l3-16.5q0-0.1 0.1-0.1h3.5q0.1 0 0.1 0.1l2.9 16.5q0 0.1-0.1 0.1h-2.7q-0.1 0-0.1-0.1l-0.2-1.8h-3.3l-0.3 1.8q0 0.1-0.1 0.1h-2.7q-0.1 0-0.1-0.1zm6-4.3l-1-6.8-0.1-0.9-0.2 0.9-1 6.8zm7.9 4.4h-2.7q-0.1 0-0.1-0.1v-2.7q0-0.1 0.1-0.1h2.7q0.1 0 0.1 0.1v2.7q0 0.1-0.1 0.1zm-410.8 28h-4.3q-0.1 0-0.1-0.1l0.1-16.5q0-0.1 0.1-0.1h4.4q1.4-0.1 2.5 0.6 1 0.6 1.7 1.7 0.6 1.1 0.6 2.4v6.9q0 1.4-0.6 2.6-0.7 1.1-1.8 1.8-1.1 0.7-2.6 0.7zm0.2-13.9l-1.6 0.1-0.1 10.8h1.5q0.9 0 1.5-0.6 0.6-0.6 0.6-1.5v-6.9q0-0.7-0.5-1.3-0.6-0.6-1.4-0.6zm11.2 14.1q-1.3 0-2.4-0.6-1-0.7-1.7-1.8-0.6-1.1-0.6-2.4v-7.6q0-1.3 0.6-2.4 0.7-1.1 1.7-1.7 1.1-0.7 2.4-0.7 1.3 0 2.3 0.7 1.1 0.6 1.7 1.7 0.7 1.1 0.7 2.4v7.6q0 1.3-0.6 2.4-0.7 1.1-1.8 1.8-1 0.6-2.3 0.6zm0-2.9q0.7 0 1.2-0.5 0.6-0.6 0.6-1.4v-7.6q0-0.8-0.5-1.3-0.6-0.6-1.3-0.6-0.8 0-1.3 0.6-0.5 0.5-0.5 1.3v7.6q0 0.8 0.5 1.4 0.5 0.5 1.3 0.5zm5.7 2.6l3-16.5q0-0.1 0.1-0.1h3.5q0.1 0 0.1 0.1l2.8 16.5q0 0.1-0.1 0.1h-2.6q-0.1 0-0.1-0.1l-0.3-1.8h-3.3l-0.2 1.8q0 0.1-0.2 0.1h-2.6q-0.1 0-0.1-0.1zm5.9-4.3l-1-6.8-0.1-0.9-0.1 0.9-1.1 6.8zm7.9 4.4h-2.7q-0.1 0-0.1-0.1l0.1-16.5q0-0.1 0.1-0.1h2.7q0.1 0 0.1 0.1v5.7l3.7-5.7q0.1-0.1 0.2-0.1h2.7q0.2 0 0.1 0.1l-4.2 6.6 4.7 9.9q0.1 0.1-0.1 0.1h-2.9q-0.2 0-0.2-0.1l-3.2-7-0.9 1.3v5.7q0 0.1-0.1 0.1zm7.7-0.1l2.9-16.5q0.1-0.1 0.2-0.1h3.4q0.1 0 0.2 0.1l2.8 16.5q0 0.1-0.1 0.1h-2.6q-0.2 0-0.2-0.1l-0.2-1.8h-3.3l-0.3 1.8q0 0.1-0.1 0.1h-2.6q-0.1 0-0.1-0.1zm5.9-4.3l-1-6.8-0.1-0.9-0.1 0.9-1.1 6.8zm7.7 4.4h-2.4q-0.2 0-0.2-0.2v-16.3q0-0.2 0.2-0.2h2.2l4 9.5-0.1-9.3q0-0.2 0.2-0.2h2.4q0.1 0 0.1 0.2l0.1 16.4q0 0.1-0.2 0.1h-2.1l-4.1-8.8 0.1 8.6q0 0.2-0.2 0.2zm16.4 0h-7.8q-0.1 0-0.1-0.1l0.1-16.5q0-0.1 0.1-0.1h2.7q0.1 0 0.1 0.1l-0.1 13.6h5q0.1 0 0.1 0.2v2.7q0 0.1-0.1 0.1zm0.9-0.1l2.9-16.5q0.1-0.1 0.2-0.1h3.4q0.1 0 0.2 0.1l2.8 16.5q0 0.1-0.1 0.1h-2.6q-0.2 0-0.2-0.1l-0.2-1.8h-3.3l-0.3 1.8q0 0.1-0.1 0.1h-2.6q-0.1 0-0.1-0.1zm5.9-4.3l-1-6.8-0.1-0.9-0.1 0.9-1.1 6.8zm7.9 4.4h-2.7q-0.1 0-0.1-0.1v-16.5q0-0.1 0.1-0.1h2.7q0.1 0 0.1 0.1v6.5h3.6v-6.5q0-0.1 0.1-0.1h2.7q0.1 0 0.1 0.1v16.5q0 0.1-0.1 0.1h-2.7q-0.1 0-0.1-0.1v-7.1h-3.6v7.1q0 0.1-0.1 0.1zm17.6 0h-2.7q-0.1 0-0.1-0.1l0.1-16.5q0-0.1 0.1-0.1h2.7q0.1 0 0.1 0.1v5.7l3.7-5.7q0.1-0.1 0.2-0.1h2.7q0.2 0 0.1 0.1l-4.2 6.6 4.7 9.9q0.1 0.1-0.1 0.1h-2.9q-0.2 0-0.2-0.1l-3.2-7-0.9 1.3v5.7q0 0.1-0.1 0.1zm7.7-0.1l2.9-16.5q0.1-0.1 0.2-0.1h3.4q0.1 0 0.2 0.1l2.8 16.5q0 0.1-0.1 0.1h-2.6q-0.2 0-0.2-0.1l-0.2-1.8h-3.3l-0.2 1.8q-0.1 0.1-0.2 0.1h-2.6q-0.1 0-0.1-0.1zm5.9-4.3l-1-6.8-0.1-0.9-0.1 0.9-1.1 6.8zm7.9 4.4h-2.7q-0.1 0-0.1-0.1l0.1-16.5q0-0.1 0.1-0.1h2.9q0.1 0 0.1 0.1l2.2 3.2 2.2-3.2q0.1-0.1 0.2-0.1h2.9q0.1 0 0.1 0.1l0.1 16.5q0 0.1-0.1 0.1h-2.7q-0.1 0-0.1-0.1v-12.3l-2.6 3.7-2.5-3.7v12.3q0 0.1-0.1 0.1zm12.9 0h-2.7q-0.1 0-0.1-0.1v-16.5q0-0.1 0.1-0.1h2.7q0.1 0 0.1 0.1v16.5q0 0.1-0.1 0.1zm11.3 0h-2.7q-0.1 0-0.1-0.1v-16.5q0-0.1 0.1-0.1h4.6q2.2 0 3.5 1.3 1.3 1.4 1.3 3.7 0 1.7-0.7 2.9-0.7 1.3-1.7 2-1.1 0.6-2.4 0.6h-1.8v6.1q0 0.1-0.1 0.1zm1.9-13.9l-1.8 0.1v4.7h1.8q0.8 0 1.3-0.7 0.6-0.7 0.6-1.9 0-0.9-0.5-1.5-0.5-0.7-1.4-0.7zm5.6 13.8l3-16.5q0-0.1 0.1-0.1h3.5q0.1 0 0.1 0.1l2.9 16.5q0 0.1-0.1 0.1h-2.7q-0.1 0-0.1-0.1l-0.3-1.8h-3.2l-0.3 1.8q0 0.1-0.1 0.1h-2.7q-0.1 0-0.1-0.1zm5.9-4.3l-0.9-6.8-0.2-0.9-0.1 0.9-1.1 6.8zm9.6 4.4h-4.3q-0.1 0-0.1-0.1v-16.5q0-0.1 0.1-0.1h4.5q1.3-0.1 2.4 0.6 1.1 0.6 1.7 1.7 0.7 1.1 0.7 2.4v6.9q0 1.4-0.7 2.6-0.7 1.1-1.8 1.8-1.1 0.7-2.5 0.7zm0.2-13.9l-1.7 0.1v10.8h1.5q0.9 0 1.5-0.6 0.6-0.6 0.6-1.5v-6.9q0-0.7-0.6-1.3-0.5-0.6-1.3-0.6zm5.9 13.8l2.9-16.5q0.1-0.1 0.2-0.1h3.4q0.1 0 0.2 0.1l2.8 16.5q0 0.1-0.1 0.1h-2.6q-0.2 0-0.2-0.1l-0.2-1.8h-3.3l-0.3 1.8q0 0.1-0.1 0.1h-2.6q-0.1 0-0.1-0.1zm5.9-4.3l-1-6.8-0.1-0.9-0.1 0.9-1.1 6.8zm10.5 4.3l3-16.5q0-0.1 0.1-0.1h3.5q0.1 0 0.1 0.1l2.9 16.5q0 0.1-0.1 0.1h-2.7q-0.1 0-0.1-0.1l-0.3-1.8h-3.2l-0.3 1.8q0 0.1-0.1 0.1h-2.7q-0.1 0-0.1-0.1zm6-4.3l-1-6.8-0.2-0.9-0.1 0.9-1 6.8zm12.9 4.4h-7.7q-0.1 0-0.1-0.1v-16.5q0-0.1 0.1-0.1h2.7q0.1 0 0.1 0.1v13.6h4.9q0.1 0 0.1 0.2v2.7q0 0.1-0.1 0.1zm9.6 0h-7.8q-0.1 0-0.1-0.1v-16.5q0-0.1 0.1-0.1h2.7q0.1 0 0.1 0.1v13.6h5q0.1 0 0.1 0.2v2.7q0 0.1-0.1 0.1zm0.8-0.1l3-16.5q0-0.1 0.1-0.1h3.5q0.1 0 0.1 0.1l2.9 16.5q0 0.1-0.1 0.1h-2.7q-0.1 0-0.1-0.1l-0.3-1.8h-3.2l-0.3 1.8q0 0.1-0.1 0.1h-2.7q-0.1 0-0.1-0.1zm6-4.3l-1-6.8-0.2-0.9-0.1 0.9-1.1 6.8zm8 4.4h-2.7q-0.1 0-0.1-0.1v-16.5q0-0.1 0.1-0.1h2.7q0.1 0 0.1 0.1v6.5h3.6v-6.5q0-0.1 0.1-0.1h2.6q0.2 0 0.2 0.1v16.5q0 0.1-0.1 0.1h-2.7q-0.1 0-0.1-0.1v-7.1h-3.6v7.1q0 0.1-0.1 0.1zm8.6 3v-1.5q0.6 0 1-0.4 0.4-0.5 0.4-1.1h-1.4q0 0 0-0.1v-2.7q0-0.1 0-0.1h2.8q0.1 0 0.1 0.1v2.8q0 0.8-0.4 1.5-0.5 0.7-1.1 1.1-0.7 0.4-1.4 0.4zm10.2-3.1l3-16.5q0-0.1 0.1-0.1h3.5q0.1 0 0.1 0.1l2.9 16.5q0 0.1-0.1 0.1h-2.7q-0.1 0-0.1-0.1l-0.2-1.8h-3.3l-0.3 1.8q0 0.1-0.1 0.1h-2.7q-0.1 0-0.1-0.1zm6-4.3l-1-6.8-0.2-0.9-0.1 0.9-1 6.8zm12.9 4.4h-7.7q-0.1 0-0.1-0.1v-16.5q0-0.1 0.1-0.1h2.7q0.1 0 0.1 0.1v13.6h4.9q0.2 0 0.2 0.2v2.7q0 0.1-0.2 0.1zm9.6 0h-7.8q-0.1 0-0.1-0.1v-16.5q0-0.1 0.2-0.1h2.6q0.1 0 0.1 0.1v13.6h5q0.1 0 0.1 0.2v2.7q0 0.1-0.1 0.1zm9.5 0h-7.8q-0.1 0-0.1-0.1l0.1-16.5q0-0.1 0.1-0.1h7.7q0.1 0 0.1 0.1v2.7q0 0.1-0.1 0.1h-5v3.7h5q0.1 0 0.1 0.1v2.8q0 0.1-0.1 0.1h-5v4.1h5q0.1 0 0.1 0.2v2.7q0 0.1-0.1 0.1zm10.1 0h-7.8q-0.1 0-0.1-0.1v-16.5q0-0.1 0.2-0.1h2.6q0.1 0 0.1 0.1v13.6h5q0.1 0 0.1 0.2v2.7q0 0.1-0.1 0.1zm6.1 0.2q-1.3 0-2.4-0.6-1.1-0.7-1.7-1.8-0.6-1.1-0.6-2.4v-12q0-0.1 0.1-0.1h2.7q0.1 0 0.1 0.1v12q0 0.8 0.5 1.4 0.5 0.5 1.3 0.5 0.7 0 1.3-0.5 0.5-0.6 0.5-1.4v-12q0-0.1 0.1-0.1h2.7q0.1 0 0.1 0.1v12q0 1.3-0.6 2.4-0.7 1.1-1.7 1.8-1.1 0.6-2.4 0.6zm11.6-0.2h-2.8q0 0 0-0.1v-6.8l-3.2-9.7q-0.1-0.1 0-0.1h2.7q0.1 0 0.1 0.1l1.8 6.5 1.8-6.5q0-0.1 0.1-0.1h2.7q0.1 0 0.1 0.1l-3.2 9.6v6.9q0 0.1-0.1 0.1zm3.8-0.1l3-16.5q0-0.1 0.1-0.1h3.5q0.1 0 0.1 0.1l2.8 16.5q0.1 0.1 0 0.1h-2.7q-0.1 0-0.1-0.1l-0.3-1.8h-3.3l-0.2 1.8q0 0.1-0.1 0.1h-2.7q-0.1 0-0.1-0.1zm5.9-4.3l-1-6.8-0.1-0.9-0.1 0.9-1.1 6.8zm8 4.4h-2.8q-0.1 0-0.1-0.1v-2.7q0-0.1 0.1-0.1h2.8q0 0 0 0.1v2.7q0 0.1 0 0.1zm-448.1 29h-4.3q-0.1 0-0.1-0.1l0.1-16.5q0-0.1 0-0.1h4.7q1.3 0 2.4 0.7 1.1 0.6 1.7 1.7 0.6 1.1 0.6 2.3 0 1.1-0.4 2-0.5 0.9-1.1 1.4 0.6 0.7 1 1.6 0.4 0.9 0.4 1.9 0 1.4-0.6 2.6-0.7 1.1-1.9 1.8-1.1 0.7-2.5 0.7zm0.4-13.9h-1.9v3.8h1.9q0.8 0 1.3-0.6 0.5-0.6 0.5-1.3 0-0.7-0.5-1.3-0.6-0.6-1.3-0.6zm-0.4 6.7h-1.5v4.3h1.5q0.9 0 1.5-0.7 0.6-0.6 0.6-1.5 0-0.8-0.6-1.5-0.6-0.6-1.5-0.6zm14.6 7.2h-7.8q-0.1 0-0.1-0.1l0.1-16.5q0-0.1 0.1-0.1h7.7q0.1 0 0.1 0.1v2.7q0 0.1-0.1 0.1h-5v3.7h5q0.1 0 0.1 0.1v2.8q0 0.1-0.1 0.1h-5v4.1h5q0.1 0 0.1 0.2v2.7q0 0.1-0.1 0.1zm5 0h-2.7q-0.1 0-0.1-0.1l0.1-16.5q0-0.1 0.1-0.1h4.8q1.3 0 2.4 0.6 1.1 0.7 1.7 1.7 0.7 1.1 0.7 2.4 0 0.9-0.3 1.6-0.2 0.8-0.6 1.2-0.4 0.5-0.7 0.8 1.3 1.4 1.3 3.4l0.1 4.9q0 0.1-0.1 0.1h-2.8q-0.1 0-0.1-0.1v-4.9q0-0.9-0.6-1.5-0.6-0.7-1.5-0.7h-1.6v7.1q0 0.1-0.1 0.1zm2.2-13.8h-2.1v3.7h2.1q0.8 0 1.3-0.5 0.6-0.6 0.6-1.4 0-0.7-0.6-1.3-0.5-0.5-1.3-0.5zm10.7 14q-1.3 0-2.4-0.6-1.1-0.7-1.7-1.8-0.6-1.1-0.6-2.4v-1.1q0-0.1 0.1-0.1h2.7q0.1 0 0.1 0.1v1.1q0 0.8 0.5 1.4 0.5 0.5 1.3 0.5 0.7 0 1.2-0.5 0.6-0.6 0.6-1.4 0-0.9-1.2-1.5-0.2-0.1-0.5-0.3-0.3-0.2-0.7-0.4-0.4-0.2-0.8-0.4-0.4-0.3-0.7-0.5-1.3-0.7-2-1.9-0.6-1.2-0.6-2.6 0-1.3 0.6-2.4 0.7-1.1 1.8-1.7 1-0.6 2.3-0.6 1.2 0 2.3 0.6 1.1 0.6 1.7 1.7 0.7 1.1 0.7 2.4v2q0 0.1-0.1 0.1h-2.7q-0.1 0-0.1-0.1l-0.1-2q0-0.9-0.5-1.4-0.5-0.5-1.2-0.5-0.8 0-1.3 0.6-0.5 0.5-0.5 1.3 0 0.8 0.3 1.3 0.3 0.5 1.2 1 0.1 0.1 0.5 0.2 0.3 0.2 0.7 0.5 0.4 0.2 0.8 0.4 0.3 0.2 0.4 0.2 1.2 0.7 1.9 1.6 0.7 1 0.7 2.4 0 1.4-0.7 2.5-0.6 1.1-1.7 1.7-1 0.6-2.3 0.6zm10.8 0q-1.3 0-2.4-0.6-1.1-0.7-1.7-1.8-0.6-1.1-0.6-2.4v-12q0-0.1 0.1-0.1h2.7q0.1 0 0.1 0.1v12q0 0.8 0.5 1.4 0.5 0.5 1.3 0.5 0.7 0 1.2-0.5 0.6-0.6 0.6-1.4v-12q0-0.1 0.1-0.1h2.7q0 0 0 0.1l0.1 12q0 1.3-0.6 2.4-0.7 1.1-1.8 1.8-1 0.6-2.3 0.6zm9.4-0.2h-2.7q-0.1 0-0.1-0.1v-16.5q0-0.1 0.1-0.1h2.7q0.1 0 0.1 0.1v5.7l3.8-5.7q0.1-0.1 0.1-0.1h2.8q0.1 0 0 0.1l-4.1 6.6 4.7 9.9q0 0.1-0.2 0.1h-2.9q-0.1 0-0.1-0.1l-3.3-7-0.8 1.3v5.7q0 0.1-0.1 0.1zm7.6-0.1l3-16.5q0-0.1 0.1-0.1h3.5q0.1 0 0.1 0.1l2.9 16.5q0 0.1-0.1 0.1h-2.7q-0.1 0-0.1-0.1l-0.3-1.8h-3.2l-0.3 1.8q0 0.1-0.1 0.1h-2.7q-0.1 0-0.1-0.1zm5.9-4.3l-0.9-6.8-0.2-0.9-0.1 0.9-1.1 6.8zm9.6 4.6q-1.3 0-2.4-0.6-1.1-0.7-1.7-1.8-0.6-1.1-0.6-2.5v-7.4q0-1.4 0.6-2.5 0.6-1 1.7-1.7 1.1-0.7 2.4-0.7 1.3 0 2.4 0.7 1 0.6 1.6 1.7 0.7 1.1 0.7 2.5v1.1q0 0.1-0.1 0.1h-2.7q-0.1 0-0.1-0.1v-1.1q0-0.8-0.5-1.4-0.5-0.6-1.3-0.6-0.9 0-1.3 0.6-0.5 0.6-0.5 1.4v7.4q0 0.9 0.5 1.5 0.5 0.5 1.3 0.5 0.8 0 1.3-0.6 0.5-0.6 0.5-1.4v-1.1q0-0.1 0.1-0.1h2.7q0.1 0 0.1 0.1v1.1q0 1.4-0.6 2.5-0.7 1.1-1.7 1.8-1.1 0.6-2.4 0.6zm9.3-0.2h-2.8q-0.1 0-0.1-0.1v-16.5q0-0.1 0.1-0.1h2.7q0.1 0 0.1 0.1l0.1 16.5q0 0.1-0.1 0.1zm7.3 0h-2.7q-0.1 0-0.1-0.1v-13.7h-3.1q-0.2 0-0.2-0.1l0.1-2.7q0-0.1 0.1-0.1h9.1q0.1 0 0.1 0.1v2.7q0 0.1-0.1 0.1h-3.1v13.7q0 0.1-0.1 0.1zm3.7-0.1l2.9-16.5q0.1-0.1 0.1-0.1h3.5q0.1 0 0.1 0.1l2.9 16.5q0 0.1-0.1 0.1h-2.6q-0.2 0-0.2-0.1l-0.2-1.8h-3.3l-0.3 1.8q0 0.1-0.1 0.1h-2.7q0 0 0-0.1zm5.9-4.3l-1-6.8-0.1-0.9-0.1 0.9-1.1 6.8zm12.9 4.4h-7.7q-0.1 0-0.1-0.1v-16.5q0-0.1 0.1-0.1h2.7q0.1 0 0.1 0.1v13.6h4.9q0.2 0 0.2 0.2v2.7q0 0.1-0.2 0.1zm0.9-0.1l3-16.5q0-0.1 0.1-0.1h3.5q0.1 0 0.1 0.1l2.9 16.5q0 0.1-0.1 0.1h-2.7q-0.1 0-0.1-0.1l-0.3-1.8h-3.2l-0.3 1.8q0 0.1-0.1 0.1h-2.7q-0.1 0-0.1-0.1zm5.9-4.3l-0.9-6.8-0.2-0.9-0.1 0.9-1.1 6.8zm8 4.4h-2.7q-0.1 0-0.1-0.1v-16.5q0-0.1 0.1-0.1h2.7q0.1 0 0.1 0.1v6.5h3.6v-6.5q0-0.1 0.1-0.1h2.6q0.1 0 0.1 0.1l0.1 16.5q0 0.1-0.1 0.1h-2.7q-0.1 0-0.1-0.1v-7.1h-3.6v7.1q0 0.1-0.1 0.1zm19.2 0h-4.3q-0.1 0-0.1-0.1v-16.5q0-0.1 0.1-0.1h4.5q1.3-0.1 2.4 0.6 1.1 0.6 1.8 1.7 0.6 1.1 0.6 2.4v6.9q0 1.4-0.7 2.6-0.6 1.1-1.8 1.8-1.1 0.7-2.5 0.7zm0.2-13.9l-1.7 0.1v10.8h1.5q0.9 0 1.5-0.6 0.6-0.6 0.6-1.5v-6.9q0-0.7-0.6-1.3-0.5-0.6-1.3-0.6zm5.9 13.8l3-16.5q0-0.1 0.1-0.1h3.5q0.1 0 0.1 0.1l2.8 16.5q0.1 0.1 0 0.1h-2.7q-0.1 0-0.1-0.1l-0.3-1.8h-3.3l-0.2 1.8q0 0.1-0.1 0.1h-2.7q-0.1 0-0.1-0.1zm5.9-4.3l-1-6.8-0.1-0.9-0.1 0.9-1.1 6.8zm7.7 4.4h-2.4q-0.1 0-0.1-0.2l-0.1-16.3q0-0.2 0.2-0.2h2.2l4 9.5-0.1-9.3q0-0.2 0.2-0.2h2.4q0.2 0 0.2 0.2v16.4q0 0.1-0.1 0.1h-2.1l-4.2-8.8 0.2 8.6q0 0.2-0.3 0.2zm19.2 0h-4.3q-0.1 0-0.1-0.1v-16.5q0-0.1 0.1-0.1h4.7q1.3 0 2.4 0.7 1.1 0.6 1.7 1.7 0.6 1.1 0.6 2.3 0 1.1-0.4 2-0.5 0.9-1.2 1.4 0.7 0.7 1.1 1.6 0.4 0.9 0.4 1.9 0 1.4-0.7 2.6-0.6 1.1-1.8 1.8-1.1 0.7-2.5 0.7zm0.4-13.9h-1.9v3.8h1.9q0.8 0 1.3-0.6 0.5-0.6 0.5-1.3 0-0.7-0.5-1.3-0.6-0.6-1.3-0.6zm-0.4 6.7h-1.5v4.3h1.5q0.9 0 1.5-0.7 0.6-0.6 0.6-1.5 0-0.8-0.6-1.5-0.6-0.6-1.5-0.6zm14.6 7.2h-7.8q-0.1 0-0.1-0.1l0.1-16.5q0-0.1 0.1-0.1h7.7q0.1 0 0.1 0.1v2.7q0 0.1-0.1 0.1h-5v3.7h5q0.1 0 0.1 0.1v2.8q0 0.1-0.1 0.1h-5v4.1h5q0.1 0 0.1 0.2v2.7q0 0.1-0.1 0.1zm5 0h-2.7q-0.1 0-0.1-0.1l0.1-16.5q0-0.1 0.1-0.1h4.8q1.3 0 2.4 0.6 1.1 0.7 1.7 1.7 0.7 1.1 0.7 2.4 0 0.9-0.3 1.6-0.3 0.8-0.6 1.2-0.4 0.5-0.7 0.8 1.3 1.4 1.3 3.4l0.1 4.9q0 0.1-0.2 0.1h-2.7q-0.1 0-0.1-0.1v-4.9q0-0.9-0.6-1.5-0.6-0.7-1.5-0.7h-1.6v7.1q0 0.1-0.1 0.1zm2.2-13.8h-2.1v3.7h2.1q0.7 0 1.3-0.5 0.6-0.6 0.6-1.4 0-0.7-0.6-1.3-0.5-0.5-1.3-0.5zm11 14q-1.3 0-2.4-0.6-1-0.7-1.7-1.7-0.6-1.1-0.6-2.5v-7.6q0-1.3 0.6-2.4 0.7-1.1 1.7-1.7 1.1-0.7 2.4-0.7 1.3 0 2.4 0.7 1 0.6 1.7 1.7 0.6 1.1 0.6 2.4v1.1q0 0.1-0.1 0.1h-2.7q-0.1 0-0.1-0.1v-0.9q0-0.9-0.5-1.5-0.6-0.6-1.3-0.6-0.7 0-1.3 0.6-0.5 0.5-0.5 1.3v7.6q0 0.8 0.5 1.4 0.6 0.5 1.3 0.5 0.7 0 1.3-0.5 0.5-0.6 0.5-1.4v-1.2h-1.7q-0.1 0-0.1-0.1v-2.7q0-0.1 0.1-0.1h4.5q0.1 0 0.1 0.1v4q0 1.4-0.6 2.5-0.7 1-1.7 1.7-1.1 0.6-2.4 0.6zm14.2-0.2h-7.7q-0.1 0-0.1-0.1v-16.5q0-0.1 0.1-0.1h7.7q0.1 0 0.1 0.1v2.7q0 0.1-0.1 0.1h-4.9v3.7h4.9q0.1 0 0.1 0.1v2.8q0 0.1-0.1 0.1h-4.9v4.1h4.9q0.1 0 0.1 0.2v2.7q0 0.1-0.1 0.1zm5.1 0h-2.8q0 0 0-0.1v-16.5q0-0.1 0.1-0.1h2.9q0.1 0 0.2 0.1l2.2 3.2 2.2-3.2q0-0.1 0.1-0.1h3q0.1 0 0.1 0.1v16.5q0 0.1-0.1 0.1h-2.7q-0.1 0-0.1-0.1v-12.3l-2.5 3.7-2.5-3.7v12.3q0 0.1-0.1 0.1zm14.4 0h-4.3q-0.1 0-0.1-0.1l0.1-16.5q0-0.1 0.1-0.1h4.6q1.3 0 2.4 0.7 1.1 0.6 1.7 1.7 0.7 1.1 0.7 2.3 0 1.1-0.5 2-0.5 0.9-1.1 1.4 0.7 0.7 1.1 1.6 0.3 0.9 0.3 1.9 0 1.4-0.6 2.6-0.7 1.1-1.8 1.8-1.2 0.7-2.6 0.7zm0.4-13.9h-1.8v3.8h1.8q0.8 0 1.3-0.6 0.6-0.6 0.6-1.3 0-0.7-0.6-1.3-0.6-0.6-1.3-0.6zm-0.4 6.7h-1.4l-0.1 4.3h1.5q0.9 0 1.5-0.7 0.6-0.6 0.6-1.5 0-0.8-0.6-1.5-0.6-0.6-1.5-0.6zm9.6 7.2h-2.7q-0.1 0-0.1-0.1v-16.5q0-0.1 0.1-0.1h2.7q0.1 0 0.1 0.1v16.5q0 0.1-0.1 0.1zm5 0h-2.7q-0.1 0-0.1-0.1v-16.5q0-0.1 0.1-0.1h4.9q1.3 0 2.4 0.6 1.1 0.7 1.7 1.7 0.7 1.1 0.7 2.4 0 0.9-0.3 1.6-0.3 0.8-0.6 1.2-0.4 0.5-0.7 0.8 1.3 1.4 1.3 3.4l0.1 4.9q0 0.1-0.2 0.1h-2.7q-0.1 0-0.1-0.1v-4.9q0-0.9-0.6-1.5-0.6-0.7-1.5-0.7h-1.6v7.1q0 0.1-0.1 0.1zm2.2-13.8h-2.1v3.7h2.1q0.7 0 1.3-0.5 0.6-0.6 0.6-1.4 0-0.7-0.6-1.3-0.5-0.5-1.3-0.5zm5.3 13.7l3-16.5q0-0.1 0.1-0.1h3.5q0 0 0.1 0.1l2.8 16.5q0 0.1-0.1 0.1h-2.6q-0.1 0-0.2-0.1l-0.2-1.8h-3.3l-0.2 1.8q0 0.1-0.2 0.1h-2.6q-0.1 0-0.1-0.1zm5.9-4.3l-1-6.8-0.1-0.9-0.1 0.9-1.1 6.8zm13 4.4h-7.8q-0.1 0-0.1-0.1v-16.5q0-0.1 0.2-0.1h2.6q0.2 0 0.2 0.1l-0.1 13.6h5q0.1 0 0.1 0.2v2.7q0 0.1-0.1 0.1zm0.8-0.1l3-16.5q0-0.1 0.1-0.1h3.5q0.1 0 0.1 0.1l2.9 16.5q0 0.1-0.1 0.1h-2.7q-0.1 0-0.1-0.1l-0.2-1.8h-3.3l-0.3 1.8q0 0.1-0.1 0.1h-2.7q-0.1 0-0.1-0.1zm6-4.3l-1-6.8-0.2-0.9-0.1 0.9-1 6.8zm7.9 4.4h-2.7q-0.1 0-0.1-0.1v-16.5q0-0.1 0.1-0.1h2.7q0.1 0 0.1 0.1v6.5h3.6v-6.5q0-0.1 0.1-0.1h2.7q0.1 0 0.1 0.1v16.5q0 0.1-0.1 0.1h-2.7q-0.1 0-0.1-0.1v-7.1h-3.6v7.1q0 0.1-0.1 0.1zm8.6 3v-1.5q0.6 0 1-0.4 0.4-0.5 0.4-1.1h-1.3q-0.1 0-0.1-0.1v-2.7q0-0.1 0.1-0.1h2.7q0.1 0 0.1 0.1v2.8q0 0.8-0.4 1.5-0.4 0.7-1.1 1.1-0.7 0.4-1.4 0.4zm13.9-3h-2.7q-0.1 0-0.1-0.1v-16.5q0-0.1 0.1-0.1h4.6q2.2 0 3.5 1.3 1.3 1.4 1.3 3.7 0 1.7-0.7 2.9-0.6 1.3-1.7 2-1.1 0.6-2.4 0.6h-1.8v6.1q0 0.1-0.1 0.1zm1.9-13.9l-1.8 0.1v4.7h1.8q0.8 0 1.4-0.7 0.5-0.7 0.5-1.9 0-0.9-0.5-1.5-0.5-0.7-1.4-0.7zm14.1 13.9h-7.8q-0.1 0-0.1-0.1l0.1-16.5q0-0.1 0-0.1h7.8q0 0 0 0.1v2.7q0 0.1 0 0.1h-5v3.7h5q0 0 0 0.1l0.1 2.8q0 0.1-0.1 0.1h-5v4.1h5q0.1 0 0.1 0.2v2.7q0 0.1-0.1 0.1zm5 0h-2.7q-0.1 0-0.1-0.1l0.1-16.5q0-0.1 0-0.1h4.9q1.3 0 2.4 0.6 1.1 0.7 1.7 1.7 0.7 1.1 0.7 2.4 0 0.9-0.3 1.6-0.3 0.8-0.6 1.2-0.4 0.5-0.7 0.8 1.3 1.4 1.3 3.4l0.1 4.9q0 0.1-0.2 0.1h-2.7q-0.1 0-0.1-0.1v-4.9q0-0.9-0.6-1.5-0.6-0.7-1.5-0.7h-1.6v7.1q0 0.1-0.1 0.1zm2.2-13.8h-2.1v3.7h2.1q0.7 0 1.3-0.5 0.6-0.6 0.6-1.4 0-0.7-0.6-1.3-0.5-0.5-1.3-0.5zm5.3 13.7l3-16.5q0-0.1 0.1-0.1h3.5q0.1 0 0.1 0.1l2.8 16.5q0 0.1-0.1 0.1h-2.6q-0.1 0-0.1-0.1l-0.3-1.8h-3.3l-0.2 1.8q0 0.1-0.2 0.1h-2.6q-0.1 0-0.1-0.1zm5.9-4.3l-1-6.8-0.1-0.9-0.1 0.9-1.1 6.8zm10.2 4.4h-2.9q-0.1 0-0.1-0.1l-2.8-16.5q0-0.1 0.1-0.1h2.7q0 0 0.1 0.1l1.5 10.8 1.6-10.8q0-0.1 0.1-0.1h2.2q0.1 0 0.1 0.1l1.6 10.8 1.5-10.8q0.1-0.1 0.1-0.1h2.7q0.1 0 0.1 0.1l-2.8 16.5q-0.1 0-0.1 0.1h-0.1-2.9q0 0-0.1-0.1l-1.2-8.6-1.2 8.6q0 0.1-0.2 0.1zm9.2-0.1l3-16.5q0-0.1 0.1-0.1h3.5q0.1 0 0.1 0.1l2.9 16.5q0 0.1-0.1 0.1h-2.7q-0.1 0-0.1-0.1l-0.3-1.8h-3.2l-0.3 1.8q0 0.1-0.1 0.1h-2.7q-0.1 0-0.1-0.1zm5.9-4.3l-0.9-6.8-0.2-0.9-0.1 0.9-1.1 6.8zm7.8 4.4h-2.4q-0.2 0-0.2-0.2v-16.3q0-0.2 0.1-0.2h2.2l4.1 9.5-0.2-9.3q0-0.2 0.3-0.2h2.3q0.2 0 0.2 0.2v16.4q0 0.1-0.1 0.1h-2.1l-4.2-8.8 0.2 8.6q0 0.2-0.2 0.2zm17.5 0h-2.7q-0.1 0-0.1-0.1l0.1-16.5q0-0.1 0.1-0.1h2.9q0.1 0 0.2 0.1l2.1 3.2 2.2-3.2q0.1-0.1 0.2-0.1h2.9q0.1 0 0.1 0.1l0.1 16.5q0 0.1-0.1 0.1h-2.7q-0.1 0-0.1-0.1v-12.3l-2.6 3.7-2.5-3.7v12.3q0 0.1-0.1 0.1zm9.3-0.1l3-16.5q0-0.1 0.1-0.1h3.5q0.1 0 0.1 0.1l2.8 16.5q0.1 0.1-0.1 0.1h-2.6q-0.1 0-0.1-0.1l-0.3-1.8h-3.3l-0.2 1.8q0 0.1-0.1 0.1h-2.7q-0.1 0-0.1-0.1zm5.9-4.3l-1-6.8-0.1-0.9-0.1 0.9-1.1 6.8zm7.9 4.4h-2.7q-0.1 0-0.1-0.1l0.1-16.5q0-0.1 0.1-0.1h4.8q1.3 0 2.4 0.6 1.1 0.7 1.7 1.7 0.7 1.1 0.7 2.4 0 0.9-0.3 1.6-0.2 0.8-0.6 1.2-0.3 0.5-0.6 0.8 1.3 1.4 1.3 3.4v4.9q0 0.1-0.1 0.1h-2.8q0 0 0-0.1v-4.9q0-0.9-0.7-1.5-0.6-0.7-1.5-0.7h-1.5l-0.1 7.1q0 0.1-0.1 0.1zm2.2-13.8h-2v3.7h2q0.8 0 1.3-0.5 0.6-0.6 0.6-1.4 0-0.7-0.5-1.3-0.6-0.5-1.4-0.5zm9.4 13.8h-2.7q-0.1 0-0.1-0.1v-16.5q0-0.1 0.1-0.1h2.7q0.1 0 0.1 0.1v16.5q0 0.1-0.1 0.1zm1.4-0.1l3-16.5q0-0.1 0.1-0.1h3.5q0.1 0 0.1 0.1l2.9 16.5q0 0.1-0.1 0.1h-2.7q-0.1 0-0.1-0.1l-0.3-1.8h-3.2l-0.3 1.8q0 0.1-0.1 0.1h-2.7q-0.1 0-0.1-0.1zm6-4.3l-1-6.8-0.2-0.9-0.1 0.9-1 6.8zm5.1 7.4v-1.5q0.6 0 1-0.4 0.4-0.5 0.4-1.1h-1.3q-0.1 0-0.1-0.1v-2.7q0-0.1 0.1-0.1h2.7q0.1 0 0.1 0.1v2.8q0 0.8-0.4 1.5-0.4 0.7-1.1 1.1-0.7 0.4-1.4 0.4zm10.3-3.1l2.9-16.5q0.1-0.1 0.2-0.1h3.4q0.1 0 0.2 0.1l2.8 16.5q0 0.1-0.1 0.1h-2.6q-0.2 0-0.2-0.1l-0.2-1.8h-3.3l-0.3 1.8q0 0.1-0.1 0.1h-2.6q-0.1 0-0.1-0.1zm5.9-4.3l-1-6.8-0.1-0.9-0.1 0.9-1.1 6.8zm13 4.4h-7.8q-0.1 0-0.1-0.1v-16.5q0-0.1 0.1-0.1h2.7q0.1 0 0.1 0.1v13.6h5q0.1 0 0.1 0.2v2.7q0 0.1-0.1 0.1zm9.5 0h-7.8q-0.1 0-0.1-0.1l0.1-16.5q0-0.1 0.1-0.1h2.6q0.2 0 0.2 0.1l-0.1 13.6h5q0.1 0 0.1 0.2v2.7q0 0.1-0.1 0.1zm9.5 0h-7.7q-0.1 0-0.1-0.1v-16.5q0-0.1 0.1-0.1h7.7q0.1 0 0.1 0.1v2.7q0 0.1-0.1 0.1h-4.9v3.7h4.9q0.1 0 0.1 0.1v2.8q0 0.1-0.1 0.1h-4.9v4.1h4.9q0.1 0 0.1 0.2v2.7q0 0.1-0.1 0.1zm10.1 0h-7.8q-0.1 0-0.1-0.1l0.1-16.5q0-0.1 0.1-0.1h2.6q0.2 0 0.2 0.1l-0.1 13.6h5q0.1 0 0.1 0.2v2.7q0 0.1-0.1 0.1zm6.1 0.2q-1.3 0-2.4-0.6-1-0.7-1.7-1.8-0.6-1.1-0.6-2.4v-12q0-0.1 0.1-0.1h2.7q0.1 0 0.1 0.1v12q0 0.8 0.5 1.4 0.5 0.5 1.3 0.5 0.8 0 1.3-0.5 0.5-0.6 0.5-1.4v-12q0-0.1 0.1-0.1h2.7q0.1 0 0.1 0.1v12q0 1.3-0.6 2.4-0.7 1.1-1.7 1.8-1.1 0.6-2.4 0.6zm11.6-0.2h-2.7q-0.1 0-0.1-0.1v-6.8l-3.2-9.7q0-0.1 0.1-0.1h2.6q0.1 0 0.2 0.1l1.7 6.5 1.8-6.5q0.1-0.1 0.2-0.1h2.7q0 0 0 0.1l-3.2 9.6v6.9q0 0.1-0.1 0.1zm3.8-0.1l3-16.5q0-0.1 0.1-0.1h3.5q0.1 0 0.1 0.1l2.9 16.5q0 0.1-0.1 0.1h-2.7q-0.1 0-0.1-0.1l-0.3-1.8h-3.2l-0.3 1.8q0 0.1-0.1 0.1h-2.7q-0.1 0-0.1-0.1zm5.9-4.3l-0.9-6.8-0.2-0.9-0.1 0.9-1.1 6.8zm8 4.4h-2.7q-0.1 0-0.1-0.1v-2.7q0-0.1 0.1-0.1h2.7q0.1 0 0.1 0.1v2.7q0 0.1-0.1 0.1zm-488.3 29.2q-1.2 0-2.3-0.6-1.1-0.7-1.7-1.8-0.7-1.1-0.7-2.4v-1.1q0-0.1 0.2-0.1h2.6q0.1 0 0.1 0.1v1.1q0 0.8 0.6 1.4 0.5 0.5 1.2 0.5 0.8 0 1.3-0.5 0.5-0.6 0.5-1.4 0-0.9-1.1-1.5-0.2-0.1-0.5-0.3-0.3-0.2-0.7-0.4-0.4-0.2-0.8-0.4-0.4-0.3-0.7-0.5-1.4-0.7-2-1.9-0.6-1.2-0.6-2.6 0-1.3 0.6-2.4 0.7-1.1 1.7-1.7 1.1-0.6 2.3-0.6 1.3 0 2.4 0.6 1 0.6 1.7 1.7 0.6 1.1 0.6 2.4v2q0 0.1-0.1 0.1h-2.7q-0.1 0-0.1-0.1v-2q0-0.9-0.5-1.4-0.5-0.5-1.3-0.5-0.7 0-1.2 0.6-0.6 0.5-0.6 1.3 0 0.8 0.4 1.3 0.3 0.5 1.2 1 0.1 0.1 0.4 0.2 0.4 0.2 0.8 0.5 0.4 0.2 0.7 0.4 0.4 0.2 0.5 0.2 1.2 0.7 1.8 1.6 0.7 1 0.7 2.4 0 1.4-0.6 2.5-0.6 1.1-1.7 1.7-1.1 0.6-2.4 0.6zm14.3-0.2h-7.8q-0.1 0-0.1-0.1v-16.5q0-0.1 0.1-0.1h7.7q0.1 0 0.1 0.1v2.7q0 0.1-0.1 0.1h-4.9v3.7h4.9q0.1 0 0.1 0.1l0.1 2.8q0 0.1-0.1 0.1h-5v4.1h5q0.1 0 0.1 0.2v2.7q0 0.1-0.1 0.1zm6.6 0h-4.3q-0.1 0-0.1-0.1v-16.5q0-0.1 0.1-0.1h4.6q1.4 0 2.5 0.7 1.1 0.6 1.7 1.7 0.6 1.1 0.6 2.3 0 1.1-0.5 2-0.4 0.9-1.1 1.4 0.7 0.7 1.1 1.6 0.4 0.9 0.4 1.9 0 1.4-0.7 2.6-0.6 1.1-1.8 1.8-1.1 0.7-2.5 0.7zm0.3-13.9h-1.8v3.8h1.8q0.9 0 1.4-0.6 0.5-0.6 0.5-1.3 0-0.7-0.5-1.3-0.6-0.6-1.4-0.6zm-0.3 6.7h-1.5v4.3h1.5q0.9 0 1.5-0.7 0.6-0.6 0.6-1.5 0-0.8-0.6-1.5-0.6-0.6-1.5-0.6zm5.9 7.1l3-16.5q0-0.1 0.1-0.1h3.5q0.1 0 0.1 0.1l2.9 16.5q0 0.1-0.1 0.1h-2.7q-0.1 0-0.1-0.1l-0.3-1.8h-3.2l-0.3 1.8q0 0.1-0.1 0.1h-2.7q-0.1 0-0.1-0.1zm5.9-4.3l-0.9-6.8-0.2-0.9-0.1 0.9-1.1 6.8zm9.6 4.4h-4.4q0 0 0-0.1v-16.5q0-0.1 0.1-0.1h4.6q1.4 0 2.5 0.7 1 0.6 1.7 1.7 0.6 1.1 0.6 2.3 0 1.1-0.5 2-0.5 0.9-1.1 1.4 0.7 0.7 1.1 1.6 0.4 0.9 0.4 1.9 0 1.4-0.7 2.6-0.7 1.1-1.8 1.8-1.2 0.7-2.5 0.7zm0.3-13.9h-1.8v3.8h1.8q0.8 0 1.4-0.6 0.5-0.6 0.5-1.3 0-0.7-0.6-1.3-0.5-0.6-1.3-0.6zm-0.3 6.7h-1.5v4.3h1.5q0.8 0 1.4-0.7 0.7-0.6 0.7-1.5 0-0.8-0.7-1.5-0.6-0.6-1.4-0.6zm18 7.2h-2.7q-0.1 0-0.1-0.1v-13.7h-3.1q-0.1 0-0.1-0.1v-2.7q0-0.1 0.1-0.1h9.1q0.2 0 0.2 0.1v2.7q0 0.1-0.1 0.1h-3.2v13.7q0 0.1-0.1 0.1zm8.9 0.2q-1.2 0-2.3-0.6-1.1-0.7-1.7-1.8-0.7-1.1-0.7-2.4l0.1-12q0-0.1 0.1-0.1h2.7q0.1 0 0.1 0.1v12q0 0.8 0.5 1.4 0.5 0.5 1.2 0.5 0.8 0 1.3-0.5 0.5-0.6 0.5-1.4v-12q0-0.1 0.1-0.1h2.7q0.1 0 0.1 0.1l0.1 12q0 1.3-0.7 2.4-0.6 1.1-1.7 1.8-1 0.6-2.4 0.6zm9.5-0.2h-2.7q-0.1 0-0.1-0.1v-16.5q0-0.1 0.1-0.1h2.7q0.1 0 0.1 0.1v6.5h3.6v-6.5q0-0.1 0.1-0.1h2.6q0.1 0 0.1 0.1l0.1 16.5q0 0.1-0.1 0.1h-2.7q-0.1 0-0.1-0.1v-7.1h-3.6v7.1q0 0.1-0.1 0.1zm7.7-0.1l3-16.5q0-0.1 0.1-0.1h3.5q0.1 0 0.1 0.1l2.9 16.5q0 0.1-0.1 0.1h-2.7q-0.1 0-0.1-0.1l-0.2-1.8h-3.3l-0.3 1.8q0 0.1-0.1 0.1h-2.7q-0.1 0-0.1-0.1zm6-4.3l-1-6.8-0.2-0.9-0.1 0.9-1 6.8zm7.7 4.4h-2.4q-0.2 0-0.2-0.2v-16.3q0-0.2 0.2-0.2h2.1l4.1 9.5-0.1-9.3q0-0.2 0.2-0.2h2.4q0.1 0 0.1 0.2v16.4q0 0.1-0.1 0.1h-2.1l-4.2-8.8 0.2 8.6q0 0.2-0.2 0.2zm18.8 0.2q-1.2 0-2.3-0.6-1.1-0.7-1.7-1.8-0.7-1.1-0.7-2.4v-1.1q0-0.1 0.1-0.1h2.7q0.1 0 0.1 0.1v1.1q0 0.8 0.6 1.4 0.5 0.5 1.2 0.5 0.8 0 1.3-0.5 0.5-0.6 0.5-1.4 0-0.9-1.1-1.5-0.2-0.1-0.5-0.3-0.3-0.2-0.7-0.4-0.4-0.2-0.8-0.4-0.4-0.3-0.8-0.5-1.3-0.7-1.9-1.9-0.6-1.2-0.6-2.6 0-1.3 0.6-2.4 0.7-1.1 1.7-1.7 1.1-0.6 2.3-0.6 1.3 0 2.4 0.6 1 0.6 1.7 1.7 0.6 1.1 0.6 2.4v2q0 0.1-0.1 0.1h-2.7q-0.1 0-0.1-0.1v-2q0-0.9-0.5-1.4-0.5-0.5-1.3-0.5-0.7 0-1.2 0.6-0.6 0.5-0.6 1.3 0 0.8 0.4 1.3 0.3 0.5 1.2 1 0.1 0.1 0.4 0.2 0.4 0.2 0.8 0.5 0.4 0.2 0.7 0.4 0.4 0.2 0.5 0.2 1.1 0.7 1.8 1.6 0.7 1 0.7 2.4 0 1.4-0.6 2.5-0.6 1.1-1.7 1.7-1.1 0.6-2.4 0.6zm10.8 0q-1.2 0-2.3-0.6-1.1-0.7-1.7-1.8-0.7-1.1-0.7-2.4l0.1-12q0-0.1 0.1-0.1h2.7q0.1 0 0.1 0.1v12q0 0.8 0.5 1.4 0.5 0.5 1.2 0.5 0.8 0 1.3-0.5 0.5-0.6 0.5-1.4v-12q0-0.1 0.1-0.1h2.7q0.1 0 0.1 0.1l0.1 12q0 1.3-0.7 2.4-0.6 1.1-1.7 1.8-1.1 0.6-2.4 0.6zm9.3-0.2h-2.4q-0.2 0-0.2-0.2l-0.1-16.3q0-0.2 0.2-0.2h2.2l4.1 9.5-0.2-9.3q0-0.2 0.2-0.2h2.4q0.2 0 0.2 0.2v16.4q0 0.1-0.1 0.1h-2.1l-4.2-8.8 0.2 8.6q0 0.2-0.2 0.2zm12.9 0.2q-1.3 0-2.4-0.6-1-0.7-1.7-1.7-0.6-1.1-0.6-2.5v-7.6q0-1.3 0.6-2.4 0.7-1.1 1.7-1.7 1.1-0.7 2.4-0.7 1.3 0 2.4 0.7 1 0.6 1.6 1.7 0.7 1.1 0.7 2.4v1.1q0 0.1-0.1 0.1h-2.7q-0.1 0-0.1-0.1v-0.9q0-0.9-0.5-1.5-0.6-0.6-1.3-0.6-0.7 0-1.3 0.6-0.5 0.5-0.5 1.3v7.6q0 0.8 0.5 1.4 0.6 0.5 1.3 0.5 0.7 0 1.3-0.5 0.5-0.6 0.5-1.4v-1.2h-1.7q-0.1 0-0.1-0.1v-2.7q0-0.1 0.1-0.1h4.5q0.1 0 0.1 0.1v4q0 1.4-0.7 2.5-0.6 1-1.7 1.7-1 0.6-2.3 0.6zm10.8 0q-1.3 0-2.4-0.6-1-0.7-1.7-1.7-0.6-1.1-0.6-2.5v-7.6q0-1.3 0.6-2.4 0.7-1.1 1.7-1.7 1.1-0.7 2.4-0.7 1.3 0 2.4 0.7 1 0.6 1.6 1.7 0.7 1.1 0.7 2.4v1.1q0 0.1-0.1 0.1h-2.7q-0.1 0-0.1-0.1v-0.9q0-0.9-0.5-1.5-0.6-0.6-1.3-0.6-0.7 0-1.3 0.6-0.5 0.5-0.5 1.3v7.6q0 0.8 0.5 1.4 0.5 0.5 1.3 0.5 0.7 0 1.3-0.5 0.5-0.6 0.5-1.4v-1.2h-1.7q-0.1 0-0.1-0.1v-2.7q0-0.1 0.1-0.1h4.5q0.1 0 0.1 0.1v4q0 1.4-0.7 2.5-0.6 1-1.7 1.7-1 0.6-2.3 0.6zm10.8 0q-1.3 0-2.4-0.6-1-0.7-1.7-1.8-0.6-1.1-0.6-2.4v-12q0-0.1 0.1-0.1h2.7q0.1 0 0.1 0.1v12q0 0.8 0.5 1.4 0.5 0.5 1.3 0.5 0.8 0 1.3-0.5 0.5-0.6 0.5-1.4v-12q0-0.1 0.1-0.1h2.7q0.1 0 0.1 0.1v12q0 1.3-0.6 2.4-0.7 1.1-1.7 1.8-1.1 0.6-2.4 0.6zm9.4-0.2h-2.7q-0.1 0-0.1-0.1v-16.5q0-0.1 0.1-0.1h2.7q0.1 0 0.1 0.1v6.5h3.6v-6.5q0-0.1 0.1-0.1h2.7q0.1 0 0.1 0.1v16.5q0 0.1-0.1 0.1h-2.7q-0.1 0-0.1-0.1v-7.1h-3.6v7.1q0 0.1-0.1 0.1zm19.9 0h-2.7q-0.1 0-0.1-0.1v-13.7h-3.1q-0.1 0-0.1-0.1v-2.7q0-0.1 0.1-0.1h9.1q0.2 0 0.2 0.1v2.7q0 0.1-0.1 0.1h-3.2v13.7q0 0.1-0.1 0.1zm12.4 0h-7.8q-0.1 0-0.1-0.1v-16.5q0-0.1 0.1-0.1h7.8q0 0 0 0.1v2.7q0 0.1 0 0.1h-5v3.7h5q0 0 0 0.1l0.1 2.8q0 0.1-0.1 0.1h-5v4.1h5q0.1 0 0.1 0.2v2.7q0 0.1-0.1 0.1zm10.1 0h-7.8q-0.1 0-0.1-0.1v-16.5q0-0.1 0.1-0.1h2.7q0.1 0 0.1 0.1v13.6h5q0.1 0 0.1 0.2v2.7q0 0.1-0.1 0.1zm0.8-0.1l3-16.5q0-0.1 0.1-0.1h3.5q0.1 0 0.1 0.1l2.9 16.5q0 0.1-0.1 0.1h-2.7q-0.1 0-0.1-0.1l-0.3-1.8h-3.2l-0.3 1.8q0 0.1-0.1 0.1h-2.7q-0.1 0-0.1-0.1zm6-4.3l-1-6.8-0.2-0.9-0.1 0.9-1.1 6.8zm8 4.4h-2.7q-0.1 0-0.1-0.1v-16.5q0-0.1 0.1-0.1h2.7q0.1 0 0.1 0.1v6.5h3.6v-6.5q0-0.1 0.1-0.1h2.6q0.1 0 0.1 0.1l0.1 16.5q0 0.1-0.1 0.1h-2.7q-0.1 0-0.1-0.1v-7.1h-3.6v7.1q0 0.1-0.1 0.1zm19.2 0h-4.3q-0.1 0-0.1-0.1v-16.5q0-0.1 0.1-0.1h4.6q1.4 0 2.5 0.7 1.1 0.6 1.7 1.7 0.6 1.1 0.6 2.3 0 1.1-0.5 2-0.4 0.9-1.1 1.4 0.7 0.7 1.1 1.6 0.4 0.9 0.4 1.9 0 1.4-0.7 2.6-0.6 1.1-1.8 1.8-1.1 0.7-2.5 0.7zm0.3-13.9h-1.8v3.8h1.8q0.9 0 1.4-0.6 0.5-0.6 0.5-1.3 0-0.7-0.5-1.3-0.6-0.6-1.4-0.6zm-0.3 6.7h-1.5v4.3h1.5q0.8 0 1.5-0.7 0.6-0.6 0.6-1.5 0-0.8-0.6-1.5-0.7-0.6-1.5-0.6zm5.9 7.1l3-16.5q0-0.1 0.1-0.1h3.5q0.1 0 0.1 0.1l2.9 16.5q0 0.1-0.1 0.1h-2.7q-0.1 0-0.1-0.1l-0.3-1.8h-3.2l-0.3 1.8q0 0.1-0.1 0.1h-2.7q-0.1 0-0.1-0.1zm5.9-4.3l-0.9-6.8-0.2-0.9-0.1 0.9-1.1 6.8zm7.8 4.4h-2.4q-0.2 0-0.2-0.2v-16.3q0-0.2 0.1-0.2h2.2l4.1 9.5-0.2-9.3q0-0.2 0.3-0.2h2.3q0.2 0 0.2 0.2v16.4q0 0.1-0.1 0.1h-2.1l-4.2-8.8 0.2 8.6q0 0.2-0.2 0.2zm12.9 0.2q-1.3 0-2.4-0.6-1-0.7-1.7-1.7-0.6-1.1-0.6-2.5v-7.6q0-1.3 0.7-2.4 0.6-1.1 1.6-1.7 1.1-0.7 2.4-0.7 1.3 0 2.4 0.7 1 0.6 1.7 1.7 0.6 1.1 0.6 2.4v1.1q0 0.1-0.1 0.1h-2.7q-0.1 0-0.1-0.1v-0.9q0-0.9-0.5-1.5-0.5-0.6-1.3-0.6-0.7 0-1.2 0.6-0.6 0.5-0.6 1.3v7.6q0 0.8 0.5 1.4 0.6 0.5 1.3 0.5 0.8 0 1.3-0.5 0.5-0.6 0.5-1.4v-1.2h-1.7q-0.1 0-0.1-0.1v-2.7q0-0.1 0.1-0.1h4.5q0.1 0 0.1 0.1v4q0 1.4-0.6 2.5-0.7 1-1.7 1.7-1.1 0.6-2.4 0.6zm9.2-0.2h-2.7q-0.1 0-0.1-0.1v-16.5q0-0.1 0.1-0.1h2.7q0.1 0 0.1 0.1v5.7l3.8-5.7q0.1-0.1 0.1-0.1h2.8q0.1 0 0 0.1l-4.1 6.6 4.7 9.9q0 0.1-0.2 0.1h-2.9q-0.1 0-0.1-0.1l-3.3-7-0.8 1.3v5.7q0 0.1-0.1 0.1zm11.3 0h-2.8q-0.1 0-0.1-0.1l0.1-16.5q0-0.1 0-0.1h2.7q0.1 0 0.1 0.1l0.1 16.5q0 0.1-0.1 0.1zm7.3 0h-2.7q-0.1 0-0.1-0.1v-13.7h-3.1q-0.2 0-0.2-0.1l0.1-2.7q0-0.1 0.1-0.1h9.1q0.1 0 0.1 0.1v2.7q0 0.1-0.1 0.1h-3.1v13.7q0 0.1-0.1 0.1zm4.5 3v-1.5q0.6 0 1-0.4 0.4-0.5 0.4-1.1h-1.3q-0.1 0-0.1-0.1v-2.7q0-0.1 0.1-0.1h2.7q0.1 0 0.1 0.1v2.8q0 0.8-0.4 1.5-0.4 0.7-1.1 1.1-0.7 0.4-1.4 0.4zm10.3-3.1l2.9-16.5q0.1-0.1 0.1-0.1h3.5q0.1 0 0.1 0.1l2.9 16.5q0 0.1-0.1 0.1h-2.6q-0.2 0-0.2-0.1l-0.2-1.8h-3.3l-0.3 1.8q0 0.1-0.1 0.1h-2.7q0 0 0-0.1zm5.9-4.3l-1-6.8-0.1-0.9-0.1 0.9-1.1 6.8zm12.9 4.4h-7.7q-0.1 0-0.1-0.1v-16.5q0-0.1 0.1-0.1h2.7q0.1 0 0.1 0.1v13.6h4.9q0.2 0 0.2 0.2v2.7q0 0.1-0.2 0.1zm9.6 0h-7.8q-0.1 0-0.1-0.1v-16.5q0-0.1 0.2-0.1h2.6q0.2 0 0.2 0.1l-0.1 13.6h5q0.1 0 0.1 0.2v2.7q0 0.1-0.1 0.1zm9.5 0h-7.8q0 0 0-0.1v-16.5q0-0.1 0.1-0.1h7.7q0.1 0 0.1 0.1v2.7q0 0.1-0.1 0.1h-4.9v3.7h4.9q0.1 0 0.1 0.1v2.8q0 0.1-0.1 0.1h-4.9v4.1h4.9q0.1 0 0.1 0.2v2.7q0 0.1-0.1 0.1zm10.1 0h-7.8q-0.1 0-0.1-0.1l0.1-16.5q0-0.1 0.1-0.1h2.6q0.2 0 0.2 0.1l-0.1 13.6h5q0.1 0 0.1 0.2v2.7q0 0.1-0.1 0.1zm6.1 0.2q-1.3 0-2.4-0.6-1-0.7-1.7-1.8-0.6-1.1-0.6-2.4v-12q0-0.1 0.1-0.1h2.7q0.1 0 0.1 0.1v12q0 0.8 0.5 1.4 0.5 0.5 1.3 0.5 0.7 0 1.3-0.5 0.5-0.6 0.5-1.4v-12q0-0.1 0.1-0.1h2.7q0.1 0 0.1 0.1v12q0 1.3-0.6 2.4-0.7 1.1-1.7 1.8-1.1 0.6-2.4 0.6zm11.6-0.2h-2.8q0 0 0-0.1v-6.8l-3.2-9.7q0-0.1 0-0.1h2.7q0.1 0 0.2 0.1l1.7 6.5 1.8-6.5q0.1-0.1 0.2-0.1h2.6q0.1 0 0.1 0.1l-3.2 9.6v6.9q0 0.1-0.1 0.1zm3.8-0.1l3-16.5q0-0.1 0.1-0.1h3.5q0.1 0 0.1 0.1l2.9 16.5q0 0.1-0.1 0.1h-2.7q-0.1 0-0.1-0.1l-0.3-1.8h-3.2l-0.3 1.8q0 0.1-0.1 0.1h-2.7q-0.1 0-0.1-0.1zm5.9-4.3l-0.9-6.8-0.2-0.9-0.1 0.9-1.1 6.8zm8 4.4h-2.8q0 0 0-0.1v-2.7q0-0.1 0-0.1h2.8q0.1 0 0.1 0.1v2.7q0 0.1-0.1 0.1zm-283.8 58h-2.8q0 0 0-0.1v-16.5q0-0.1 0.1-0.1h2.9q0.1 0 0.2 0.1l2.2 3.2 2.2-3.2q0-0.1 0.1-0.1h3q0.1 0 0.1 0.1v16.5q0 0.1-0.1 0.1h-2.7q-0.1 0-0.1-0.1v-12.3l-2.5 3.7-2.5-3.7v12.3q0 0.1-0.1 0.1zm9.2-0.1l3-16.5q0-0.1 0.1-0.1h3.5q0.1 0 0.1 0.1l2.9 16.5q0 0.1-0.1 0.1h-2.7q-0.1 0-0.1-0.1l-0.3-1.8h-3.2l-0.3 1.8q0 0.1-0.1 0.1h-2.7q-0.1 0-0.1-0.1zm6-4.3l-1-6.8-0.2-0.9-0.1 0.9-1.1 6.8zm8 4.4h-2.7q-0.1 0-0.1-0.1v-16.5q0-0.1 0.1-0.1h4.9q1.3 0 2.3 0.6 1.1 0.7 1.8 1.7 0.6 1.1 0.6 2.4 0 0.9-0.2 1.6-0.3 0.8-0.7 1.2-0.3 0.5-0.6 0.8 1.3 1.4 1.3 3.4v4.9q0 0.1-0.1 0.1h-2.7q-0.1 0-0.1-0.1v-4.9q0-0.9-0.6-1.5-0.6-0.7-1.5-0.7h-1.6v7.1q0 0.1-0.1 0.1zm2.2-13.8h-2.1v3.7h2.1q0.7 0 1.3-0.5 0.6-0.6 0.6-1.4 0-0.7-0.6-1.3-0.6-0.5-1.3-0.5zm9.4 13.8h-2.8q-0.1 0-0.1-0.1l0.1-16.5q0-0.1 0-0.1h2.7q0.1 0 0.1 0.1l0.1 16.5q0 0.1-0.1 0.1zm10 0h-7.7q-0.1 0-0.1-0.1v-16.5q0-0.1 0.1-0.1h2.7q0.1 0 0.1 0.1v13.6h4.9q0.1 0 0.1 0.2v2.7q0 0.1-0.1 0.1zm0.9-0.1l3-16.5q0-0.1 0.1-0.1h3.5q0.1 0 0.1 0.1l2.8 16.5q0.1 0.1-0.1 0.1h-2.6q-0.1 0-0.1-0.1l-0.3-1.8h-3.3l-0.2 1.8q0 0.1-0.1 0.1h-2.7q-0.1 0-0.1-0.1zm5.9-4.3l-1-6.8-0.1-0.9-0.1 0.9-1.1 6.8zm7.9 4.4h-2.7q-0.1 0-0.1-0.1l0.1-16.5q0-0.1 0.1-0.1h2.6q0.2 0 0.2 0.1l-0.1 6.5h3.6v-6.5q0-0.1 0.1-0.1h2.7q0.1 0 0.1 0.1l0.1 16.5q0 0.1-0.2 0.1h-2.6q-0.2 0-0.2-0.1v-7.1h-3.6v7.1q0 0.1-0.1 0.1zm19.3 0h-4.3q-0.1 0-0.1-0.1v-16.5q0-0.1 0.1-0.1h4.6q1.4 0 2.5 0.7 1 0.6 1.7 1.7 0.6 1.1 0.6 2.3 0 1.1-0.5 2-0.5 0.9-1.1 1.4 0.7 0.7 1.1 1.6 0.4 0.9 0.4 1.9 0 1.4-0.7 2.6-0.7 1.1-1.8 1.8-1.2 0.7-2.5 0.7zm0.3-13.9h-1.8v3.8h1.8q0.8 0 1.4-0.6 0.5-0.6 0.5-1.3 0-0.7-0.6-1.3-0.5-0.6-1.3-0.6zm-0.3 6.7h-1.5v4.3h1.5q0.8 0 1.4-0.7 0.7-0.6 0.7-1.5 0-0.8-0.7-1.5-0.6-0.6-1.4-0.6zm14.5 7.2h-7.7q-0.1 0-0.1-0.1v-16.5q0-0.1 0.1-0.1h7.7q0.1 0 0.1 0.1v2.7q0 0.1-0.1 0.1h-4.9v3.7h4.9q0.1 0 0.1 0.1v2.8q0 0.1-0.1 0.1h-4.9v4.1h4.9q0.1 0 0.1 0.2v2.7q0 0.1-0.1 0.1zm5.1 0h-2.7q-0.1 0-0.1-0.1v-16.5q0-0.1 0.1-0.1h4.9q1.3 0 2.4 0.6 1 0.7 1.7 1.7 0.6 1.1 0.6 2.4 0 0.9-0.2 1.6-0.3 0.8-0.7 1.2-0.3 0.5-0.6 0.8 1.3 1.4 1.3 3.4v4.9q0 0.1-0.1 0.1h-2.7q-0.1 0-0.1-0.1v-4.9q0-0.9-0.6-1.5-0.6-0.7-1.5-0.7h-1.6v7.1q0 0.1-0.1 0.1zm2.2-13.8h-2.1v3.7h2.1q0.7 0 1.3-0.5 0.6-0.6 0.6-1.4 0-0.7-0.6-1.3-0.6-0.5-1.3-0.5zm11 13.8h-4.3q-0.2 0-0.2-0.1l0.1-16.5q0-0.1 0.1-0.1h4.5q1.3-0.1 2.4 0.6 1.1 0.6 1.7 1.7 0.7 1.1 0.7 2.4v6.9q0 1.4-0.7 2.6-0.7 1.1-1.8 1.8-1.1 0.7-2.5 0.7zm0.2-13.9l-1.7 0.1v10.8h1.5q0.8 0 1.5-0.6 0.6-0.6 0.6-1.5v-6.9q0-0.7-0.6-1.3-0.6-0.6-1.3-0.6zm11.1 14.1q-1.3 0-2.4-0.6-1-0.7-1.7-1.8-0.6-1.1-0.6-2.4v-7.6q0-1.3 0.6-2.4 0.7-1.1 1.8-1.7 1-0.7 2.3-0.7 1.3 0 2.4 0.7 1 0.6 1.6 1.7 0.7 1.1 0.7 2.4v7.6q0 1.3-0.6 2.4-0.7 1.1-1.7 1.8-1.1 0.6-2.4 0.6zm0-2.9q0.7 0 1.3-0.5 0.5-0.6 0.5-1.4v-7.6q0-0.8-0.5-1.3-0.5-0.6-1.3-0.6-0.7 0-1.3 0.6-0.5 0.5-0.5 1.3v7.6q0 0.8 0.5 1.4 0.6 0.5 1.3 0.5zm5.7 2.6l3-16.5q0-0.1 0.1-0.1h3.5q0.1 0 0.1 0.1l2.9 16.5q0 0.1-0.1 0.1h-2.7q-0.1 0-0.1-0.1l-0.3-1.8h-3.3l-0.2 1.8q0 0.1-0.1 0.1h-2.7q-0.1 0-0.1-0.1zm5.9-4.3l-1-6.8-0.1-0.9-0.1 0.9-1.1 6.8zm14.2-2.7h-2.7q-0.1 0-0.1-0.1v-2.7q0-0.1 0.1-0.1h2.7q0.1 0 0.1 0.1v2.7q0 0.1-0.1 0.1zm0 7.1h-2.7q-0.1 0-0.1-0.1v-2.7q0-0.1 0.1-0.1h2.7q0.1 0 0.1 0.1v2.7q0 0.1-0.1 0.1zm-420.2 57h-2.8q-0.1 0-0.1-0.1l0.1-6.8-3.3-9.7q0-0.1 0.1-0.1h2.7q0.1 0 0.1 0.1l1.8 6.5 1.8-6.5q0-0.1 0.1-0.1h2.7q0.1 0 0.1 0.1l-3.3 9.6 0.1 6.9q0 0.1-0.1 0.1zm2.3-0.1l3-16.5q0-0.1 0.1-0.1h3.5q0.1 0 0.1 0.1l2.9 16.5q0 0.1-0.1 0.1h-2.7q-0.1 0-0.1-0.1l-0.3-1.8h-3.2l-0.3 1.8q0 0.1-0.1 0.1h-2.7q-0.1 0-0.1-0.1zm6-4.3l-1-6.8-0.2-0.9-0.1 0.9-1 6.8zm10.5 4.3l3-16.5q0-0.1 0.1-0.1h3.5q0.1 0 0.1 0.1l2.9 16.5q0 0.1-0.1 0.1h-2.7q-0.1 0-0.1-0.1l-0.3-1.8h-3.3l-0.2 1.8q0 0.1-0.1 0.1h-2.7q-0.1 0-0.1-0.1zm5.9-4.3l-0.9-6.8-0.2-0.9-0.1 0.9-1.1 6.8zm13 4.4h-7.8q-0.1 0-0.1-0.1l0.1-16.5q0-0.1 0.1-0.1h2.7q0.1 0 0.1 0.1v13.6h4.9q0.1 0 0.1 0.2v2.7q0 0.1-0.1 0.1zm9.5 0h-7.7q-0.1 0-0.1-0.1v-16.5q0-0.1 0.1-0.1h2.7q0.1 0 0.1 0.1v13.6h4.9q0.1 0 0.1 0.2v2.7q0 0.1-0.1 0.1zm0.9-0.1l3-16.5q0-0.1 0.1-0.1h3.5q0.1 0 0.1 0.1l2.8 16.5q0.1 0.1 0 0.1h-2.7q-0.1 0-0.1-0.1l-0.3-1.8h-3.3l-0.2 1.8q0 0.1-0.1 0.1h-2.7q-0.1 0-0.1-0.1zm5.9-4.3l-1-6.8-0.1-0.9-0.1 0.9-1.1 6.8zm7.9 4.4h-2.7q-0.1 0-0.1-0.1l0.1-16.5q0-0.1 0.1-0.1h2.6q0.2 0 0.2 0.1l-0.1 6.5h3.6v-6.5q0-0.1 0.1-0.1h2.7q0.1 0 0.1 0.1l0.1 16.5q0 0.1-0.1 0.1h-2.7q-0.2 0-0.2-0.1v-7.1h-3.6v7.1q0 0.1-0.1 0.1zm8.6 3v-1.5q0.6 0 1-0.4 0.5-0.5 0.5-1.1h-1.4q-0.1 0-0.1-0.1v-2.7q0-0.1 0.1-0.1h2.7q0.1 0 0.1 0.1v2.8q0 0.8-0.4 1.5-0.4 0.7-1 1.1-0.7 0.4-1.5 0.4zm19-3h-7.8q-0.1 0-0.1-0.1v-16.5q0-0.1 0.1-0.1h7.8q0 0 0 0.1v2.7q0 0.1 0 0.1h-5v3.7h5q0 0 0 0.1l0.1 2.8q0 0.1-0.1 0.1h-5v4.1h5q0.1 0 0.1 0.2v2.7q0 0.1-0.1 0.1zm4.8 0h-2.4q-0.2 0-0.2-0.2v-16.3q0-0.2 0.2-0.2h2.2l4 9.5-0.1-9.3q0-0.2 0.2-0.2h2.4q0.1 0 0.1 0.2v16.4q0 0.1-0.1 0.1h-2.1l-4.1-8.8 0.1 8.6q0 0.2-0.2 0.2zm12.9 0.2q-1.3 0-2.3-0.6-1.1-0.7-1.7-1.7-0.6-1.1-0.6-2.5v-7.6q0-1.3 0.6-2.4 0.6-1.1 1.7-1.7 1.1-0.7 2.3-0.7 1.4 0 2.4 0.7 1.1 0.6 1.7 1.7 0.6 1.1 0.6 2.4v1.1q0 0.1-0.1 0.1h-2.7q-0.1 0-0.1-0.1v-0.9q0-0.9-0.5-1.5-0.5-0.6-1.3-0.6-0.7 0-1.2 0.6-0.5 0.5-0.5 1.3v7.6q0 0.8 0.5 1.4 0.5 0.5 1.2 0.5 0.8 0 1.3-0.5 0.5-0.6 0.5-1.4v-1.2h-1.6q-0.2 0-0.2-0.1v-2.7q0-0.1 0.2-0.1h4.4q0.1 0 0.1 0.1v4q0 1.4-0.6 2.5-0.6 1-1.7 1.7-1 0.6-2.4 0.6zm9.2-0.2h-2.7q-0.1 0-0.1-0.1l0.1-16.5q0-0.1 0.1-0.1h2.7q0.1 0 0.1 0.1v5.7l3.7-5.7q0.1-0.1 0.2-0.1h2.7q0.2 0 0.1 0.1l-4.2 6.6 4.7 9.9q0.1 0.1-0.1 0.1h-2.9q-0.2 0-0.2-0.1l-3.2-7-0.9 1.3v5.7q0 0.1-0.1 0.1zm7.7-0.1l2.9-16.5q0.1-0.1 0.2-0.1h3.4q0.1 0 0.2 0.1l2.8 16.5q0 0.1-0.1 0.1h-2.6q-0.2 0-0.2-0.1l-0.2-1.8h-3.3l-0.2 1.8q-0.1 0.1-0.2 0.1h-2.6q-0.1 0-0.1-0.1zm5.9-4.3l-1-6.8-0.1-0.9-0.1 0.9-1.1 6.8zm9.5 4.6q-1.2 0-2.3-0.6-1.1-0.7-1.7-1.8-0.7-1.1-0.7-2.4l0.1-12q0-0.1 0.1-0.1h2.7q0.1 0 0.1 0.1v12q0 0.8 0.5 1.4 0.5 0.5 1.2 0.5 0.8 0 1.3-0.5 0.5-0.6 0.5-1.4v-12q0-0.1 0.1-0.1h2.7q0.1 0 0.1 0.1l0.1 12q0 1.3-0.7 2.4-0.6 1.1-1.7 1.8-1 0.6-2.4 0.6zm18-0.2h-2.7q-0.1 0-0.1-0.1v-13.7h-3.1q-0.1 0-0.1-0.1v-2.7q0-0.1 0.1-0.1h9.1q0.1 0 0.1 0.1v2.7q0 0.1-0.1 0.1h-3.1v13.7q0 0.1-0.1 0.1zm12.3 0h-7.7q-0.1 0-0.1-0.1v-16.5q0-0.1 0.1-0.1h7.7q0.1 0 0.1 0.1v2.7q0 0.1-0.1 0.1h-4.9v3.7h4.9q0.1 0 0.1 0.1v2.8q0 0.1-0.1 0.1h-4.9v4.1h4.9q0.1 0 0.1 0.2v2.7q0 0.1-0.1 0.1zm10.1 0h-7.7q-0.1 0-0.1-0.1v-16.5q0-0.1 0.1-0.1h2.7q0.1 0 0.1 0.1v13.6h4.9q0.1 0 0.1 0.2v2.7q0 0.1-0.1 0.1zm0.9-0.1l3-16.5q0-0.1 0.1-0.1h3.5q0 0 0.1 0.1l2.8 16.5q0 0.1-0.1 0.1h-2.6q-0.1 0-0.2-0.1l-0.2-1.8h-3.3l-0.2 1.8q0 0.1-0.2 0.1h-2.6q-0.1 0-0.1-0.1zm5.9-4.3l-1-6.8-0.1-0.9-0.1 0.9-1.1 6.8zm7.9 4.4h-2.7q-0.1 0-0.1-0.1v-16.5q0-0.1 0.2-0.1h2.6q0.2 0 0.2 0.1l-0.1 6.5h3.6v-6.5q0-0.1 0.1-0.1h2.7q0.1 0 0.1 0.1l0.1 16.5q0 0.1-0.2 0.1h-2.7q-0.1 0-0.1-0.1v-7.1h-3.6v7.1q0 0.1-0.1 0.1zm17.7 0h-2.8q-0.1 0-0.1-0.1l0.1-16.5q0-0.1 0.1-0.1h2.9q0.1 0 0.2 0.1l2.2 3.2 2.2-3.2q0-0.1 0.1-0.1h3q0.1 0 0.1 0.1v16.5q0 0.1-0.1 0.1h-2.7q-0.1 0-0.1-0.1v-12.3l-2.5 3.7-2.5-3.7v12.3q0 0.1-0.1 0.1zm17.9 0h-7.8q-0.1 0-0.1-0.1v-16.5q0-0.1 0.1-0.1h7.8q0 0 0 0.1v2.7q0 0.1 0 0.1h-5v3.7h5q0 0 0 0.1l0.1 2.8q0 0.1-0.1 0.1h-5v4.1h5q0.1 0 0.1 0.2v2.7q0 0.1-0.1 0.1zm4.8 0h-2.4q-0.2 0-0.2-0.2v-16.3q0-0.2 0.2-0.2h2.2l4 9.5-0.1-9.3q0-0.2 0.2-0.2h2.4q0.1 0 0.1 0.2l0.1 16.4q0 0.1-0.2 0.1h-2.1l-4.1-8.8 0.1 8.6q0 0.2-0.2 0.2zm12.9 0.2q-1.3 0-2.3-0.6-1.1-0.7-1.7-1.7-0.6-1.1-0.6-2.5v-7.6q0-1.3 0.6-2.4 0.6-1.1 1.7-1.7 1.1-0.7 2.3-0.7 1.4 0 2.4 0.7 1.1 0.6 1.7 1.7 0.6 1.1 0.6 2.4v1.1q0 0.1-0.1 0.1h-2.7q-0.1 0-0.1-0.1v-0.9q0-0.9-0.5-1.5-0.5-0.6-1.3-0.6-0.7 0-1.2 0.6-0.5 0.5-0.5 1.3v7.6q0 0.8 0.5 1.4 0.5 0.5 1.2 0.5 0.8 0 1.3-0.5 0.5-0.6 0.5-1.4v-1.2h-1.6q-0.2 0-0.2-0.1v-2.7q0-0.1 0.2-0.1h4.4q0.1 0 0.1 0.1v4q0 1.4-0.6 2.5-0.6 1-1.7 1.7-1 0.6-2.4 0.6zm10.8 0q-1.3 0-2.3-0.6-1.1-0.7-1.7-1.7-0.7-1.1-0.7-2.5v-7.6q0-1.3 0.7-2.4 0.6-1.1 1.7-1.7 1.1-0.7 2.3-0.7 1.3 0 2.4 0.7 1.1 0.6 1.7 1.7 0.6 1.1 0.6 2.4v1.1q0 0.1-0.1 0.1h-2.7q-0.1 0-0.1-0.1v-0.9q0-0.9-0.5-1.5-0.5-0.6-1.3-0.6-0.7 0-1.2 0.6-0.5 0.5-0.5 1.3v7.6q0 0.8 0.5 1.4 0.5 0.5 1.2 0.5 0.8 0 1.3-0.5 0.5-0.6 0.5-1.4v-1.2h-1.6q-0.2 0-0.2-0.1v-2.7q0-0.1 0.2-0.1h4.4q0.1 0 0.1 0.1v4q0 1.4-0.6 2.5-0.6 1-1.7 1.7-1.1 0.6-2.4 0.6zm14.3-0.2h-7.8q-0.1 0-0.1-0.1v-16.5q0-0.1 0.1-0.1h7.8q0 0 0 0.1v2.7q0 0.1 0 0.1h-5v3.7h5q0 0 0 0.1l0.1 2.8q0 0.1-0.1 0.1h-5v4.1h5q0.1 0 0.1 0.2v2.7q0 0.1-0.1 0.1zm5 0h-2.7q-0.1 0-0.1-0.1v-16.5q0-0.1 0.1-0.1h3q0.1 0 0.1 0.1l2.2 3.2 2.2-3.2q0.1-0.1 0.2-0.1h2.9q0.1 0 0.1 0.1l0.1 16.5q0 0.1-0.1 0.1h-2.7q-0.1 0-0.1-0.1l-0.1-12.3-2.5 3.7-2.5-3.7v12.3q0 0.1-0.1 0.1zm14.5 0h-4.3q-0.1 0-0.1-0.1v-16.5q0-0.1 0.1-0.1h4.6q1.4 0 2.5 0.7 1.1 0.6 1.7 1.7 0.6 1.1 0.6 2.3 0 1.1-0.5 2-0.4 0.9-1.1 1.4 0.7 0.7 1.1 1.6 0.4 0.9 0.4 1.9 0 1.4-0.7 2.6-0.7 1.1-1.8 1.8-1.1 0.7-2.5 0.7zm0.3-13.9h-1.8v3.8h1.8q0.9 0 1.4-0.6 0.5-0.6 0.5-1.3 0-0.7-0.6-1.3-0.5-0.6-1.3-0.6zm-0.3 6.7h-1.5v4.3h1.5q0.8 0 1.5-0.7 0.6-0.6 0.6-1.5 0-0.8-0.6-1.5-0.7-0.6-1.5-0.6zm9.5 7.2h-2.7q-0.1 0-0.1-0.1v-16.5q0-0.1 0.1-0.1h2.7q0.1 0 0.1 0.1v16.5q0 0.1-0.1 0.1zm5.1 0h-2.8q0 0 0-0.1v-16.5q0-0.1 0.1-0.1h4.8q1.3 0 2.4 0.6 1.1 0.7 1.8 1.7 0.6 1.1 0.6 2.4 0 0.9-0.2 1.6-0.3 0.8-0.7 1.2-0.3 0.5-0.6 0.8 1.3 1.4 1.3 3.4v4.9q0 0.1-0.1 0.1h-2.7q-0.1 0-0.1-0.1v-4.9q0-0.9-0.6-1.5-0.6-0.7-1.5-0.7h-1.6v7.1q0 0.1-0.1 0.1zm2.1-13.8h-2v3.7h2q0.8 0 1.4-0.5 0.5-0.6 0.5-1.4 0-0.7-0.5-1.3-0.6-0.5-1.4-0.5zm5.3 13.7l3-16.5q0-0.1 0.1-0.1h3.5q0.1 0 0.1 0.1l2.9 16.5q0 0.1-0.1 0.1h-2.7q-0.1 0-0.1-0.1l-0.3-1.8h-3.2l-0.3 1.8q0 0.1-0.1 0.1h-2.7q-0.1 0-0.1-0.1zm6-4.3l-1-6.8-0.2-0.9-0.1 0.9-1.1 6.8zm8 4.4h-2.7q-0.1 0-0.1-0.1v-16.5q0-0.1 0.1-0.1h2.7q0.1 0 0.1 0.1v5.7l3.8-5.7q0.1-0.1 0.1-0.1h2.8q0.1 0 0 0.1l-4.1 6.6 4.6 9.9q0.1 0.1-0.1 0.1h-2.9q-0.1 0-0.1-0.1l-3.3-7-0.8 1.3v5.7q0 0.1-0.1 0.1zm7.6-0.1l3-16.5q0-0.1 0.1-0.1h3.5q0.1 0 0.1 0.1l2.9 16.5q0 0.1-0.1 0.1h-2.7q-0.1 0-0.1-0.1l-0.3-1.8h-3.2l-0.3 1.8q0 0.1-0.1 0.1h-2.7q-0.1 0-0.1-0.1zm5.9-4.3l-0.9-6.8-0.2-0.9-0.1 0.9-1.1 6.8zm7.8 4.4h-2.4q-0.2 0-0.2-0.2v-16.3q0-0.2 0.1-0.2h2.2l4.1 9.5-0.2-9.3q0-0.2 0.3-0.2h2.3q0.2 0 0.2 0.2v16.4q0 0.1-0.1 0.1h-2.1l-4.2-8.8 0.2 8.6q0 0.2-0.2 0.2zm19.1 0h-4.3q-0.1 0-0.1-0.1l0.1-16.5q0-0.1 0.1-0.1h4.5q1.3-0.1 2.4 0.6 1.1 0.6 1.7 1.7 0.7 1.1 0.7 2.4v6.9q0 1.4-0.7 2.6-0.7 1.1-1.8 1.8-1.1 0.7-2.6 0.7zm0.3-13.9l-1.7 0.1v10.8h1.4q0.9 0 1.5-0.6 0.6-0.6 0.6-1.5v-6.9q0-0.7-0.5-1.3-0.6-0.6-1.3-0.6zm11.1 14.1q-1.3 0-2.4-0.6-1.1-0.7-1.7-1.8-0.6-1.1-0.6-2.4v-12q0-0.1 0.1-0.1h2.7q0.1 0 0.1 0.1v12q0 0.8 0.5 1.4 0.5 0.5 1.3 0.5 0.7 0 1.2-0.5 0.6-0.6 0.6-1.4v-12q0-0.1 0.1-0.1h2.7q0 0 0 0.1l0.1 12q0 1.3-0.6 2.4-0.7 1.1-1.7 1.8-1.1 0.6-2.4 0.6zm9.2-0.2h-2.4q-0.2 0-0.2-0.2v-16.3q0-0.2 0.2-0.2h2.1l4.1 9.5-0.1-9.3q0-0.2 0.2-0.2h2.4q0.1 0 0.1 0.2v16.4q0 0.1-0.1 0.1h-2.1l-4.2-8.8 0.2 8.6q0 0.2-0.2 0.2zm11.3 0h-2.7q-0.1 0-0.1-0.1v-16.5q0-0.1 0.1-0.1h2.7q0.1 0 0.1 0.1v16.5q0 0.1-0.1 0.1zm1.4-0.1l3-16.5q0-0.1 0.1-0.1h3.5q0.1 0 0.1 0.1l2.9 16.5q0 0.1-0.1 0.1h-2.7q-0.1 0-0.1-0.1l-0.2-1.8h-3.3l-0.3 1.8q0 0.1-0.1 0.1h-2.7q-0.1 0-0.1-0.1zm6-4.3l-1-6.8-0.2-0.9-0.1 0.9-1 6.8zm15.7 4.4h-4.3q-0.1 0-0.1-0.1l0.1-16.5q0-0.1 0.1-0.1h4.4q1.4-0.1 2.5 0.6 1.1 0.6 1.7 1.7 0.7 1.1 0.7 2.4v6.9q0 1.4-0.7 2.6-0.7 1.1-1.8 1.8-1.1 0.7-2.6 0.7zm0.2-13.9l-1.6 0.1v10.8h1.4q0.9 0 1.5-0.6 0.6-0.6 0.6-1.5v-6.9q0-0.7-0.5-1.3-0.6-0.6-1.4-0.6zm14.6 13.9h-7.8q-0.1 0-0.1-0.1l0.1-16.5q0-0.1 0.1-0.1h7.7q0.1 0 0.1 0.1v2.7q0 0.1-0.1 0.1h-5v3.7h5q0.1 0 0.1 0.1v2.8q0 0.1-0.1 0.1h-5v4.1h5q0.1 0 0.1 0.2v2.7q0 0.1-0.1 0.1zm4.8 0h-2.4q-0.2 0-0.2-0.2v-16.3q0-0.2 0.2-0.2h2.2l4 9.5-0.1-9.3q0-0.2 0.2-0.2h2.4q0.1 0 0.1 0.2l0.1 16.4q0 0.1-0.2 0.1h-2.1l-4.1-8.8 0.2 8.6q0 0.2-0.3 0.2zm12.9 0.2q-1.3 0-2.3-0.6-1.1-0.7-1.7-1.7-0.6-1.1-0.6-2.5v-7.6q0-1.3 0.6-2.4 0.6-1.1 1.7-1.7 1.1-0.7 2.3-0.7 1.4 0 2.4 0.7 1.1 0.6 1.7 1.7 0.7 1.1 0.7 2.4v1.1q0 0.1-0.2 0.1h-2.7q0 0 0-0.1v-0.9q0-0.9-0.6-1.5-0.5-0.6-1.3-0.6-0.6 0-1.2 0.6-0.5 0.5-0.5 1.3v7.6q0 0.8 0.5 1.4 0.5 0.5 1.2 0.5 0.8 0 1.3-0.5 0.6-0.6 0.6-1.4v-1.2h-1.7q-0.2 0-0.2-0.1v-2.7q0-0.1 0.2-0.1h4.5q0.1 0 0.1 0.1v4q0 1.4-0.7 2.5-0.6 1-1.7 1.7-1 0.6-2.4 0.6zm5.6-0.3l3-16.5q0-0.1 0.1-0.1h3.5q0.1 0 0.1 0.1l2.9 16.5q0 0.1-0.1 0.1h-2.7q-0.1 0-0.1-0.1l-0.3-1.8h-3.2l-0.3 1.8q0 0.1-0.1 0.1h-2.7q-0.1 0-0.1-0.1zm6-4.3l-1-6.8-0.2-0.9-0.1 0.9-1 6.8zm7.7 4.4h-2.4q-0.2 0-0.2-0.2v-16.3q0-0.2 0.2-0.2h2.1l4.1 9.5-0.1-9.3q0-0.2 0.2-0.2h2.4q0.1 0 0.1 0.2v16.4q0 0.1-0.1 0.1h-2.1l-4.2-8.8 0.2 8.6q0 0.2-0.2 0.2zm17.6 0h-2.8q-0.1 0-0.1-0.1l0.1-16.5q0-0.1 0.1-0.1h2.7q0.1 0 0.1 0.1v5.7l3.7-5.7q0.1-0.1 0.2-0.1h2.8q0.1 0 0 0.1l-4.1 6.6 4.6 9.9q0.1 0.1-0.1 0.1h-2.9q-0.1 0-0.2-0.1l-3.2-7-0.8 1.3v5.7q0 0.1-0.1 0.1zm15.8 0h-7.8q-0.1 0-0.1-0.1v-16.5q0-0.1 0.1-0.1h7.7q0.1 0 0.1 0.1v2.7q0 0.1-0.1 0.1h-4.9v3.7h4.9q0.1 0 0.1 0.1l0.1 2.8q0 0.1-0.1 0.1h-5v4.1h5q0.1 0 0.1 0.2v2.7q0 0.1-0.1 0.1zm6.6 0h-4.3q-0.1 0-0.1-0.1v-16.5q0-0.1 0.1-0.1h4.7q1.3 0 2.4 0.7 1.1 0.6 1.7 1.7 0.6 1.1 0.6 2.3 0 1.1-0.4 2-0.5 0.9-1.2 1.4 0.7 0.7 1.1 1.6 0.4 0.9 0.4 1.9 0 1.4-0.7 2.6-0.6 1.1-1.8 1.8-1.1 0.7-2.5 0.7zm0.4-13.9h-1.9v3.8h1.9q0.8 0 1.3-0.6 0.5-0.6 0.5-1.3 0-0.7-0.5-1.3-0.6-0.6-1.3-0.6zm-0.4 6.7h-1.5v4.3h1.5q0.9 0 1.5-0.7 0.6-0.6 0.6-1.5 0-0.8-0.6-1.5-0.6-0.6-1.5-0.6zm5.9 7.1l3-16.5q0-0.1 0.1-0.1h3.5q0.1 0 0.1 0.1l2.9 16.5q0 0.1-0.1 0.1h-2.7q-0.1 0-0.1-0.1l-0.3-1.8h-3.2l-0.3 1.8q0 0.1-0.1 0.1h-2.7q-0.1 0-0.1-0.1zm5.9-4.3l-0.9-6.8-0.2-0.9-0.1 0.9-1.1 6.8zm7.8 4.4h-2.4q-0.2 0-0.2-0.2v-16.3q0-0.2 0.1-0.2h2.2l4.1 9.5-0.1-9.3q0-0.2 0.2-0.2h2.3q0.2 0 0.2 0.2v16.4q0 0.1-0.1 0.1h-2.1l-4.2-8.8 0.2 8.6q0 0.2-0.2 0.2zm12.9 0.2q-1.3 0-2.4-0.6-1-0.7-1.7-1.7-0.6-1.1-0.6-2.5v-7.6q0-1.3 0.7-2.4 0.6-1.1 1.7-1.7 1-0.7 2.3-0.7 1.3 0 2.4 0.7 1 0.6 1.7 1.7 0.6 1.1 0.6 2.4v1.1q0 0.1-0.1 0.1h-2.7q-0.1 0-0.1-0.1v-0.9q0-0.9-0.5-1.5-0.5-0.6-1.3-0.6-0.7 0-1.2 0.6-0.6 0.5-0.6 1.3v7.6q0 0.8 0.5 1.4 0.6 0.5 1.3 0.5 0.8 0 1.3-0.5 0.5-0.6 0.5-1.4v-1.2h-1.7q-0.1 0-0.1-0.1v-2.7q0-0.1 0.1-0.1h4.5q0.1 0 0.1 0.1v4q0 1.4-0.6 2.5-0.7 1-1.7 1.7-1.1 0.6-2.4 0.6zm9.2-0.2h-2.7q-0.1 0-0.1-0.1v-16.5q0-0.1 0.1-0.1h2.7q0.1 0 0.1 0.1v5.7l3.8-5.7q0.1-0.1 0.2-0.1h2.7q0.1 0 0.1 0.1l-4.2 6.6 4.7 9.9q0 0.1-0.2 0.1h-2.9q-0.1 0-0.1-0.1l-3.3-7-0.8 1.3v5.7q0 0.1-0.1 0.1zm11.3 0h-2.7q-0.2 0-0.2-0.1l0.1-16.5q0-0.1 0.1-0.1h2.6q0.1 0 0.1 0.1l0.1 16.5q0 0.1-0.1 0.1zm7.3 0h-2.7q-0.1 0-0.1-0.1v-13.7h-3.1q-0.2 0-0.2-0.1l0.1-2.7q0-0.1 0.1-0.1h9.1q0.1 0 0.1 0.1v2.7q0 0.1-0.1 0.1h-3.1v13.7q0 0.1-0.1 0.1zm3.7-0.1l2.9-16.5q0.1-0.1 0.2-0.1h3.4q0.1 0 0.2 0.1l2.8 16.5q0 0.1-0.1 0.1h-2.6q-0.2 0-0.2-0.1l-0.2-1.8h-3.3l-0.3 1.8q0 0.1-0.1 0.1h-2.6q-0.1 0-0.1-0.1zm5.9-4.3l-1-6.8-0.1-0.9-0.1 0.9-1.1 6.8zm7.7 4.4h-2.4q-0.2 0-0.2-0.2v-16.3q0-0.2 0.2-0.2h2.2l4 9.5-0.1-9.3q0-0.2 0.2-0.2h2.4q0.1 0 0.1 0.2l0.1 16.4q0 0.1-0.2 0.1h-2.1l-4.1-8.8 0.1 8.6q0 0.2-0.2 0.2zm17.6 0h-2.7q-0.1 0-0.1-0.1v-16.5q0-0.1 0.1-0.1h4.6q2.2 0 3.5 1.3 1.3 1.4 1.3 3.7 0 1.7-0.7 2.9-0.6 1.3-1.7 2-1.1 0.6-2.4 0.6h-1.8v6.1q0 0.1-0.1 0.1zm1.9-13.9l-1.8 0.1v4.7h1.8q0.8 0 1.4-0.7 0.5-0.7 0.5-1.9 0-0.9-0.5-1.5-0.5-0.7-1.4-0.7zm10.6 14.1q-1.2 0-2.3-0.6-1.1-0.7-1.7-1.8-0.7-1.1-0.7-2.4l0.1-12q0-0.1 0.1-0.1h2.7q0.1 0 0.1 0.1v12q0 0.8 0.5 1.4 0.5 0.5 1.2 0.5 0.8 0 1.3-0.5 0.6-0.6 0.6-1.4v-12q0-0.1 0-0.1h2.7q0.1 0 0.1 0.1l0.1 12q0 1.3-0.7 2.4-0.6 1.1-1.7 1.8-1 0.6-2.4 0.6zm11.8-0.2h-2.7q-0.1 0-0.1-0.1v-13.7h-3.1q-0.2 0-0.2-0.1l0.1-2.7q0-0.1 0.1-0.1h9.1q0.1 0 0.1 0.1v2.7q0 0.1-0.1 0.1h-3.1v13.7q0 0.1-0.1 0.1zm7.3 0h-2.7q-0.1 0-0.1-0.1v-16.5q0-0.1 0.1-0.1h4.9q1.3 0 2.3 0.6 1.1 0.7 1.8 1.7 0.6 1.1 0.6 2.4 0 0.9-0.2 1.6-0.3 0.8-0.7 1.2-0.3 0.5-0.6 0.8 1.3 1.4 1.3 3.4v4.9q0 0.1-0.1 0.1h-2.7q-0.1 0-0.1-0.1v-4.9q0-0.9-0.6-1.5-0.6-0.7-1.5-0.7h-1.6v7.1q0 0.1-0.1 0.1zm2.2-13.8h-2.1v3.7h2.1q0.7 0 1.3-0.5 0.6-0.6 0.6-1.4 0-0.7-0.6-1.3-0.6-0.5-1.3-0.5zm5.2 13.7l3-16.5q0-0.1 0.1-0.1h3.5q0.1 0 0.1 0.1l2.9 16.5q0 0.1-0.1 0.1h-2.7q-0.1 0-0.1-0.1l-0.2-1.8h-3.3l-0.3 1.8q0 0.1-0.1 0.1h-2.7q-0.1 0-0.1-0.1zm6-4.3l-1-6.8-0.2-0.9-0.1 0.9-1 6.8zm7.9 4.4h-2.7q-0.1 0-0.1-0.1v-16.5q0-0.1 0.1-0.1h3q0.1 0 0.1 0.1l2.2 3.2 2.2-3.2q0.1-0.1 0.2-0.1h2.9q0.1 0 0.1 0.1l0.1 16.5q0 0.1-0.1 0.1h-2.8q0 0 0-0.1l-0.1-12.3-2.5 3.7-2.5-3.7v12.3q0 0.1-0.1 0.1zm14.5 0.2q-1.3 0-2.4-0.6-1-0.7-1.7-1.8-0.6-1.1-0.6-2.4v-12q0-0.1 0.1-0.1h2.7q0.1 0 0.1 0.1v12q0 0.8 0.5 1.4 0.5 0.5 1.3 0.5 0.8 0 1.3-0.5 0.5-0.6 0.5-1.4v-12q0-0.1 0.1-0.1h2.7q0.1 0 0.1 0.1v12q0 1.3-0.6 2.4-0.7 1.1-1.7 1.8-1.1 0.6-2.4 0.6zm6.6 2.8v-1.5q0.6 0 1-0.4 0.4-0.5 0.4-1.1h-1.3q-0.1 0-0.1-0.1v-2.7q0-0.1 0.1-0.1h2.7q0.1 0 0.1 0.1v2.8q0 0.8-0.4 1.5-0.4 0.7-1.1 1.1-0.6 0.4-1.4 0.4zm-587.3 26h-2.7q-0.1 0-0.1-0.1v-13.7h-3.1q-0.1 0-0.1-0.1v-2.7q0-0.1 0.1-0.1h9.1q0.1 0 0.1 0.1v2.7q0 0.1-0.1 0.1h-3.1v13.7q0 0.1-0.1 0.1zm8.9 0.2q-1.3 0-2.3-0.6-1.1-0.7-1.8-1.8-0.6-1.1-0.6-2.4l0.1-12q0-0.1 0-0.1h2.7q0.1 0 0.1 0.1v12q0 0.8 0.6 1.4 0.5 0.5 1.2 0.5 0.8 0 1.3-0.5 0.5-0.6 0.5-1.4v-12q0-0.1 0.1-0.1h2.7q0.1 0 0.1 0.1v12q0 1.3-0.6 2.4-0.6 1.1-1.7 1.8-1.1 0.6-2.4 0.6zm9.4-0.2h-2.7q-0.1 0-0.1-0.1l0.1-16.5q0-0.1 0.1-0.1h2.6q0.2 0 0.2 0.1l-0.1 6.5h3.6v-6.5q0-0.1 0.1-0.1h2.7q0.1 0 0.1 0.1l0.1 16.5q0 0.1-0.2 0.1h-2.7q-0.1 0-0.1-0.1v-7.1h-3.6v7.1q0 0.1-0.1 0.1zm7.8-0.1l3-16.5q0-0.1 0.1-0.1h3.5q0.1 0 0.1 0.1l2.9 16.5q0 0.1-0.1 0.1h-2.7q-0.1 0-0.1-0.1l-0.3-1.8h-3.2l-0.3 1.8q0 0.1-0.1 0.1h-2.7q-0.1 0-0.1-0.1zm5.9-4.3l-0.9-6.8-0.2-0.9-0.1 0.9-1.1 6.8zm7.8 4.4h-2.4q-0.2 0-0.2-0.2v-16.3q0-0.2 0.1-0.2h2.2l4.1 9.5-0.2-9.3q0-0.2 0.3-0.2h2.3q0.2 0 0.2 0.2v16.4q0 0.1-0.1 0.1h-2.1l-4.2-8.8 0.2 8.6q0 0.2-0.2 0.2zm17.5 0h-2.7q-0.1 0-0.1-0.1l0.1-16.5q0-0.1 0.1-0.1h2.7q0 0 0 0.1v5.7l3.8-5.7q0.1-0.1 0.2-0.1h2.7q0.1 0 0.1 0.1l-4.2 6.6 4.7 9.9q0.1 0.1-0.1 0.1h-3q-0.1 0-0.1-0.1l-3.2-7-0.9 1.3v5.7q0 0.1-0.1 0.1zm7.7-0.1l2.9-16.5q0.1-0.1 0.2-0.1h3.4q0.1 0 0.2 0.1l2.8 16.5q0 0.1-0.1 0.1h-2.6q-0.2 0-0.2-0.1l-0.2-1.8h-3.3l-0.3 1.8q0 0.1-0.1 0.1h-2.6q-0.1 0-0.1-0.1zm5.9-4.3l-1-6.8-0.1-0.9-0.1 0.9-1.1 6.8zm7.9 4.4h-2.7q-0.1 0-0.1-0.1l0.1-16.5q0-0.1 0-0.1h3q0.1 0 0.1 0.1l2.2 3.2 2.2-3.2q0.1-0.1 0.2-0.1h2.9q0.1 0 0.1 0.1l0.1 16.5q0 0.1-0.1 0.1h-2.7q-0.1 0-0.1-0.1l-0.1-12.3-2.5 3.7-2.5-3.7v12.3q0 0.1-0.1 0.1zm12.9 0h-2.7q-0.1 0-0.1-0.1v-16.5q0-0.1 0.1-0.1h2.7q0.1 0 0.1 0.1v16.5q0 0.1-0.1 0.1zm13.5 0h-2.8q-0.1 0-0.1-0.1v-6.8l-3.2-9.7q0-0.1 0.1-0.1h2.7q0.1 0 0.1 0.1l1.8 6.5 1.8-6.5q0-0.1 0.1-0.1h2.7q0.1 0 0.1 0.1l-3.3 9.6 0.1 6.9q0 0.1-0.1 0.1zm10.8 0h-7.8q-0.1 0-0.1-0.1v-16.5q0-0.1 0.1-0.1h7.7q0.1 0 0.1 0.1v2.7q0 0.1-0.1 0.1h-4.9v3.7h4.9q0.1 0 0.1 0.1v2.8q0 0.1 0 0.1h-5v4.1h5q0 0 0 0.2v2.7q0 0.1 0 0.1zm6.3 0.2q-1.3 0-2.4-0.6-1.1-0.7-1.7-1.8-0.6-1.1-0.6-2.4v-1.1q0-0.1 0.1-0.1h2.7q0.1 0 0.1 0.1v1.1q0 0.8 0.5 1.4 0.5 0.5 1.3 0.5 0.7 0 1.2-0.5 0.6-0.6 0.6-1.4 0-0.9-1.2-1.5-0.2-0.1-0.5-0.3-0.3-0.2-0.7-0.4-0.4-0.2-0.8-0.4-0.4-0.3-0.7-0.5-1.3-0.7-2-1.9-0.6-1.2-0.6-2.6 0-1.3 0.6-2.4 0.7-1.1 1.7-1.7 1.1-0.6 2.4-0.6 1.2 0 2.3 0.6 1.1 0.6 1.7 1.7 0.6 1.1 0.6 2.4v2q0 0.1 0 0.1h-2.7q-0.1 0-0.1-0.1l-0.1-2q0-0.9-0.5-1.4-0.5-0.5-1.2-0.5-0.8 0-1.3 0.6-0.5 0.5-0.5 1.3 0 0.8 0.3 1.3 0.3 0.5 1.2 1 0.1 0.1 0.5 0.2 0.3 0.2 0.7 0.5 0.4 0.2 0.8 0.4 0.3 0.2 0.4 0.2 1.2 0.7 1.9 1.6 0.7 1 0.7 2.4 0 1.4-0.7 2.5-0.6 1.1-1.7 1.7-1 0.6-2.3 0.6zm10.8 0q-1.3 0-2.4-0.6-1.1-0.7-1.7-1.8-0.6-1.1-0.6-2.4v-12q0-0.1 0.1-0.1h2.7q0.1 0 0.1 0.1v12q0 0.8 0.5 1.4 0.5 0.5 1.3 0.5 0.7 0 1.2-0.5 0.6-0.6 0.6-1.4v-12q0-0.1 0-0.1h2.7q0.1 0 0.1 0.1l0.1 12q0 1.3-0.6 2.4-0.7 1.1-1.8 1.8-1 0.6-2.3 0.6zm10.6 0q-1.2 0-2.3-0.6-1.1-0.7-1.7-1.8-0.6-1.1-0.6-2.4v-1.1q0-0.1 0.1-0.1h2.7q0.1 0 0.1 0.1v1.1q0 0.8 0.5 1.4 0.5 0.5 1.2 0.5 0.8 0 1.3-0.5 0.6-0.6 0.6-1.4 0-0.9-1.2-1.5-0.2-0.1-0.5-0.3-0.3-0.2-0.7-0.4-0.4-0.2-0.8-0.4-0.4-0.3-0.7-0.5-1.3-0.7-2-1.9-0.6-1.2-0.6-2.6 0-1.3 0.6-2.4 0.7-1.1 1.7-1.7 1.1-0.6 2.3-0.6 1.3 0 2.4 0.6 1.1 0.6 1.7 1.7 0.6 1.1 0.6 2.4v2q0 0.1-0.1 0.1h-2.7q0 0 0-0.1l-0.1-2q0-0.9-0.5-1.4-0.5-0.5-1.3-0.5-0.7 0-1.2 0.6-0.5 0.5-0.5 1.3 0 0.8 0.3 1.3 0.3 0.5 1.2 1 0.1 0.1 0.4 0.2 0.4 0.2 0.8 0.5 0.4 0.2 0.8 0.4 0.3 0.2 0.4 0.2 1.2 0.7 1.9 1.6 0.7 1 0.7 2.4 0 1.4-0.7 2.5-0.6 1.1-1.7 1.7-1 0.6-2.4 0.6zm15.5-0.2h-2.7q-0.1 0-0.1-0.1v-16.5q0-0.1 0.1-0.1h2.7q0.1 0 0.1 0.1v5.7l3.8-5.7q0-0.1 0.1-0.1h2.8q0.1 0 0 0.1l-4.1 6.6 4.6 9.9q0.1 0.1-0.1 0.1h-2.9q-0.1 0-0.2-0.1l-3.2-7-0.8 1.3v5.7q0 0.1-0.1 0.1zm11.2 0h-2.7q-0.1 0-0.1-0.1l0.1-16.5q0-0.1 0-0.1h4.9q1.3 0 2.4 0.6 1.1 0.7 1.7 1.7 0.7 1.1 0.7 2.4 0 0.9-0.3 1.6-0.3 0.8-0.6 1.2-0.4 0.5-0.7 0.8 1.3 1.4 1.3 3.4l0.1 4.9q0 0.1-0.2 0.1h-2.7q-0.1 0-0.1-0.1v-4.9q0-0.9-0.6-1.5-0.6-0.7-1.5-0.7h-1.6v7.1q0 0.1-0.1 0.1zm2.2-13.8h-2.1v3.7h2.1q0.7 0 1.3-0.5 0.6-0.6 0.6-1.4 0-0.7-0.6-1.3-0.5-0.5-1.3-0.5zm9.4 13.8h-2.7q-0.1 0-0.1-0.1v-16.5q0-0.1 0.1-0.1h2.7q0.1 0 0.1 0.1v16.5q0 0.1-0.1 0.1zm6.3 0.2q-1.3 0-2.4-0.6-1-0.7-1.7-1.8-0.6-1.1-0.6-2.4v-1.1q0-0.1 0.1-0.1h2.7q0.1 0 0.1 0.1v1.1q0 0.8 0.5 1.4 0.6 0.5 1.3 0.5 0.7 0 1.3-0.5 0.5-0.6 0.5-1.4 0-0.9-1.2-1.5-0.1-0.1-0.4-0.3-0.3-0.2-0.7-0.4-0.5-0.2-0.8-0.4-0.4-0.3-0.8-0.5-1.3-0.7-2-1.9-0.6-1.2-0.6-2.6 0-1.3 0.7-2.4 0.6-1.1 1.7-1.7 1.1-0.6 2.3-0.6 1.3 0 2.3 0.6 1.1 0.6 1.7 1.7 0.7 1.1 0.7 2.4v2q0 0.1-0.1 0.1h-2.7q-0.1 0-0.1-0.1v-2q0-0.9-0.6-1.4-0.5-0.5-1.2-0.5-0.7 0-1.3 0.6-0.5 0.5-0.5 1.3 0 0.8 0.3 1.3 0.4 0.5 1.3 1 0.1 0.1 0.4 0.2 0.3 0.2 0.7 0.5 0.5 0.2 0.8 0.4 0.3 0.2 0.4 0.2 1.2 0.7 1.9 1.6 0.7 1 0.7 2.4 0 1.4-0.6 2.5-0.7 1.1-1.7 1.7-1.1 0.6-2.4 0.6zm11.5-0.2h-2.7q-0.1 0-0.1-0.1v-13.7h-3.1q-0.2 0-0.2-0.1l0.1-2.7q0-0.1 0.1-0.1h9.1q0.1 0 0.1 0.1v2.7q0 0.1-0.1 0.1h-3.1v13.7q0 0.1-0.1 0.1zm8.9 0.2q-1.3 0-2.4-0.6-1-0.7-1.7-1.8-0.6-1.1-0.6-2.4v-12q0-0.1 0.1-0.1h2.7q0.1 0 0.1 0.1v12q0 0.8 0.5 1.4 0.5 0.5 1.3 0.5 0.8 0 1.3-0.5 0.5-0.6 0.5-1.4v-12q0-0.1 0.1-0.1h2.7q0.1 0 0.1 0.1v12q0 1.3-0.6 2.4-0.7 1.1-1.7 1.8-1.1 0.6-2.4 0.6zm10.7 0q-1.3 0-2.4-0.6-1-0.7-1.7-1.8-0.6-1.1-0.6-2.4v-1.1q0-0.1 0.1-0.1h2.7q0.1 0 0.1 0.1v1.1q0 0.8 0.5 1.4 0.5 0.5 1.3 0.5 0.7 0 1.3-0.5 0.5-0.6 0.5-1.4 0-0.9-1.2-1.5-0.1-0.1-0.5-0.3-0.2-0.2-0.7-0.4-0.4-0.2-0.8-0.4-0.3-0.3-0.7-0.5-1.3-0.7-2-1.9-0.6-1.2-0.6-2.6 0-1.3 0.7-2.4 0.6-1.1 1.7-1.7 1-0.6 2.3-0.6 1.3 0 2.3 0.6 1.1 0.6 1.7 1.7 0.7 1.1 0.7 2.4v2q0 0.1-0.1 0.1h-2.7q-0.1 0-0.1-0.1v-2q0-0.9-0.6-1.4-0.5-0.5-1.2-0.5-0.8 0-1.3 0.6-0.5 0.5-0.5 1.3 0 0.8 0.3 1.3 0.4 0.5 1.2 1 0.1 0.1 0.5 0.2 0.3 0.2 0.7 0.5 0.5 0.2 0.8 0.4 0.3 0.2 0.4 0.2 1.2 0.7 1.9 1.6 0.7 1 0.7 2.4 0 1.4-0.6 2.5-0.7 1.1-1.8 1.7-1 0.6-2.3 0.6zm9.2-0.2h-2.7q-0.1 0-0.1-0.1v-2.7q0-0.1 0.1-0.1h2.7q0.1 0 0.1 0.1v2.7q0 0.1-0.1 0.1zm11.1 0h-2.8q0 0 0-0.1v-16.5q0-0.1 0.1-0.1h2.7q0.1 0 0.1 0.1v5.7l3.7-5.7q0.1-0.1 0.2-0.1h2.8q0.1 0 0 0.1l-4.1 6.6 4.6 9.9q0.1 0.1-0.1 0.1h-2.9q-0.1 0-0.2-0.1l-3.2-7-0.8 1.3v5.7q0 0.1-0.1 0.1zm7.6-0.1l3-16.5q0-0.1 0.1-0.1h3.5q0.1 0 0.1 0.1l2.8 16.5q0.1 0.1 0 0.1h-2.7q-0.1 0-0.1-0.1l-0.3-1.8h-3.3l-0.2 1.8q0 0.1-0.1 0.1h-2.7q-0.1 0-0.1-0.1zm5.9-4.3l-1-6.8-0.1-0.9-0.1 0.9-1.1 6.8zm8 4.4h-2.8q-0.1 0-0.1-0.1l0.1-16.5q0-0.1 0.1-0.1h2.9q0.1 0 0.2 0.1l2.2 3.2 2.1-3.2q0.1-0.1 0.2-0.1h3q0.1 0 0.1 0.1v16.5q0 0.1-0.1 0.1h-2.7q-0.1 0-0.1-0.1v-12.3l-2.5 3.7-2.5-3.7-0.1 12.3q0 0.1 0 0.1zm12.9 0h-2.8q-0.1 0-0.1-0.1v-16.5q0-0.1 0.1-0.1h2.7q0.1 0 0.1 0.1v16.5q0 0.1 0 0.1zm11.2 0h-2.7q-0.1 0-0.1-0.1v-16.5q0-0.1 0.1-0.1h3q0.1 0 0.1 0.1l2.2 3.2 2.2-3.2q0.1-0.1 0.2-0.1h2.9q0.1 0 0.1 0.1l0.1 16.5q0 0.1-0.1 0.1h-2.7q-0.1 0-0.1-0.1l-0.1-12.3-2.5 3.7-2.5-3.7v12.3q0 0.1-0.1 0.1zm14.5 0.2q-1.3 0-2.3-0.6-1.1-0.7-1.8-1.8-0.6-1.1-0.6-2.4v-7.6q0-1.3 0.7-2.4 0.6-1.1 1.7-1.7 1-0.7 2.3-0.7 1.3 0 2.4 0.7 1 0.6 1.7 1.7 0.6 1.1 0.6 2.4v7.6q0 1.3-0.6 2.4-0.7 1.1-1.7 1.8-1.1 0.6-2.4 0.6zm0-2.9q0.7 0 1.3-0.5 0.5-0.6 0.5-1.4v-7.6q0-0.8-0.5-1.3-0.5-0.6-1.3-0.6-0.7 0-1.3 0.6-0.5 0.5-0.5 1.3v7.6q0 0.8 0.5 1.4 0.6 0.5 1.3 0.5zm9.3 2.7h-2.7q-0.1 0-0.1-0.1l0.1-16.5q0-0.1 0.1-0.1h2.6q0.2 0 0.2 0.1l-0.1 6.5h3.6v-6.5q0-0.1 0.1-0.1h2.7q0.1 0 0.1 0.1l0.1 16.5q0 0.1-0.2 0.1h-2.7q-0.1 0-0.1-0.1v-7.1h-3.6v7.1q0 0.1-0.1 0.1zm13.1 0.2q-1.3 0-2.4-0.6-1.1-0.7-1.7-1.8-0.7-1.1-0.7-2.4l0.1-7.6q0-1.3 0.6-2.4 0.6-1.1 1.7-1.7 1.1-0.7 2.4-0.7 1.3 0 2.3 0.7 1.1 0.6 1.7 1.7 0.6 1.1 0.6 2.4l0.1 7.6q0 1.3-0.7 2.4-0.6 1.1-1.7 1.8-1 0.6-2.3 0.6zm0-2.9q0.7 0 1.2-0.5 0.6-0.6 0.6-1.4l-0.1-7.6q0-0.8-0.5-1.3-0.5-0.6-1.2-0.6-0.8 0-1.3 0.6-0.5 0.5-0.5 1.3v7.6q0 0.8 0.5 1.4 0.5 0.5 1.3 0.5zm9.1 2.7h-2.4q-0.2 0-0.2-0.2v-16.3q0-0.2 0.2-0.2h2.1l4.1 9.5-0.1-9.3q0-0.2 0.2-0.2h2.4q0.1 0 0.1 0.2v16.4q0 0.1-0.1 0.1h-2.1l-4.2-8.8 0.2 8.6q0 0.2-0.2 0.2zm8.5 3v-1.5q0.6 0 1-0.4 0.4-0.5 0.4-1.1h-1.3q-0.1 0-0.1-0.1v-2.7q0-0.1 0.1-0.1h2.7q0.1 0 0.1 0.1v2.8q0 0.8-0.4 1.5-0.4 0.7-1.1 1.1-0.6 0.4-1.4 0.4zm13.9-3h-2.7q-0.1 0-0.1-0.1l0.1-16.5q0-0.1 0-0.1h4.7q2.2 0 3.4 1.3 1.3 1.4 1.3 3.7 0 1.7-0.6 2.9-0.7 1.3-1.8 2-1.1 0.6-2.3 0.6h-1.9v6.1q0 0.1-0.1 0.1zm2-13.9l-1.9 0.1v4.7h1.9q0.7 0 1.3-0.7 0.5-0.7 0.5-1.9 0-0.9-0.5-1.5-0.5-0.7-1.3-0.7zm14.2 13.9h-7.7q-0.1 0-0.1-0.1v-16.5q0-0.1 0.1-0.1h7.7q0.1 0 0.1 0.1v2.7q0 0.1-0.1 0.1h-4.9v3.7h4.9q0.1 0 0.1 0.1v2.8q0 0.1-0.1 0.1h-4.9v4.1h4.9q0.1 0 0.1 0.2v2.7q0 0.1-0.1 0.1zm5.1 0h-2.8q-0.1 0-0.1-0.1l0.1-16.5q0-0.1 0.1-0.1h4.8q1.3 0 2.4 0.6 1.1 0.7 1.8 1.7 0.6 1.1 0.6 2.4 0 0.9-0.3 1.6-0.2 0.8-0.6 1.2-0.3 0.5-0.6 0.8 1.3 1.4 1.3 3.4v4.9q0 0.1-0.1 0.1h-2.7q-0.1 0-0.1-0.1v-4.9q0-0.9-0.6-1.5-0.7-0.7-1.5-0.7h-1.6l-0.1 7.1q0 0.1 0 0.1zm2.1-13.8h-2v3.7h2q0.8 0 1.3-0.5 0.6-0.6 0.6-1.4 0-0.7-0.5-1.3-0.6-0.5-1.4-0.5zm9.4 13.8h-2.7q-0.1 0-0.1-0.1l0.1-16.5q0-0.1 0-0.1h2.7q0.1 0 0.1 0.1v5.7l3.8-5.7q0.1-0.1 0.2-0.1h2.7q0.1 0 0.1 0.1l-4.2 6.6 4.7 9.9q0 0.1-0.1 0.1h-3q-0.1 0-0.1-0.1l-3.3-7-0.8 1.3v5.7q0 0.1-0.1 0.1zm15.8 0h-7.7q-0.1 0-0.1-0.1v-16.5q0-0.1 0.1-0.1h7.7q0.1 0 0.1 0.1v2.7q0 0.1-0.1 0.1h-4.9v3.7h4.9q0.1 0 0.1 0.1v2.8q0 0.1-0.1 0.1h-4.9v4.1h4.9q0.1 0 0.1 0.2v2.7q0 0.1-0.1 0.1zm4.9 0h-2.4q-0.2 0-0.2-0.2v-16.3q0-0.2 0.1-0.2h2.2l4.1 9.5-0.2-9.3q0-0.2 0.3-0.2h2.3q0.2 0 0.2 0.2v16.4q0 0.1-0.1 0.1h-2.1l-4.2-8.8 0.2 8.6q0 0.2-0.2 0.2zm7.7-0.1l3-16.5q0-0.1 0.1-0.1h3.5q0 0 0.1 0.1l2.8 16.5q0 0.1-0.1 0.1h-2.6q-0.1 0-0.2-0.1l-0.2-1.8h-3.3l-0.2 1.8q-0.1 0.1-0.2 0.1h-2.6q-0.1 0-0.1-0.1zm5.9-4.3l-1-6.8-0.1-0.9-0.1 0.9-1.1 6.8zm7.7 4.4h-2.4q-0.2 0-0.2-0.2v-16.3q0-0.2 0.2-0.2h2.2l4 9.5-0.1-9.3q0-0.2 0.2-0.2h2.4q0.1 0 0.1 0.2l0.1 16.4q0 0.1-0.2 0.1h-2.1l-4.1-8.8 0.2 8.6q0 0.2-0.3 0.2zm11.4 0h-2.8q0 0 0-0.1v-16.5q0-0.1 0.1-0.1h2.7q0.1 0 0.1 0.1v5.7l3.7-5.7q0.1-0.1 0.2-0.1h2.8q0.1 0 0 0.1l-4.1 6.6 4.6 9.9q0.1 0.1-0.1 0.1h-2.9q-0.1 0-0.2-0.1l-3.2-7-0.8 1.3v5.7q0 0.1-0.1 0.1zm7.6-0.1l3-16.5q0-0.1 0.1-0.1h3.5q0.1 0 0.1 0.1l2.8 16.5q0.1 0.1 0 0.1h-2.7q-0.1 0-0.1-0.1l-0.3-1.8h-3.3l-0.2 1.8q0 0.1-0.1 0.1h-2.7q-0.1 0-0.1-0.1zm5.9-4.3l-1-6.8-0.1-0.9-0.1 0.9-1.1 6.8zm7.7 4.4h-2.4q-0.1 0-0.1-0.2l-0.1-16.3q0-0.2 0.2-0.2h2.2l4 9.5-0.1-9.3q0-0.2 0.2-0.2h2.4q0.2 0 0.2 0.2v16.4q0 0.1-0.1 0.1h-2.1l-4.2-8.8 0.2 8.6q0 0.2-0.3 0.2zm16.4 0h-7.7q-0.1 0-0.1-0.1v-16.5q0-0.1 0.1-0.1h2.7q0.1 0 0.1 0.1v13.6h4.9q0.1 0 0.1 0.2v2.7q0 0.1-0.1 0.1zm0.9-0.1l3-16.5q0-0.1 0.1-0.1h3.5q0.1 0 0.1 0.1l2.8 16.5q0.1 0.1-0.1 0.1h-2.6q-0.1 0-0.1-0.1l-0.3-1.8h-3.3l-0.2 1.8q0 0.1-0.1 0.1h-2.7q-0.1 0-0.1-0.1zm5.9-4.3l-1-6.8-0.1-0.9-0.1 0.9-1.1 6.8zm7.9 4.4h-2.7q-0.1 0-0.1-0.1l0.1-16.5q0-0.1 0.1-0.1h2.6q0.2 0 0.2 0.1l-0.1 6.5h3.6v-6.5q0-0.1 0.1-0.1h2.7q0.1 0 0.1 0.1l0.1 16.5q0 0.1-0.2 0.1h-2.6q-0.2 0-0.2-0.1v-7.1h-3.6v7.1q0 0.1-0.1 0.1zm-522.1 29h-2.8q0 0 0-0.1v-16.5q0-0.1 0.1-0.1h2.7q0.1 0 0.1 0.1v5.7l3.7-5.7q0.1-0.1 0.2-0.1h2.8q0.1 0 0 0.1l-4.1 6.6 4.6 9.9q0.1 0.1-0.1 0.1h-2.9q-0.1 0-0.2-0.1l-3.2-7-0.8 1.3v5.7q0 0.1-0.1 0.1zm7.6-0.1l3-16.5q0-0.1 0.1-0.1h3.5q0.1 0 0.1 0.1l2.8 16.5q0.1 0.1 0 0.1h-2.7q-0.1 0-0.1-0.1l-0.3-1.8h-3.3l-0.2 1.8q0 0.1-0.1 0.1h-2.7q-0.1 0-0.1-0.1zm5.9-4.3l-1-6.8-0.1-0.9-0.1 0.9-1.1 6.8zm8 4.4h-2.8q-0.1 0-0.1-0.1l0.1-16.5q0-0.1 0.1-0.1h2.9q0.1 0 0.2 0.1l2.2 3.2 2.1-3.2q0.1-0.1 0.2-0.1h3q0.1 0 0.1 0.1v16.5q0 0.1-0.1 0.1h-2.7q-0.1 0-0.1-0.1v-12.3l-2.5 3.7-2.5-3.7-0.1 12.3q0 0.1 0 0.1zm12.9 0h-2.8q-0.1 0-0.1-0.1v-16.5q0-0.1 0.1-0.1h2.7q0.1 0 0.1 0.1v16.5q0 0.1 0 0.1zm12.8 0h-4.3q-0.1 0-0.1-0.1v-16.5q0-0.1 0.1-0.1h4.6q1.4 0 2.5 0.7 1.1 0.6 1.7 1.7 0.6 1.1 0.6 2.3 0 1.1-0.5 2-0.4 0.9-1.1 1.4 0.7 0.7 1.1 1.6 0.4 0.9 0.4 1.9 0 1.4-0.7 2.6-0.6 1.1-1.8 1.8-1.1 0.7-2.5 0.7zm0.3-13.9h-1.8v3.8h1.8q0.9 0 1.4-0.6 0.5-0.6 0.5-1.3 0-0.7-0.5-1.3-0.6-0.6-1.4-0.6zm-0.3 6.7h-1.5v4.3h1.5q0.9 0 1.5-0.7 0.6-0.6 0.6-1.5 0-0.8-0.6-1.5-0.6-0.6-1.5-0.6zm14.6 7.2h-7.8q-0.1 0-0.1-0.1v-16.5q0-0.1 0.1-0.1h7.8q0 0 0 0.1v2.7q0 0.1 0 0.1h-5v3.7h5q0 0 0 0.1l0.1 2.8q0 0.1-0.1 0.1h-5v4.1h5q0.1 0 0.1 0.2v2.7q0 0.1-0.1 0.1zm5 0h-2.7q-0.1 0-0.1-0.1v-16.5q0-0.1 0.1-0.1h4.9q1.3 0 2.4 0.6 1.1 0.7 1.7 1.7 0.7 1.1 0.7 2.4 0 0.9-0.3 1.6-0.3 0.8-0.6 1.2-0.4 0.5-0.7 0.8 1.3 1.4 1.3 3.4l0.1 4.9q0 0.1-0.2 0.1h-2.7q-0.1 0-0.1-0.1v-4.9q0-0.9-0.6-1.5-0.6-0.7-1.5-0.7h-1.6v7.1q0 0.1-0.1 0.1zm2.2-13.8h-2.1v3.7h2.1q0.7 0 1.3-0.5 0.6-0.6 0.6-1.4 0-0.7-0.6-1.3-0.5-0.5-1.3-0.5zm10.6 14q-1.2 0-2.3-0.6-1.1-0.7-1.7-1.8-0.7-1.1-0.7-2.4v-1.1q0-0.1 0.2-0.1h2.7q0.1 0 0.1 0.1v1.1q0 0.8 0.5 1.4 0.5 0.5 1.2 0.5 0.8 0 1.3-0.5 0.6-0.6 0.6-1.4 0-0.9-1.2-1.5-0.2-0.1-0.5-0.3-0.3-0.2-0.7-0.4-0.4-0.2-0.8-0.4-0.4-0.3-0.7-0.5-1.4-0.7-2-1.9-0.6-1.2-0.6-2.6 0-1.3 0.6-2.4 0.7-1.1 1.7-1.7 1.1-0.6 2.3-0.6 1.3 0 2.4 0.6 1.1 0.6 1.7 1.7 0.6 1.1 0.6 2.4v2q0 0.1-0.1 0.1h-2.7q0 0 0-0.1l-0.1-2q0-0.9-0.5-1.4-0.5-0.5-1.3-0.5-0.7 0-1.2 0.6-0.5 0.5-0.5 1.3 0 0.8 0.3 1.3 0.3 0.5 1.2 1 0.1 0.1 0.4 0.2 0.4 0.2 0.8 0.5 0.4 0.2 0.8 0.4 0.3 0.2 0.4 0.2 1.2 0.7 1.9 1.6 0.7 1 0.7 2.4 0 1.4-0.7 2.5-0.6 1.1-1.7 1.7-1.1 0.6-2.4 0.6zm10.8 0q-1.2 0-2.3-0.6-1.1-0.7-1.7-1.8-0.7-1.1-0.7-2.4l0.1-12q0-0.1 0.1-0.1h2.7q0.1 0 0.1 0.1v12q0 0.8 0.5 1.4 0.5 0.5 1.2 0.5 0.8 0 1.3-0.5 0.5-0.6 0.5-1.4v-12q0-0.1 0.1-0.1h2.7q0.1 0 0.1 0.1l0.1 12q0 1.3-0.7 2.4-0.6 1.1-1.7 1.8-1 0.6-2.4 0.6zm9.5-0.2h-2.7q-0.1 0-0.1-0.1v-16.5q0-0.1 0.1-0.1h2.7q0.1 0 0.1 0.1v5.7l3.8-5.7q0-0.1 0.1-0.1h2.8q0.1 0 0 0.1l-4.1 6.6 4.6 9.9q0.1 0.1-0.1 0.1h-2.9q-0.1 0-0.2-0.1l-3.2-7-0.8 1.3v5.7q0 0.1-0.1 0.1zm7.6-0.1l3-16.5q0-0.1 0.1-0.1h3.5q0.1 0 0.1 0.1l2.9 16.5q0 0.1-0.1 0.1h-2.7q-0.1 0-0.1-0.1l-0.3-1.8h-3.3l-0.2 1.8q0 0.1-0.1 0.1h-2.7q-0.1 0-0.1-0.1zm5.9-4.3l-1-6.8-0.1-0.9-0.1 0.9-1.1 6.8zm9.6 4.6q-1.3 0-2.4-0.6-1.1-0.7-1.7-1.8-0.6-1.1-0.6-2.5v-7.4q0-1.4 0.6-2.5 0.6-1 1.7-1.7 1-0.7 2.4-0.7 1.3 0 2.3 0.7 1.1 0.6 1.7 1.7 0.6 1.1 0.6 2.5v1.1q0 0.1 0 0.1h-2.7q-0.1 0-0.1-0.1v-1.1q0-0.8-0.5-1.4-0.6-0.6-1.3-0.6-0.9 0-1.4 0.6-0.4 0.6-0.4 1.4v7.4q0 0.9 0.5 1.5 0.5 0.5 1.3 0.5 0.7 0 1.3-0.6 0.5-0.6 0.5-1.4v-1.1q0-0.1 0.1-0.1h2.7q0.1 0 0.1 0.1v1.1q0 1.4-0.7 2.5-0.6 1.1-1.7 1.8-1 0.6-2.3 0.6zm9.2-0.2h-2.7q-0.1 0-0.1-0.1v-16.5q0-0.1 0.1-0.1h2.7q0.1 0 0.1 0.1v16.5q0 0.1-0.1 0.1zm7.4 0h-2.7q-0.1 0-0.1-0.1v-13.7h-3.2q-0.1 0-0.1-0.1v-2.7q0-0.1 0.1-0.1h9.2q0.1 0 0.1 0.1v2.7q0 0.1-0.1 0.1h-3.2l0.1 13.7q0 0.1-0.1 0.1zm3.6-0.1l3-16.5q0-0.1 0.1-0.1h3.5q0.1 0 0.1 0.1l2.9 16.5q0 0.1-0.1 0.1h-2.7q-0.1 0-0.1-0.1l-0.3-1.8h-3.2l-0.3 1.8q0 0.1-0.1 0.1h-2.7q-0.1 0-0.1-0.1zm6-4.3l-1-6.8-0.2-0.9-0.1 0.9-1 6.8zm15.7 4.4h-4.3q-0.1 0-0.1-0.1l0.1-16.5q0-0.1 0.1-0.1h4.4q1.4-0.1 2.5 0.6 1 0.6 1.7 1.7 0.6 1.1 0.6 2.4v6.9q0 1.4-0.6 2.6-0.7 1.1-1.8 1.8-1.2 0.7-2.6 0.7zm0.2-13.9l-1.6 0.1-0.1 10.8h1.5q0.9 0 1.5-0.6 0.6-0.6 0.6-1.5v-6.9q0-0.7-0.5-1.3-0.6-0.6-1.4-0.6zm5.9 13.8l3-16.5q0-0.1 0.1-0.1h3.5q0.1 0 0.1 0.1l2.9 16.5q0 0.1-0.1 0.1h-2.7q-0.1 0-0.1-0.1l-0.3-1.8h-3.2l-0.3 1.8q0 0.1-0.1 0.1h-2.7q-0.1 0-0.1-0.1zm6-4.3l-1-6.8-0.2-0.9-0.1 0.9-1.1 6.8zm13 4.4h-7.7q-0.1 0-0.1-0.1v-16.5q0-0.1 0.1-0.1h2.7q0.1 0 0.1 0.1v13.6h4.9q0.1 0 0.1 0.2v2.7q0 0.1-0.1 0.1zm0.9-0.1l3-16.5q0-0.1 0.1-0.1h3.5q0.1 0 0.1 0.1l2.8 16.5q0 0.1-0.1 0.1h-2.6q-0.1 0-0.1-0.1l-0.3-1.8h-3.3l-0.2 1.8q0 0.1-0.2 0.1h-2.6q-0.1 0-0.1-0.1zm5.9-4.3l-1-6.8-0.1-0.9-0.1 0.9-1.1 6.8zm7.9 4.4h-2.7q-0.1 0-0.1-0.1l0.1-16.5q0-0.1 0.1-0.1h2.9q0.1 0 0.2 0.1l2.2 3.2 2.1-3.2q0.1-0.1 0.2-0.1h2.9q0.2 0 0.2 0.1v16.5q0 0.1-0.1 0.1h-2.7q-0.1 0-0.1-0.1v-12.3l-2.5 3.7-2.5-3.7-0.1 12.3q0 0.1-0.1 0.1zm19.2 0h-2.8q-0.1 0-0.1-0.1l0.1-16.5q0-0.1 0.1-0.1h2.7q0.1 0 0.1 0.1v5.7l3.7-5.7q0.1-0.1 0.2-0.1h2.8q0.1 0 0 0.1l-4.1 6.6 4.6 9.9q0.1 0.1-0.1 0.1h-2.9q-0.2 0-0.2-0.1l-3.2-7-0.9 1.3v5.7q0 0.1 0 0.1zm15.8 0h-7.8q-0.1 0-0.1-0.1v-16.5q0-0.1 0.1-0.1h7.7q0.1 0 0.1 0.1v2.7q0 0.1-0.1 0.1h-4.9v3.7h4.9q0.1 0 0.1 0.1l0.1 2.8q0 0.1-0.1 0.1h-5v4.1h5q0.1 0 0.1 0.2v2.7q0 0.1-0.1 0.1zm5 0h-2.7q-0.1 0-0.1-0.1v-16.5q0-0.1 0.1-0.1h2.7q0.1 0 0.1 0.1v6.5h3.6v-6.5q0-0.1 0.1-0.1h2.7q0.1 0 0.1 0.1v16.5q0 0.1-0.1 0.1h-2.7q-0.1 0-0.1-0.1v-7.1h-3.6v7.1q0 0.1-0.1 0.1zm11.4 0h-2.7q-0.1 0-0.1-0.1v-16.5q0-0.1 0.1-0.1h2.7q0.1 0 0.1 0.1v16.5q0 0.1-0.1 0.1zm6.6 0h-4.3q-0.1 0-0.1-0.1l0.1-16.5q0-0.1 0.1-0.1h4.4q1.4-0.1 2.5 0.6 1 0.6 1.7 1.7 0.7 1.1 0.7 2.4v6.9q0 1.4-0.7 2.6-0.7 1.1-1.8 1.8-1.1 0.7-2.6 0.7zm0.2-13.9l-1.6 0.1-0.1 10.8h1.5q0.9 0 1.5-0.6 0.6-0.6 0.6-1.5v-6.9q0-0.7-0.5-1.3-0.6-0.6-1.4-0.6zm11.2 14.1q-1.3 0-2.4-0.6-1.1-0.7-1.7-1.8-0.6-1.1-0.6-2.4v-12q0-0.1 0.1-0.1h2.7q0.1 0 0.1 0.1v12q0 0.8 0.5 1.4 0.5 0.5 1.3 0.5 0.7 0 1.2-0.5 0.6-0.6 0.6-1.4v-12q0-0.1 0.1-0.1h2.6q0.1 0 0.1 0.1l0.1 12q0 1.3-0.6 2.4-0.7 1.1-1.8 1.8-1 0.6-2.3 0.6zm9.4-0.2h-2.7q-0.1 0-0.1-0.1v-16.5q0-0.1 0.1-0.1h4.6q2.2 0 3.5 1.3 1.3 1.4 1.3 3.7 0 1.7-0.7 2.9-0.6 1.3-1.7 2-1.1 0.6-2.4 0.6h-1.8v6.1q0 0.1-0.1 0.1zm1.9-13.9l-1.8 0.1v4.7h1.8q0.8 0 1.4-0.7 0.5-0.7 0.5-1.9 0-0.9-0.5-1.5-0.5-0.7-1.4-0.7zm5.6 13.8l3-16.5q0-0.1 0.1-0.1h3.5q0.1 0 0.1 0.1l2.9 16.5q0 0.1-0.1 0.1h-2.7q-0.1 0-0.1-0.1l-0.3-1.8h-3.2l-0.3 1.8q0 0.1-0.1 0.1h-2.7q-0.1 0-0.1-0.1zm6-4.3l-1-6.8-0.2-0.9-0.1 0.9-1.1 6.8zm7.8 4.4h-2.4q-0.2 0-0.2-0.2v-16.3q0-0.2 0.2-0.2h2.1l4.1 9.5-0.1-9.3q0-0.2 0.2-0.2h2.3q0.2 0 0.2 0.2v16.4q0 0.1-0.1 0.1h-2.1l-4.2-8.8 0.2 8.6q0 0.2-0.2 0.2zm17.5 0h-2.7q-0.1 0-0.1-0.1l0.1-16.5q0-0.1 0.1-0.1h2.7q0.1 0 0.1 0.1v5.7l3.7-5.7q0.1-0.1 0.2-0.1h2.8q0.1 0 0 0.1l-4.1 6.6 4.6 9.9q0.1 0.1-0.1 0.1h-2.9q-0.2 0-0.2-0.1l-3.2-7-0.9 1.3v5.7q0 0.1-0.1 0.1zm15.9 0h-7.8q-0.1 0-0.1-0.1v-16.5q0-0.1 0.1-0.1h7.7q0.1 0 0.1 0.1v2.7q0 0.1-0.1 0.1h-4.9v3.7h4.9q0.1 0 0.1 0.1v2.8q0 0.1 0 0.1h-5v4.1h5q0 0 0 0.2v2.7q0 0.1 0 0.1zm5 0h-2.7q-0.1 0-0.1-0.1v-16.5q0-0.1 0.1-0.1h2.7q0.1 0 0.1 0.1v5.7l3.8-5.7q0.1-0.1 0.1-0.1h2.8q0.1 0 0 0.1l-4.1 6.6 4.7 9.9q0 0.1-0.2 0.1h-2.9q-0.1 0-0.1-0.1l-3.3-7-0.8 1.3v5.7q0 0.1-0.1 0.1zm7.6-0.1l3-16.5q0-0.1 0.1-0.1h3.5q0.1 0 0.1 0.1l2.9 16.5q0 0.1-0.1 0.1h-2.7q-0.1 0-0.1-0.1l-0.3-1.8h-3.2l-0.3 1.8q0 0.1-0.1 0.1h-2.7q-0.1 0-0.1-0.1zm6-4.3l-1-6.8-0.2-0.9-0.1 0.9-1.1 6.8zm13 4.4h-7.7q-0.1 0-0.1-0.1v-16.5q0-0.1 0.1-0.1h2.7q0.1 0 0.1 0.1v13.6h4.9q0.1 0 0.1 0.2v2.7q0 0.1-0.1 0.1zm12.3 0h-4.3q-0.1 0-0.1-0.1l0.1-16.5q0-0.1 0.1-0.1h4.6q1.3 0 2.4 0.7 1.1 0.6 1.7 1.7 0.7 1.1 0.7 2.3 0 1.1-0.5 2-0.5 0.9-1.1 1.4 0.7 0.7 1 1.6 0.4 0.9 0.4 1.9 0 1.4-0.6 2.6-0.7 1.1-1.8 1.8-1.2 0.7-2.6 0.7zm0.4-13.9h-1.8v3.8h1.8q0.8 0 1.3-0.6 0.5-0.6 0.5-1.3 0-0.7-0.5-1.3-0.6-0.6-1.3-0.6zm-0.4 6.7h-1.4l-0.1 4.3h1.5q0.9 0 1.5-0.7 0.6-0.6 0.6-1.5 0-0.8-0.6-1.5-0.6-0.6-1.5-0.6zm14.6 7.2h-7.7q-0.1 0-0.1-0.1v-16.5q0-0.1 0.1-0.1h7.7q0.1 0 0.1 0.1v2.7q0 0.1-0.1 0.1h-4.9v3.7h4.9q0.1 0 0.1 0.1v2.8q0 0.1-0.1 0.1h-4.9v4.1h4.9q0.1 0 0.1 0.2v2.7q0 0.1-0.1 0.1zm5 0h-2.7q-0.1 0-0.1-0.1l0.1-16.5q0-0.1 0.1-0.1h4.8q1.3 0 2.4 0.6 1.1 0.7 1.8 1.7 0.6 1.1 0.6 2.4 0 0.9-0.3 1.6-0.2 0.8-0.6 1.2-0.3 0.5-0.6 0.8 1.3 1.4 1.3 3.4v4.9q0 0.1-0.1 0.1h-2.7q-0.1 0-0.1-0.1v-4.9q0-0.9-0.7-1.5-0.6-0.7-1.5-0.7h-1.5l-0.1 7.1q0 0.1-0.1 0.1zm2.2-13.8h-2v3.7h2q0.8 0 1.3-0.5 0.6-0.6 0.6-1.4 0-0.7-0.5-1.3-0.6-0.5-1.4-0.5zm10.7 14q-1.3 0-2.4-0.6-1-0.7-1.7-1.8-0.6-1.1-0.6-2.4v-1.1q0-0.1 0.1-0.1h2.7q0.1 0 0.1 0.1v1.1q0 0.8 0.5 1.4 0.5 0.5 1.3 0.5 0.7 0 1.3-0.5 0.5-0.6 0.5-1.4 0-0.9-1.2-1.5-0.1-0.1-0.5-0.3-0.2-0.2-0.7-0.4-0.4-0.2-0.8-0.4-0.3-0.3-0.7-0.5-1.3-0.7-2-1.9-0.6-1.2-0.6-2.6 0-1.3 0.7-2.4 0.6-1.1 1.7-1.7 1-0.6 2.3-0.6 1.3 0 2.3 0.6 1.1 0.6 1.7 1.7 0.7 1.1 0.7 2.4v2q0 0.1-0.1 0.1h-2.7q-0.1 0-0.1-0.1v-2q0-0.9-0.6-1.4-0.5-0.5-1.2-0.5-0.8 0-1.3 0.6-0.5 0.5-0.5 1.3 0 0.8 0.3 1.3 0.4 0.5 1.2 1 0.1 0.1 0.5 0.2 0.3 0.2 0.7 0.5 0.5 0.2 0.8 0.4 0.3 0.2 0.4 0.2 1.2 0.7 1.9 1.6 0.7 1 0.7 2.4 0 1.4-0.6 2.5-0.7 1.1-1.8 1.7-1 0.6-2.3 0.6zm5.5-0.3l3-16.5q0-0.1 0.1-0.1h3.5q0.1 0 0.1 0.1l2.9 16.5q0 0.1-0.1 0.1h-2.7q-0.1 0-0.1-0.1l-0.2-1.8h-3.3l-0.3 1.8q0 0.1-0.1 0.1h-2.7q-0.1 0-0.1-0.1zm6-4.3l-1-6.8-0.1-0.9-0.2 0.9-1 6.8zm7.9 4.4h-2.7q-0.1 0-0.1-0.1v-16.5q0-0.1 0.1-0.1h3q0.1 0 0.1 0.1l2.2 3.2 2.2-3.2q0.1-0.1 0.2-0.1h2.9q0.1 0 0.1 0.1l0.1 16.5q0 0.1-0.1 0.1h-2.7q-0.1 0-0.1-0.1l-0.1-12.3-2.5 3.7-2.5-3.7v12.3q0 0.1-0.1 0.1zm9.3-0.1l2.9-16.5q0.1-0.1 0.2-0.1h3.4q0.1 0 0.2 0.1l2.8 16.5q0 0.1-0.1 0.1h-2.6q-0.2 0-0.2-0.1l-0.2-1.8h-3.3l-0.3 1.8q0 0.1-0.1 0.1h-2.6q-0.1 0-0.1-0.1zm5.9-4.3l-1-6.8-0.1-0.9-0.1 0.9-1.1 6.8zm15.7 4.4h-4.3q-0.1 0-0.1-0.1l0.1-16.5q0-0.1 0.1-0.1h4.6q1.3 0 2.4 0.7 1.1 0.6 1.7 1.7 0.7 1.1 0.7 2.3 0 1.1-0.5 2-0.5 0.9-1.1 1.4 0.7 0.7 1.1 1.6 0.3 0.9 0.3 1.9 0 1.4-0.6 2.6-0.7 1.1-1.8 1.8-1.2 0.7-2.6 0.7zm0.4-13.9h-1.8v3.8h1.8q0.8 0 1.3-0.6 0.6-0.6 0.6-1.3 0-0.7-0.6-1.3-0.5-0.6-1.3-0.6zm-0.4 6.7h-1.4l-0.1 4.3h1.5q0.9 0 1.5-0.7 0.6-0.6 0.6-1.5 0-0.8-0.6-1.5-0.6-0.6-1.5-0.6zm11.2 7.4q-1.3 0-2.4-0.6-1-0.7-1.7-1.8-0.6-1.1-0.6-2.4v-12q0-0.1 0.1-0.1h2.7q0.1 0 0.1 0.1v12q0 0.8 0.5 1.4 0.5 0.5 1.3 0.5 0.8 0 1.3-0.5 0.5-0.6 0.5-1.4v-12q0-0.1 0.1-0.1h2.7q0.1 0 0.1 0.1v12q0 1.3-0.6 2.4-0.7 1.1-1.7 1.8-1.1 0.6-2.4 0.6zm9.2-0.2h-2.4q-0.2 0-0.2-0.2v-16.3q0-0.2 0.2-0.2h2.2l4 9.5-0.1-9.3q0-0.2 0.2-0.2h2.4q0.1 0 0.1 0.2l0.1 16.4q0 0.1-0.2 0.1h-2.1l-4.1-8.8 0.1 8.6q0 0.2-0.2 0.2zm13 0h-4.3q-0.2 0-0.2-0.1l0.1-16.5q0-0.1 0.1-0.1h4.5q1.3-0.1 2.4 0.6 1.1 0.6 1.7 1.7 0.7 1.1 0.7 2.4v6.9q0 1.4-0.7 2.6-0.7 1.1-1.8 1.8-1.1 0.7-2.5 0.7zm0.2-13.9l-1.7 0.1v10.8h1.5q0.9 0 1.5-0.6 0.6-0.6 0.6-1.5v-6.9q0-0.7-0.6-1.3-0.6-0.6-1.3-0.6zm5.9 13.8l2.9-16.5q0.1-0.1 0.1-0.1h3.5q0.1 0 0.1 0.1l2.9 16.5q0 0.1-0.1 0.1h-2.6q-0.2 0-0.2-0.1l-0.2-1.8h-3.3l-0.3 1.8q0 0.1-0.1 0.1h-2.7q0 0 0-0.1zm5.9-4.3l-1-6.8-0.1-0.9-0.1 0.9-1.1 6.8zm9.9-2.5h-4.6q-0.1 0-0.1-0.1v-2.6q0-0.1 0.1-0.1h4.6q0.2 0 0.2 0.1v2.6q0 0.1-0.2 0.1zm5.1 6.9h-2.4q-0.2 0-0.2-0.2v-16.3q0-0.2 0.1-0.2h2.2l4.1 9.5-0.1-9.3q0-0.2 0.2-0.2h2.3q0.2 0 0.2 0.2v16.4q0 0.1-0.1 0.1h-2.1l-4.2-8.8 0.2 8.6q0 0.2-0.2 0.2zm13.5 0h-2.8q0 0 0-0.1v-6.8l-3.2-9.7q0-0.1 0-0.1h2.7q0.1 0 0.2 0.1l1.7 6.5 1.8-6.5q0.1-0.1 0.1-0.1h2.7q0.1 0 0.1 0.1l-3.2 9.6v6.9q0 0.1-0.1 0.1zm3.8-0.1l3-16.5q0-0.1 0.1-0.1h3.5q0.1 0 0.1 0.1l2.9 16.5q0 0.1-0.1 0.1h-2.7q-0.1 0-0.1-0.1l-0.3-1.8h-3.3l-0.2 1.8q0 0.1-0.1 0.1h-2.7q-0.1 0-0.1-0.1zm5.9-4.3l-0.9-6.8-0.2-0.9-0.1 0.9-1.1 6.8zm5.1 7.4v-1.5q0.6 0 1.1-0.4 0.4-0.5 0.4-1.1h-1.4q-0.1 0-0.1-0.1v-2.7q0-0.1 0.1-0.1h2.8q0.1 0 0.1 0.1v2.8q0 0.8-0.5 1.5-0.4 0.7-1 1.1-0.7 0.4-1.5 0.4zm-487 26h-2.7q-0.2 0-0.2-0.1l0.1-16.5q0-0.1 0.1-0.1h4.6q2.2 0 3.5 1.3 1.3 1.4 1.3 3.7 0 1.7-0.7 2.9-0.7 1.3-1.8 2-1 0.6-2.3 0.6h-1.8v6.1q0 0.1-0.1 0.1zm1.9-13.9l-1.8 0.1v4.7h1.8q0.8 0 1.3-0.7 0.6-0.7 0.6-1.9 0-0.9-0.5-1.5-0.5-0.7-1.4-0.7zm14 13.9h-7.7q-0.1 0-0.1-0.1v-16.5q0-0.1 0.1-0.1h7.7q0.1 0 0.1 0.1v2.7q0 0.1-0.1 0.1h-4.9v3.7h4.9q0.1 0 0.1 0.1v2.8q0 0.1-0.1 0.1h-4.9v4.1h4.9q0.1 0 0.1 0.2v2.7q0 0.1-0.1 0.1zm5.1 0h-2.7q-0.1 0-0.1-0.1v-16.5q0-0.1 0.1-0.1h4.9q1.3 0 2.4 0.6 1 0.7 1.7 1.7 0.6 1.1 0.6 2.4 0 0.9-0.2 1.6-0.3 0.8-0.7 1.2-0.3 0.5-0.6 0.8 1.3 1.4 1.3 3.4v4.9q0 0.1-0.1 0.1h-2.7q-0.1 0-0.1-0.1v-4.9q0-0.9-0.6-1.5-0.6-0.7-1.5-0.7h-1.6v7.1q0 0.1-0.1 0.1zm2.2-13.8h-2.1v3.7h2.1q0.7 0 1.3-0.5 0.6-0.6 0.6-1.4 0-0.7-0.6-1.3-0.6-0.5-1.3-0.5zm5.3 13.7l2.9-16.5q0.1-0.1 0.1-0.1h3.5q0.1 0 0.1 0.1l2.9 16.5q0 0.1-0.1 0.1h-2.6q-0.2 0-0.2-0.1l-0.2-1.8h-3.3l-0.3 1.8q0 0.1-0.1 0.1h-2.7q0 0 0-0.1zm5.9-4.3l-1-6.8-0.1-0.9-0.1 0.9-1.1 6.8zm10.2 4.4h-2.9q-0.1 0-0.1-0.1l-2.8-16.5q-0.1-0.1 0-0.1h2.7q0.1 0 0.1 0.1l1.6 10.8 1.6-10.8q0-0.1 0.1-0.1h2.2q0.1 0 0.1 0.1l1.5 10.8 1.6-10.8q0-0.1 0.1-0.1h2.7q0.1 0 0.1 0.1l-2.9 16.5q0 0 0 0.1h-0.1-2.9q-0.1 0-0.1-0.1l-1.2-8.6-1.3 8.6q0 0.1-0.1 0.1zm9.2-0.1l3-16.5q0-0.1 0.1-0.1h3.5q0 0 0.1 0.1l2.8 16.5q0 0.1-0.1 0.1h-2.6q-0.1 0-0.2-0.1l-0.2-1.8h-3.3l-0.2 1.8q0 0.1-0.2 0.1h-2.6q-0.1 0-0.1-0.1zm5.9-4.3l-1-6.8-0.1-0.9-0.1 0.9-1.1 6.8zm7.7 4.4h-2.4q-0.2 0-0.2-0.2v-16.3q0-0.2 0.2-0.2h2.2l4 9.5-0.1-9.3q0-0.2 0.2-0.2h2.4q0.1 0 0.1 0.2l0.1 16.4q0 0.1-0.1 0.1h-2.2l-4.1-8.8 0.2 8.6q0 0.2-0.3 0.2zm17.6 0h-2.7q-0.1 0-0.1-0.1v-16.5q0-0.1 0.1-0.1h3q0.1 0 0.1 0.1l2.2 3.2 2.2-3.2q0.1-0.1 0.2-0.1h2.9q0.1 0 0.1 0.1l0.1 16.5q0 0.1-0.1 0.1h-2.7q-0.1 0-0.1-0.1l-0.1-12.3-2.5 3.7-2.5-3.7v12.3q0 0.1-0.1 0.1zm9.3-0.1l2.9-16.5q0.1-0.1 0.2-0.1h3.4q0.1 0 0.2 0.1l2.8 16.5q0 0.1-0.1 0.1h-2.6q-0.2 0-0.2-0.1l-0.2-1.8h-3.3l-0.3 1.8q0 0.1-0.1 0.1h-2.6q-0.1 0-0.1-0.1zm5.9-4.3l-1-6.8-0.1-0.9-0.1 0.9-1.1 6.8zm7.9 4.4h-2.7q-0.1 0-0.1-0.1v-16.5q0-0.1 0.1-0.1h4.9q1.3 0 2.4 0.6 1.1 0.7 1.7 1.7 0.7 1.1 0.7 2.4 0 0.9-0.3 1.6-0.3 0.8-0.6 1.2-0.4 0.5-0.7 0.8 1.3 1.4 1.3 3.4l0.1 4.9q0 0.1-0.2 0.1h-2.7q-0.1 0-0.1-0.1v-4.9q0-0.9-0.6-1.5-0.6-0.7-1.5-0.7h-1.6v7.1q0 0.1-0.1 0.1zm2.2-13.8h-2.1v3.7h2.1q0.7 0 1.3-0.5 0.6-0.6 0.6-1.4 0-0.7-0.6-1.3-0.5-0.5-1.3-0.5zm9.4 13.8h-2.7q-0.1 0-0.1-0.1v-16.5q0-0.1 0.1-0.1h2.7q0.1 0 0.1 0.1v16.5q0 0.1-0.1 0.1zm1.4-0.1l3-16.5q0-0.1 0.1-0.1h3.5q0.1 0 0.1 0.1l2.9 16.5q0 0.1-0.1 0.1h-2.7q-0.1 0-0.1-0.1l-0.3-1.8h-3.3l-0.2 1.8q0 0.1-0.1 0.1h-2.7q-0.1 0-0.1-0.1zm5.9-4.3l-1-6.8-0.1-0.9-0.1 0.9-1.1 6.8zm8 4.4h-2.8q-0.1 0-0.1-0.1v-2.7q0-0.1 0.1-0.1h2.8q0 0 0 0.1v2.7q0 0.1 0 0.1zm12.7 0h-4.3q-0.2 0-0.2-0.1l0.1-16.5q0-0.1 0.1-0.1h4.5q1.3-0.1 2.4 0.6 1.1 0.6 1.7 1.7 0.7 1.1 0.7 2.4v6.9q0 1.4-0.7 2.6-0.7 1.1-1.8 1.8-1.1 0.7-2.5 0.7zm0.2-13.9l-1.7 0.1v10.8h1.5q0.8 0 1.5-0.6 0.6-0.6 0.6-1.5v-6.9q0-0.7-0.6-1.3-0.6-0.6-1.3-0.6zm14.5 13.9h-7.7q-0.1 0-0.1-0.1v-16.5q0-0.1 0.1-0.1h7.7q0.1 0 0.1 0.1v2.7q0 0.1-0.1 0.1h-4.9v3.7h4.9q0.1 0 0.1 0.1v2.8q0 0.1-0.1 0.1h-4.9v4.1h4.9q0.1 0 0.1 0.2v2.7q0 0.1-0.1 0.1zm5.1 0h-2.8q-0.1 0-0.1-0.1l0.1-16.5q0-0.1 0.1-0.1h2.9q0.1 0 0.2 0.1l2.2 3.2 2.1-3.2q0.1-0.1 0.2-0.1h3q0.1 0 0.1 0.1v16.5q0 0.1-0.1 0.1h-2.7q-0.1 0-0.1-0.1v-12.3l-2.5 3.7-2.5-3.7-0.1 12.3q0 0.1 0 0.1zm12.9 0h-2.8q-0.1 0-0.1-0.1v-16.5q0-0.1 0.1-0.1h2.7q0.1 0 0.1 0.1v16.5q0 0.1 0 0.1zm11.2 0h-2.7q-0.1 0-0.1-0.1v-16.5q0-0.1 0.1-0.1h2.7q0.1 0 0.1 0.1v5.7l3.8-5.7q0.1-0.1 0.2-0.1h2.7q0.1 0 0.1 0.1l-4.2 6.6 4.7 9.9q0 0.1-0.2 0.1h-2.9q-0.1 0-0.1-0.1l-3.3-7-0.8 1.3v5.7q0 0.1-0.1 0.1zm11.3 0h-2.8q-0.1 0-0.1-0.1l0.1-16.5q0-0.1 0.1-0.1h4.8q1.3 0 2.4 0.6 1.1 0.7 1.8 1.7 0.6 1.1 0.6 2.4 0 0.9-0.3 1.6-0.2 0.8-0.6 1.2-0.3 0.5-0.6 0.8 1.3 1.4 1.3 3.4v4.9q0 0.1-0.1 0.1h-2.7q-0.1 0-0.1-0.1v-4.9q0-0.9-0.6-1.5-0.7-0.7-1.5-0.7h-1.6l-0.1 7.1q0 0.1 0 0.1zm2.1-13.8h-2v3.7h2q0.8 0 1.3-0.5 0.6-0.6 0.6-1.4 0-0.7-0.5-1.3-0.6-0.5-1.4-0.5zm9.4 13.8h-2.7q-0.1 0-0.1-0.1v-16.5q0-0.1 0.1-0.1h2.7q0.1 0 0.1 0.1v16.5q0 0.1-0.1 0.1zm6.3 0.2q-1.3 0-2.3-0.6-1.1-0.7-1.7-1.8-0.7-1.1-0.7-2.4v-1.1q0-0.1 0.1-0.1h2.7q0.1 0 0.1 0.1v1.1q0 0.8 0.6 1.4 0.5 0.5 1.2 0.5 0.8 0 1.3-0.5 0.5-0.6 0.5-1.4 0-0.9-1.1-1.5-0.2-0.1-0.5-0.3-0.3-0.2-0.7-0.4-0.4-0.2-0.8-0.4-0.4-0.3-0.8-0.5-1.3-0.7-1.9-1.9-0.7-1.2-0.7-2.6 0-1.3 0.7-2.4 0.7-1.1 1.7-1.7 1.1-0.6 2.3-0.6 1.3 0 2.4 0.6 1 0.6 1.7 1.7 0.6 1.1 0.6 2.4v2q0 0.1-0.1 0.1h-2.7q-0.1 0-0.1-0.1v-2q0-0.9-0.5-1.4-0.5-0.5-1.3-0.5-0.7 0-1.2 0.6-0.6 0.5-0.6 1.3 0 0.8 0.4 1.3 0.3 0.5 1.2 1 0.1 0.1 0.4 0.2 0.4 0.2 0.8 0.5 0.4 0.2 0.7 0.4 0.4 0.2 0.4 0.2 1.2 0.7 1.9 1.6 0.7 1 0.7 2.4 0 1.4-0.6 2.5-0.6 1.1-1.7 1.7-1.1 0.6-2.4 0.6zm11.5-0.2h-2.7q-0.1 0-0.1-0.1v-13.7h-3.1q-0.1 0-0.1-0.1v-2.7q0-0.1 0.1-0.1h9.1q0.1 0 0.1 0.1v2.7q0 0.1-0.1 0.1h-3.1v13.7q0 0.1-0.1 0.1zm8.9 0.2q-1.3 0-2.3-0.6-1.1-0.7-1.8-1.8-0.6-1.1-0.6-2.4l0.1-12q0-0.1 0.1-0.1h2.7q0 0 0 0.1v12q0 0.8 0.6 1.4 0.5 0.5 1.2 0.5 0.8 0 1.3-0.5 0.5-0.6 0.5-1.4v-12q0-0.1 0.1-0.1h2.7q0.1 0 0.1 0.1v12q0 1.3-0.6 2.4-0.6 1.1-1.7 1.8-1.1 0.6-2.4 0.6zm10.7 0q-1.3 0-2.3-0.6-1.1-0.7-1.8-1.8-0.6-1.1-0.6-2.4v-1.1q0-0.1 0.1-0.1h2.7q0.1 0 0.1 0.1v1.1q0 0.8 0.5 1.4 0.6 0.5 1.3 0.5 0.8 0 1.3-0.5 0.5-0.6 0.5-1.4 0-0.9-1.1-1.5-0.2-0.1-0.5-0.3-0.3-0.2-0.7-0.4-0.4-0.2-0.8-0.4-0.4-0.3-0.8-0.5-1.3-0.7-1.9-1.9-0.7-1.2-0.7-2.6 0-1.3 0.7-2.4 0.7-1.1 1.7-1.7 1.1-0.6 2.3-0.6 1.3 0 2.4 0.6 1 0.6 1.7 1.7 0.6 1.1 0.6 2.4v2q0 0.1-0.1 0.1h-2.7q-0.1 0-0.1-0.1v-2q0-0.9-0.5-1.4-0.6-0.5-1.3-0.5-0.7 0-1.3 0.6-0.5 0.5-0.5 1.3 0 0.8 0.3 1.3 0.4 0.5 1.3 1 0.1 0.1 0.4 0.2 0.4 0.2 0.8 0.5 0.4 0.2 0.7 0.4 0.4 0.2 0.4 0.2 1.2 0.7 1.9 1.6 0.7 1 0.7 2.4 0 1.4-0.6 2.5-0.7 1.1-1.7 1.7-1.1 0.6-2.4 0.6zm6.4 2.8v-1.5q0.6 0 1-0.4 0.4-0.5 0.4-1.1h-1.3q-0.1 0-0.1-0.1v-2.7q0-0.1 0.1-0.1h2.7q0.1 0 0.1 0.1v2.8q0 0.8-0.4 1.5-0.4 0.7-1.1 1.1-0.6 0.4-1.4 0.4zm13.9-3h-2.7q-0.1 0-0.1-0.1v-16.5q0-0.1 0.1-0.1h4.6q2.2 0 3.5 1.3 1.3 1.4 1.3 3.7 0 1.7-0.7 2.9-0.6 1.3-1.7 2-1.1 0.6-2.4 0.6h-1.8v6.1q0 0.1-0.1 0.1zm1.9-13.9l-1.8 0.1v4.7h1.8q0.8 0 1.4-0.7 0.5-0.7 0.5-1.9 0-0.9-0.5-1.5-0.5-0.7-1.4-0.7zm14.3 13.9h-7.8q-0.1 0-0.1-0.1l0.1-16.5q0-0.1 0.1-0.1h7.7q0.1 0 0.1 0.1v2.7q0 0.1-0.1 0.1h-5v3.7h5q0.1 0 0.1 0.1v2.8q0 0.1-0.1 0.1h-5v4.1h5q0.1 0 0.1 0.2v2.7q0 0.1-0.1 0.1zm4.8 0h-2.4q-0.2 0-0.2-0.2v-16.3q0-0.2 0.2-0.2h2.2l4 9.5-0.1-9.3q0-0.2 0.2-0.2h2.4q0.1 0 0.1 0.2l0.1 16.4q0 0.1-0.1 0.1h-2.2l-4.1-8.8 0.2 8.6q0 0.2-0.3 0.2zm12.9 0.2q-1.3 0-2.3-0.6-1.1-0.7-1.7-1.7-0.6-1.1-0.6-2.5v-7.6q0-1.3 0.6-2.4 0.6-1.1 1.7-1.7 1.1-0.7 2.3-0.7 1.4 0 2.4 0.7 1.1 0.6 1.7 1.7 0.7 1.1 0.7 2.4v1.1q0 0.1-0.2 0.1h-2.7q0 0 0-0.1v-0.9q0-0.9-0.6-1.5-0.5-0.6-1.3-0.6-0.6 0-1.2 0.6-0.5 0.5-0.5 1.3v7.6q0 0.8 0.5 1.4 0.5 0.5 1.2 0.5 0.8 0 1.3-0.5 0.6-0.6 0.6-1.4v-1.2h-1.7q-0.2 0-0.2-0.1v-2.7q0-0.1 0.2-0.1h4.5q0.1 0 0.1 0.1v4q0 1.4-0.7 2.5-0.6 1-1.7 1.7-1 0.6-2.4 0.6zm5.6-0.3l3-16.5q0-0.1 0.1-0.1h3.5q0.1 0 0.1 0.1l2.9 16.5q0 0.1-0.1 0.1h-2.7q-0.1 0-0.1-0.1l-0.3-1.8h-3.2l-0.3 1.8q0 0.1-0.1 0.1h-2.7q-0.1 0-0.1-0.1zm6-4.3l-1-6.8-0.2-0.9-0.1 0.9-1 6.8zm7.7 4.4h-2.4q-0.2 0-0.2-0.2v-16.3q0-0.2 0.2-0.2h2.1l4.1 9.5-0.1-9.3q0-0.2 0.2-0.2h2.4q0.1 0 0.1 0.2v16.4q0 0.1-0.1 0.1h-2.1l-4.2-8.8 0.2 8.6q0 0.2-0.2 0.2zm13.6 0h-2.7q-0.1 0-0.1-0.1v-13.7h-3.1q-0.1 0-0.1-0.1v-2.7q0-0.1 0.1-0.1h9.1q0.2 0 0.2 0.1v2.7q0 0.1-0.1 0.1h-3.2v13.7q0 0.1-0.1 0.1zm3.7-0.1l3-16.5q0-0.1 0.1-0.1h3.5q0.1 0 0.1 0.1l2.9 16.5q0 0.1-0.1 0.1h-2.7q-0.1 0-0.1-0.1l-0.3-1.8h-3.3l-0.2 1.8q0 0.1-0.1 0.1h-2.7q-0.1 0-0.1-0.1zm5.9-4.3l-1-6.8-0.1-0.9-0.1 0.9-1.1 6.8zm8 4.4h-2.8q-0.1 0-0.1-0.1l0.1-16.5q0-0.1 0.1-0.1h4.8q1.3 0 2.4 0.6 1.1 0.7 1.8 1.7 0.6 1.1 0.6 2.4 0 0.9-0.3 1.6-0.2 0.8-0.6 1.2-0.3 0.5-0.6 0.8 1.3 1.4 1.3 3.4v4.9q0 0.1-0.1 0.1h-2.7q-0.1 0-0.1-0.1v-4.9q0-0.9-0.6-1.5-0.7-0.7-1.5-0.7h-1.6v7.1q0 0.1-0.1 0.1zm2.1-13.8h-2v3.7h2q0.8 0 1.3-0.5 0.6-0.6 0.6-1.4 0-0.7-0.5-1.3-0.6-0.5-1.4-0.5zm5.3 13.7l3-16.5q0-0.1 0.1-0.1h3.5q0.1 0 0.1 0.1l2.9 16.5q0 0.1-0.1 0.1h-2.7q-0.1 0-0.1-0.1l-0.3-1.8h-3.2l-0.3 1.8q0 0.1-0.1 0.1h-2.7q-0.1 0-0.1-0.1zm6-4.3l-1-6.8-0.2-0.9-0.1 0.9-1.1 6.8zm14.2 4.4h-2.7q-0.1 0-0.1-0.1v-16.5q0-0.1 0.1-0.1h2.7q0.1 0 0.1 0.1v5.7l3.8-5.7q0.1-0.1 0.2-0.1h2.7q0.1 0 0.1 0.1l-4.2 6.6 4.7 9.9q0 0.1-0.1 0.1h-3q-0.1 0-0.1-0.1l-3.3-7-0.8 1.3v5.7q0 0.1-0.1 0.1zm7.6-0.1l3-16.5q0-0.1 0.1-0.1h3.5q0.1 0 0.1 0.1l2.9 16.5q0 0.1-0.1 0.1h-2.7q-0.1 0-0.1-0.1l-0.3-1.8h-3.2l-0.3 1.8q0 0.1-0.1 0.1h-2.7q-0.1 0-0.1-0.1zm6-4.3l-1-6.8-0.2-0.9-0.1 0.9-1 6.8zm7.9 4.4h-2.7q-0.1 0-0.1-0.1v-16.5q0-0.1 0.1-0.1h3q0 0 0.1 0.1l2.2 3.2 2.2-3.2q0.1-0.1 0.2-0.1h2.9q0.1 0 0.1 0.1l0.1 16.5q0 0.1-0.1 0.1h-2.8q0 0 0-0.1l-0.1-12.3-2.5 3.7-2.5-3.7v12.3q0 0.1-0.1 0.1zm12.9 0h-2.7q-0.1 0-0.1-0.1v-16.5q0-0.1 0.1-0.1h2.7q0.1 0 0.1 0.1v16.5q0 0.1-0.1 0.1zm5 0h-2.7q-0.1 0-0.1-0.1v-2.7q0-0.1 0.1-0.1h2.7q0.1 0 0.1 0.1v2.7q0 0.1-0.1 0.1zm-235 27.9l3-16.5q0-0.1 0.1-0.1h3.5q0 0 0.1 0.1l2.8 16.5q0 0.1-0.1 0.1h-2.6q-0.1 0-0.2-0.1l-0.2-1.8h-3.3l-0.2 1.8q0 0.1-0.2 0.1h-2.6q-0.1 0-0.1-0.1zm5.9-4.3l-1-6.8-0.1-0.9-0.1 0.9-1.1 6.8zm7.9 4.4h-2.7q-0.1 0-0.1-0.1l0.1-16.5q0-0.1 0.1-0.1h2.9q0.1 0 0.2 0.1l2.1 3.2 2.2-3.2q0.1-0.1 0.2-0.1h2.9q0.2 0 0.2 0.1v16.5q0 0.1-0.1 0.1h-2.7q-0.1 0-0.1-0.1v-12.3l-2.6 3.7-2.4-3.7-0.1 12.3q0 0.1-0.1 0.1zm12.9 0h-2.7q-0.1 0-0.1-0.1v-16.5q0-0.1 0.1-0.1h2.7q0.1 0 0.1 0.1v16.5q0 0.1-0.1 0.1zm4.9 0h-2.4q-0.2 0-0.2-0.2l-0.1-16.3q0-0.2 0.2-0.2h2.2l4.1 9.5-0.2-9.3q0-0.2 0.2-0.2h2.4q0.2 0 0.2 0.2v16.4q0 0.1-0.1 0.1h-2.1l-4.2-8.8 0.2 8.6q0 0.2-0.2 0.2zm11.3 0h-2.7q-0.1 0-0.1-0.1v-2.7q0-0.1 0.1-0.1h2.7q0.1 0 0.1 0.1v2.7q0 0.1-0.1 0.1z" aria-label="Ratu Surga bersukacitalah, Alleluya.
Sebab Ia yang sudi kaukandung, Alleluya.
Telah bangkit seperti yang disabdakan-Nya, Alleluya.
Doakanlah kami pada Allah, Alleluya.
Bersukacitalah dan bergembiralah, Perawan Maria, Alleluya.
Sebab Tuhan sungguh telah bangkit, Alleluya.
 
Marilah berdoa :

Ya Allah, Engkau telah menggembirakan dunia dengan kebangkitan PutraMu, 
Tuhan kami Yesus Kristus. Kami mohon, perkenankanlah
 kami bersukacita dalam kehidupan kekal bersama bunda-Nya, 
Perawan Maria. Demi Kristus, pengantara kami.
Amin." class="s0" id="Ratu Surga bersukacitalah, Allel"></path>
</svg>